<svg width="16" height="16" viewBox="0 0 16 16" fill="none" xmlns="http://www.w3.org/2000/svg">
<path d="M10.7934 1.33325H5.20671C2.78004 1.33325 1.33337 2.77992 1.33337 5.20659V10.7866C1.33337 13.2199 2.78004 14.6666 5.20671 14.6666H10.7867C13.2134 14.6666 14.66 13.2199 14.66 10.7933V5.20659C14.6667 2.77992 13.22 1.33325 10.7934 1.33325ZM9.86004 8.35325L7.50671 10.7066C7.40671 10.8066 7.28004 10.8533 7.15337 10.8533C7.02671 10.8533 6.90004 10.8066 6.80004 10.7066C6.60671 10.5133 6.60671 10.1933 6.80004 9.99992L8.80004 7.99992L6.80004 5.99992C6.60671 5.80659 6.60671 5.48659 6.80004 5.29325C6.99337 5.09992 7.31337 5.09992 7.50671 5.29325L9.86004 7.64659C10.06 7.83992 10.06 8.15992 9.86004 8.35325Z" fill="#F3A218"/>
</svg>
