<svg width="16" height="16" viewBox="0 0 16 16" fill="none" xmlns="http://www.w3.org/2000/svg">
<path d="M10.7933 1.33325H5.20665C2.77998 1.33325 1.33331 2.77992 1.33331 5.20659V10.7866C1.33331 13.2199 2.77998 14.6666 5.20665 14.6666H10.7866C13.2133 14.6666 14.66 13.2199 14.66 10.7933V5.20659C14.6666 2.77992 13.22 1.33325 10.7933 1.33325ZM10.7066 7.44658L8.35331 9.79992C8.25331 9.89992 8.12665 9.94658 7.99998 9.94658C7.87331 9.94658 7.74665 9.89992 7.64665 9.79992L5.29331 7.44658C5.09998 7.25325 5.09998 6.93325 5.29331 6.73992C5.48665 6.54658 5.80665 6.54658 5.99998 6.73992L7.99998 8.73992L9.99998 6.73992C10.1933 6.54658 10.5133 6.54658 10.7066 6.73992C10.9 6.93325 10.9 7.24658 10.7066 7.44658Z" fill="#59B96F"/>
</svg>
