<svg width="16" height="16" viewBox="0 0 16 16" fill="none" xmlns="http://www.w3.org/2000/svg">
<path d="M10.7933 1.33325H5.20666C2.77999 1.33325 1.33333 2.77992 1.33333 5.20659V10.7866C1.33333 13.2199 2.77999 14.6666 5.20666 14.6666H10.7867C13.2133 14.6666 14.66 13.2199 14.66 10.7933V5.20659C14.6667 2.77992 13.22 1.33325 10.7933 1.33325ZM10.7067 9.33325C10.6067 9.43325 10.48 9.47992 10.3533 9.47992C10.2267 9.47992 10.1 9.42658 10 9.33325L8 7.33325L6 9.33325C5.80666 9.52658 5.48666 9.52658 5.29333 9.33325C5.1 9.13992 5.1 8.81992 5.29333 8.62658L7.64666 6.27325C7.84 6.07992 8.15999 6.07992 8.35333 6.27325L10.7067 8.62658C10.9 8.81992 10.9 9.13325 10.7067 9.33325Z" fill="#F04438"/>
</svg>
