<svg width="16" height="16" viewBox="0 0 16 16" fill="none" xmlns="http://www.w3.org/2000/svg">
<path d="M10.7933 1.33325H5.20668C2.78001 1.33325 1.33334 2.77992 1.33334 5.20659V10.7866C1.33334 13.2199 2.78001 14.6666 5.20668 14.6666H10.7867C13.2133 14.6666 14.66 13.2199 14.66 10.7933V5.20659C14.6667 2.77992 13.22 1.33325 10.7933 1.33325ZM9.86001 8.35325L7.50668 10.7066C7.40668 10.8066 7.28001 10.8533 7.15334 10.8533C7.02668 10.8533 6.90001 10.8066 6.80001 10.7066C6.60668 10.5133 6.60668 10.1933 6.80001 9.99992L8.80001 7.99992L6.80001 5.99992C6.60668 5.80659 6.60668 5.48659 6.80001 5.29325C6.99334 5.09992 7.31334 5.09992 7.50668 5.29325L9.86001 7.64659C10.06 7.83992 10.06 8.15992 9.86001 8.35325Z" fill="#F3A218"/>
</svg>
