<svg width="16" height="16" viewBox="0 0 16 16" fill="none" xmlns="http://www.w3.org/2000/svg">
<path d="M14.9893 11.2908L13.5519 6.99075C13.9515 6.71871 14.1219 6.6285 14.2222 6.41515C14.3491 6.14535 13.9032 4.86252 13.6316 4.64852C13.3952 4.46224 13.2519 4.5292 12.748 4.586L11.3086 0.279985C11.2715 0.16904 11.1504 0.108604 11.0394 0.145691L11.0115 0.155036C10.9005 0.192124 10.8401 0.313243 10.8772 0.424188L10.9349 0.596725C10.6853 1.25729 9.25695 4.59342 5.44297 5.86837C3.06371 6.66372 2.24183 6.30506 1.65146 7.19974C1.50731 7.41819 1.47879 7.82678 1.53187 8.31166C1.31204 8.35541 1.16887 8.41927 1.0527 8.61442C0.812863 9.0173 1.37272 10.7956 1.80231 10.8568C1.96611 10.8802 2.11387 10.8492 2.28853 10.7839C2.55699 11.2929 2.86247 11.6542 3.15066 11.6845C3.56577 11.7282 3.93764 11.6237 4.41347 11.4306C4.81926 12.7513 5.58147 15.5932 5.97828 15.8294C6.38116 16.0693 8.23532 14.8846 8.29655 14.455C8.33908 14.1566 7.4895 14.0012 6.71063 12.8881C6.72981 12.8476 6.73429 12.8 6.71894 12.7541L6.46258 11.9872C6.43105 11.8929 6.32903 11.842 6.23473 11.8735L6.17078 11.8949C6.04142 11.5862 5.92289 11.234 5.8214 10.8313C6.15226 10.6977 6.52723 10.5558 6.96141 10.4107L6.96144 10.4106C10.657 9.17529 13.9004 10.9147 14.5023 11.2686L14.5579 11.435C14.595 11.5459 14.7161 11.6063 14.8271 11.5693L14.8551 11.5599C14.966 11.5228 15.0264 11.4017 14.9893 11.2908Z" fill="#EDEDED"/>
<path d="M6.47998 8.97191L6.47995 8.97182L5.44277 5.86914C5.23576 5.93834 5.04124 5.99833 4.85693 6.05165C4.83281 6.05863 4.80864 6.06563 4.7849 6.07237C4.74623 6.08333 4.70832 6.09383 4.67063 6.10418C4.64908 6.11009 4.62715 6.11624 4.60593 6.12197C4.55729 6.13507 4.50962 6.1476 4.4626 6.15974C4.43288 6.16742 4.40383 6.17472 4.37474 6.18203C2.79606 6.5791 2.14293 6.4554 1.65125 7.20051C1.5071 7.41896 1.47858 7.82755 1.53167 8.31244C1.58356 8.7861 1.71344 9.33249 1.88977 9.84594C1.89587 9.86371 1.90193 9.88149 1.90813 9.89916C1.90813 9.89916 1.90812 9.89916 1.9081 9.89916C1.90829 9.89968 1.90848 9.90018 1.90865 9.90071C1.91325 9.91381 1.918 9.9268 1.92266 9.93985C1.92869 9.95671 1.93467 9.97361 1.9408 9.99038C1.94592 10.0044 1.95115 10.0183 1.95633 10.0322C1.96214 10.0479 1.96792 10.0636 1.97383 10.0791C1.97922 10.0934 1.98472 10.1075 1.99018 10.1217C1.99603 10.1368 2.00184 10.1519 2.00775 10.167C2.01332 10.1811 2.01898 10.1951 2.02461 10.2092C2.03057 10.2241 2.03654 10.239 2.04257 10.2538C2.04824 10.2677 2.05396 10.2814 2.05968 10.2952C2.06581 10.3099 2.07195 10.3246 2.07814 10.3392C2.08395 10.3529 2.08981 10.3665 2.09568 10.3801C2.10193 10.3946 2.10819 10.409 2.1145 10.4234C2.12039 10.4367 2.12632 10.45 2.13225 10.4633C2.13868 10.4776 2.14513 10.4919 2.15162 10.506C2.15759 10.5191 2.16359 10.5321 2.16961 10.545C2.17615 10.559 2.18273 10.573 2.18935 10.5869C2.19543 10.5997 2.20155 10.6125 2.20768 10.6251C2.21431 10.6388 2.22099 10.6524 2.22768 10.6659C2.23386 10.6784 2.24007 10.6909 2.24631 10.7033C2.25311 10.7167 2.25996 10.73 2.26681 10.7433C2.27301 10.7553 2.27918 10.7674 2.28541 10.7792C2.28636 10.781 2.28729 10.7829 2.28825 10.7847C2.29435 10.7963 2.30054 10.8076 2.3067 10.8191C2.31282 10.8305 2.31893 10.8419 2.32509 10.8531C2.33249 10.8666 2.33995 10.8798 2.34739 10.8931C2.35333 10.9037 2.35926 10.9143 2.36524 10.9248C2.37319 10.9386 2.38121 10.9522 2.38921 10.9657C2.39478 10.9752 2.40033 10.9848 2.40591 10.9941C2.4151 11.0094 2.42436 11.0243 2.4336 11.0392C2.43808 11.0464 2.44253 11.0539 2.44702 11.061C2.46069 11.0827 2.47442 11.1039 2.4882 11.1247C2.49211 11.1306 2.49604 11.1362 2.49996 11.142C2.50999 11.1569 2.52002 11.1718 2.5301 11.1862C2.53551 11.1939 2.54096 11.2013 2.54638 11.2089C2.55498 11.2209 2.56357 11.2329 2.57219 11.2446C2.5782 11.2527 2.58424 11.2604 2.59028 11.2684C2.59838 11.2791 2.60649 11.2898 2.61464 11.3001C2.6209 11.308 2.62718 11.3156 2.63346 11.3234C2.64139 11.3332 2.64933 11.3429 2.65729 11.3524C2.66371 11.36 2.67015 11.3673 2.67658 11.3747C2.68445 11.3838 2.6923 11.3928 2.70016 11.4014C2.70667 11.4086 2.71319 11.4155 2.71972 11.4225C2.72756 11.4309 2.7354 11.4391 2.74326 11.4471C2.74979 11.4538 2.75634 11.4602 2.76288 11.4667C2.77073 11.4743 2.77859 11.4819 2.78644 11.4892C2.79302 11.4953 2.79957 11.5013 2.80616 11.5072C2.81402 11.5142 2.82187 11.521 2.82974 11.5277C2.83632 11.5332 2.84288 11.5387 2.84946 11.5439C2.85734 11.5503 2.86522 11.5563 2.8731 11.5623C2.87966 11.5672 2.88622 11.5721 2.89277 11.5768C2.90071 11.5825 2.90865 11.5878 2.91659 11.593C2.92305 11.5973 2.92951 11.6016 2.93597 11.6056C2.94405 11.6106 2.95213 11.6152 2.96022 11.6198C2.96652 11.6233 2.97283 11.627 2.97914 11.6303C2.98739 11.6346 2.99564 11.6384 3.00389 11.6423C3.01002 11.6451 3.01613 11.6482 3.02226 11.6508C3.03084 11.6544 3.03941 11.6575 3.04798 11.6606C3.05372 11.6626 3.05946 11.665 3.06518 11.6668C3.07468 11.6699 3.08416 11.6722 3.09364 11.6746C3.0984 11.6758 3.10318 11.6774 3.10793 11.6784C3.12214 11.6814 3.13633 11.6838 3.15046 11.6853C3.17959 11.6883 3.2085 11.6907 3.23725 11.6923C3.29475 11.6956 3.35159 11.696 3.4082 11.6937C3.43649 11.6926 3.46474 11.6908 3.49296 11.6884C3.54942 11.6835 3.60584 11.6761 3.66263 11.6662C3.69102 11.6612 3.71951 11.6557 3.74814 11.6496C3.91991 11.6128 4.09683 11.5549 4.28993 11.4804C4.33016 11.4649 4.37138 11.4484 4.4131 11.4314C4.41329 11.4314 4.41349 11.4313 4.41368 11.4312C4.45642 11.4139 4.50014 11.3957 4.54466 11.377C4.55079 11.3744 4.55684 11.3719 4.563 11.3693C4.6081 11.3503 4.65381 11.3308 4.70096 11.3104C4.73755 11.2946 4.77481 11.2785 4.81276 11.2619C4.88866 11.2288 4.96738 11.1943 5.04934 11.1585C5.17227 11.1048 5.30246 11.0483 5.44129 10.9894C5.48755 10.9697 5.5348 10.9498 5.58305 10.9297C5.65188 10.901 5.7237 10.8716 5.79695 10.8419C5.80505 10.8387 5.81303 10.8354 5.8212 10.8321C5.8316 10.8279 5.84166 10.8238 5.85215 10.8196C5.85349 10.819 5.85476 10.8185 5.8561 10.818C5.85624 10.8179 5.85638 10.8178 5.85654 10.8178C5.88347 10.807 5.91101 10.796 5.93853 10.7851C5.93881 10.785 5.93908 10.7849 5.93935 10.7848C5.96189 10.7758 5.98451 10.7669 6.00745 10.7579C6.00761 10.7578 6.00777 10.7578 6.00792 10.7577C6.03598 10.7467 6.06447 10.7356 6.09315 10.7245C6.09329 10.7245 6.09342 10.7244 6.09357 10.7243C6.11683 10.7153 6.14033 10.7063 6.16401 10.6972C6.16407 10.6972 6.16413 10.6972 6.16417 10.6972C6.19398 10.6857 6.22406 10.6743 6.25455 10.6628C6.27841 10.6538 6.30265 10.6448 6.32693 10.6357C6.3582 10.624 6.38956 10.6124 6.42154 10.6006C6.47091 10.5825 6.52056 10.5644 6.57168 10.5461C6.6961 10.5016 6.8258 10.4567 6.96119 10.4114L6.47998 8.97191Z" fill="#E73A3A"/>
<path d="M5.98022 9.20878C5.97845 9.2096 5.97665 9.21039 5.97488 9.21121C5.97665 9.21039 5.97842 9.20955 5.98021 9.20873L4.91868 6.0332C4.89784 6.03934 4.87783 6.04492 4.85726 6.05087C4.83315 6.05785 4.80897 6.06486 4.78523 6.07159C4.74657 6.08255 4.70866 6.09305 4.67096 6.1034C4.64941 6.10931 4.62749 6.11546 4.60626 6.12119C4.55763 6.13429 4.50996 6.14682 4.46293 6.15896C4.43322 6.16664 4.40417 6.17394 4.37507 6.18125C4.34849 6.18794 4.32149 6.19485 4.29541 6.20125L5.38438 9.45886C5.38635 9.45814 5.38835 9.45748 5.39033 9.45675C5.38835 9.45748 5.3864 9.45828 5.38442 9.459L5.84057 10.8235C5.84575 10.8214 5.85122 10.8193 5.85643 10.8172C5.85657 10.8172 5.85671 10.8171 5.85687 10.817C5.8838 10.8062 5.91134 10.7953 5.93887 10.7844C5.93915 10.7843 5.93941 10.7841 5.93969 10.784C5.96222 10.7751 5.98484 10.7661 6.00778 10.7571C6.00794 10.7571 6.00811 10.757 6.00826 10.757C6.03632 10.7459 6.0648 10.7349 6.09348 10.7238C6.09362 10.7237 6.09375 10.7236 6.0939 10.7236C6.11716 10.7146 6.14066 10.7055 6.16435 10.6965C6.16441 10.6964 6.16446 10.6964 6.16451 10.6964C6.19431 10.685 6.22439 10.6735 6.25488 10.6621C6.27874 10.6531 6.30298 10.644 6.32727 10.635C6.35853 10.6233 6.3899 10.6116 6.42188 10.5999C6.42891 10.5973 6.43561 10.5948 6.44267 10.5922L5.98022 9.20878Z" fill="#EF7C54"/>
<path d="M2.28561 10.7793C2.27938 10.7674 2.2732 10.7554 2.26701 10.7434C2.26015 10.7301 2.25331 10.7168 2.24651 10.7033C2.24026 10.691 2.23407 10.6784 2.22787 10.6659C2.22119 10.6524 2.21452 10.6389 2.20788 10.6252C2.20175 10.6125 2.19563 10.5998 2.18954 10.5869C2.18293 10.573 2.17635 10.5591 2.1698 10.5451C2.16379 10.5321 2.15779 10.5192 2.15182 10.5061C2.14533 10.4919 2.13888 10.4777 2.13245 10.4633C2.12651 10.4501 2.12058 10.4368 2.1147 10.4234C2.10839 10.4091 2.10213 10.3947 2.09588 10.3802C2.09001 10.3666 2.08415 10.353 2.07833 10.3393C2.07215 10.3247 2.06601 10.31 2.05988 10.2952C2.05416 10.2815 2.04844 10.2677 2.04277 10.2538C2.03674 10.2391 2.03077 10.2242 2.02481 10.2093C2.01918 10.1952 2.01352 10.1812 2.00795 10.167C2.00204 10.152 1.99623 10.1368 1.99038 10.1217C1.98491 10.1076 1.97942 10.0934 1.97402 10.0792C1.96812 10.0636 1.96234 10.048 1.95653 10.0323C1.95135 10.0184 1.94611 10.0045 1.941 9.99045C1.93487 9.97367 1.92889 9.95678 1.92285 9.93991C1.91819 9.92686 1.91345 9.91388 1.90885 9.90077C1.90867 9.90026 1.90849 9.89975 1.9083 9.89923C1.9083 9.89923 1.90831 9.89923 1.90833 9.89923C1.90212 9.88155 1.89607 9.86376 1.88997 9.84601C1.71363 9.33255 1.58374 8.78617 1.53187 8.3125C1.31203 8.35624 1.16886 8.42011 1.05269 8.61525C0.928267 8.82426 1.01911 9.4034 1.19528 9.92097C1.19531 9.92104 1.19534 9.92111 1.19536 9.92118C1.24629 10.0707 1.30434 10.2151 1.36637 10.344C1.36661 10.3445 1.36686 10.345 1.36711 10.3455C1.37904 10.3702 1.39112 10.3944 1.40332 10.4179C1.40403 10.4192 1.40475 10.4206 1.40545 10.422C1.41731 10.4447 1.4293 10.4668 1.44136 10.4883C1.44245 10.4902 1.44353 10.4921 1.44462 10.4941C1.45646 10.515 1.4684 10.5351 1.4804 10.5546C1.48171 10.5567 1.48301 10.5589 1.48431 10.561C1.49616 10.58 1.50808 10.5983 1.52004 10.6159C1.52153 10.6181 1.52303 10.6203 1.52453 10.6225C1.53639 10.6397 1.54829 10.6561 1.56022 10.6718C1.5618 10.6738 1.56338 10.6759 1.56497 10.6779C1.57688 10.6933 1.58883 10.7079 1.60077 10.7215C1.60234 10.7233 1.6039 10.725 1.60546 10.7268C1.61743 10.7402 1.62943 10.7529 1.6414 10.7645C1.64292 10.7659 1.64442 10.7673 1.64594 10.7687C1.65801 10.7802 1.67006 10.7907 1.68208 10.8001C1.6834 10.8012 1.68471 10.8021 1.68603 10.8031C1.69825 10.8124 1.71044 10.8208 1.72256 10.8279C1.7236 10.8285 1.7246 10.829 1.72564 10.8296C1.73805 10.8367 1.75042 10.8427 1.7627 10.8473C1.7633 10.8475 1.76389 10.8477 1.76448 10.8479C1.77719 10.8525 1.7898 10.8559 1.8023 10.8577C1.96608 10.881 2.11383 10.8501 2.28846 10.7848C2.28749 10.7829 2.28655 10.7811 2.28561 10.7793Z" fill="#CC1A25"/>
<path d="M14.0938 5.5533C14.093 5.55403 14.0922 5.55477 14.0914 5.55551C13.961 5.15908 13.7728 4.75906 13.6317 4.64782C13.3953 4.46153 13.2519 4.52849 12.748 4.58529L13.2565 6.10623L13.5519 6.99004C13.9515 6.71801 14.1219 6.6278 14.2222 6.41445C14.2859 6.27913 14.212 5.91122 14.0938 5.5533Z" fill="#E6E6E6"/>
<path d="M4.85765 6.15202L4.58203 6.24414L5.30273 8.40033L5.57835 8.30821L4.85765 6.15202Z" fill="#F4A081"/>
<path d="M4.19939 6.33203C4.19939 6.33203 3.27921 6.60824 2.93535 6.65562C2.59147 6.703 2.15201 6.76331 1.85632 7.15414C1.58377 7.51441 1.68969 8.15018 1.68969 8.15018L4.46386 7.22283L4.19939 6.33203Z" fill="#EB5E53"/>
<path d="M5.39111 5.97364L5.0376 6.0918L5.32031 6.93761L5.67382 6.81945L5.39111 5.97364Z" fill="#EB5E53"/>
<path d="M14.9893 11.2908L13.5518 6.99075L13.2564 6.10694L12.748 4.586L11.3085 0.279985C11.2714 0.16904 11.1503 0.108604 11.0394 0.145691L11.0254 0.150359L11.0114 0.155036C10.9005 0.192124 10.84 0.313243 10.8771 0.424188L10.9348 0.596725L13.1756 7.30004L14.5023 11.2686L14.5579 11.435C14.5949 11.5459 14.7161 11.6063 14.827 11.5693L14.841 11.5646L14.855 11.5599C14.9659 11.5228 15.0264 11.4017 14.9893 11.2908Z" fill="#BDBDBD"/>
<path d="M10.0377 4.78672C11.2398 3.87913 11.5823 2.99094 11.5823 2.99094L10.9214 1.01367C10.9214 1.01367 10.1289 2.84628 8.78236 4.10012C7.30914 5.47188 5.60742 5.9608 5.60742 5.9608L5.87181 6.75171C5.87181 6.75171 8.55136 5.90898 10.0377 4.78672Z" fill="white"/>
<path d="M6.80884 13.0237C6.80885 13.0236 6.80887 13.0236 6.80888 13.0236C6.80807 13.0226 6.80732 13.0216 6.80652 13.0206C6.77451 12.9782 6.74255 12.9343 6.71073 12.8888C6.72991 12.8483 6.73438 12.8007 6.71904 12.7548L6.46266 11.9879C6.43114 11.8935 6.32912 11.8427 6.23482 11.8742L6.17183 11.8952C6.15156 11.8465 6.13084 11.7961 6.10937 11.7431C6.00383 11.4722 5.90665 11.1699 5.82149 10.832C5.81333 10.8353 5.80535 10.8386 5.79724 10.8419C5.72847 10.8697 5.66104 10.8973 5.59614 10.9243C5.59195 10.9261 5.58752 10.9279 5.58335 10.9296C5.5351 10.9498 5.48786 10.9696 5.44159 10.9893C5.30276 11.0482 5.17257 11.1047 5.04964 11.1584C4.96769 11.1942 4.88896 11.2288 4.81306 11.2618C4.77511 11.2784 4.73785 11.2946 4.70126 11.3103C4.65411 11.3307 4.6084 11.3502 4.5633 11.3692C4.55717 11.3718 4.55104 11.3744 4.54496 11.3769C4.50044 11.3957 4.45673 11.4138 4.41398 11.4311C4.41384 11.4312 4.41372 11.4312 4.41357 11.4313C4.4855 11.6654 4.56856 11.947 4.65887 12.2537C4.67633 12.313 4.69407 12.3733 4.71204 12.4343C4.73001 12.4953 4.74823 12.5571 4.76665 12.6194C4.78508 12.6818 4.80371 12.7448 4.82252 12.8082C4.83193 12.8399 4.84138 12.8717 4.85088 12.9036C4.86987 12.9673 4.88903 13.0315 4.90831 13.0958C4.92761 13.1601 4.94704 13.2246 4.96659 13.2891C4.97635 13.3213 4.98615 13.3536 4.99597 13.3858C5.01561 13.4503 5.03535 13.5147 5.05515 13.5789C5.07494 13.643 5.09481 13.707 5.11471 13.7705C5.13462 13.834 5.15454 13.8971 5.17449 13.9597C5.20441 14.0535 5.23434 14.1461 5.26418 14.2368C5.28408 14.2973 5.30395 14.357 5.32373 14.4157C5.33364 14.445 5.34352 14.4741 5.35337 14.5029C5.39282 14.6182 5.43194 14.7293 5.47051 14.8347C5.48979 14.8874 5.50893 14.9388 5.52792 14.9885C5.5469 15.0383 5.56571 15.0864 5.58432 15.1329C5.60294 15.1794 5.62135 15.2241 5.63955 15.2669C5.65773 15.3097 5.67571 15.3507 5.69342 15.3895C5.71112 15.4284 5.72857 15.4652 5.74575 15.4997C5.83161 15.6726 5.91036 15.7896 5.97836 15.8301C5.98634 15.8349 5.99508 15.8389 6.00419 15.8425C6.00668 15.8435 6.00926 15.8444 6.01183 15.8454C6.01957 15.8481 6.02765 15.8505 6.0361 15.8526C6.03808 15.8531 6.03996 15.8537 6.04199 15.8541C6.05234 15.8564 6.06323 15.8581 6.07455 15.8593C6.07733 15.8596 6.08025 15.8598 6.08309 15.86C6.09239 15.8609 6.10198 15.8614 6.11187 15.8615C6.11507 15.8616 6.11822 15.8617 6.12149 15.8617C6.13405 15.8617 6.14696 15.8613 6.16039 15.8604C6.16237 15.8602 6.16448 15.86 6.16648 15.8598C6.17828 15.8589 6.19041 15.8576 6.20281 15.856C6.20682 15.8554 6.21085 15.8549 6.21493 15.8543C6.22814 15.8524 6.24161 15.8502 6.25545 15.8475C6.25694 15.8473 6.25836 15.8471 6.25986 15.8468C6.2752 15.8438 6.29099 15.8403 6.30704 15.8364C6.31125 15.8355 6.31552 15.8344 6.31979 15.8333C6.33303 15.83 6.34649 15.8265 6.36016 15.8227C6.36376 15.8217 6.36728 15.8207 6.37091 15.8197C6.38778 15.8149 6.40495 15.8097 6.42243 15.8041C6.42603 15.8029 6.4297 15.8017 6.43333 15.8005C6.44793 15.7958 6.46272 15.7907 6.47768 15.7855C6.48227 15.7839 6.48683 15.7823 6.49144 15.7806C6.50983 15.7741 6.5284 15.7672 6.54729 15.76C6.54793 15.7597 6.54857 15.7595 6.54921 15.7592C6.56756 15.7521 6.58619 15.7446 6.60497 15.7369C6.60957 15.7351 6.61419 15.7331 6.6188 15.7312C6.63659 15.7238 6.65453 15.7162 6.67264 15.7083C6.67443 15.7075 6.67618 15.7068 6.67796 15.706C6.69821 15.6971 6.71867 15.6878 6.73925 15.6783C6.74307 15.6766 6.74688 15.6748 6.75069 15.673C6.76858 15.6647 6.78658 15.6562 6.80468 15.6474C6.80793 15.6459 6.81117 15.6443 6.81443 15.6427C6.83574 15.6324 6.85718 15.6218 6.87873 15.6108C6.87998 15.6102 6.88122 15.6096 6.88247 15.6089C6.90264 15.5987 6.92293 15.5882 6.94324 15.5775C6.94675 15.5757 6.95025 15.5738 6.95376 15.572C6.9974 15.5489 7.0413 15.5249 7.08524 15.5001C7.08785 15.4986 7.09046 15.4971 7.09306 15.4957C7.13814 15.4701 7.18323 15.4437 7.22808 15.4167C7.22851 15.4164 7.22893 15.4162 7.22935 15.4159C7.25172 15.4024 7.27401 15.3887 7.29621 15.3749C7.29714 15.3744 7.29806 15.3738 7.29898 15.3732C7.34423 15.345 7.38908 15.3163 7.43328 15.2871C7.43426 15.2865 7.43525 15.2858 7.43623 15.2852C7.48076 15.2558 7.5246 15.2259 7.56752 15.1959C7.56754 15.1959 7.56756 15.1958 7.56759 15.1958C7.67592 15.1199 7.77822 15.0426 7.87003 14.9667C7.8701 14.9667 7.87017 14.9666 7.87023 14.9665C8.11028 14.7682 8.27886 14.5802 8.2966 14.4557C8.33739 14.1697 7.55917 14.0152 6.80884 13.0237Z" fill="#CC1A25"/>
<path d="M13.5518 6.99143C13.9514 6.71939 14.1218 6.62919 14.2221 6.41584C14.2857 6.28052 14.2118 5.9126 14.0937 5.55469C14.0929 5.55542 14.092 5.55616 14.0913 5.55689C13.8955 5.73859 13.6262 5.92067 13.2563 6.10762L13.5518 6.99143Z" fill="#CFD9DF"/>
<path d="M11.0114 0.155068C10.9005 0.192155 10.84 0.313274 10.8771 0.424219L10.9348 0.596756L13.1756 7.30007L14.5023 11.2687L14.5579 11.435C14.5949 11.5459 14.7161 11.6064 14.827 11.5693L14.841 11.5646L11.0254 0.150391L11.0114 0.155068Z" fill="#9AA5AB"/>
<path d="M12.4247 7.31036C10.5864 7.45766 8.93337 7.99155 7.27484 8.62072C7.00229 8.72412 6.74008 8.84629 6.47998 8.97069L6.48001 8.97078L6.96122 10.4103L6.96124 10.4103C10.6568 9.17495 13.9003 10.9144 14.5021 11.2683L13.1755 7.29968C12.9295 7.28348 12.6809 7.28489 12.4247 7.31036Z" fill="#CFD9DF"/>
<path d="M2.26704 10.7431C2.26018 10.7298 2.25334 10.7165 2.24654 10.703C2.24029 10.6907 2.2341 10.6781 2.2279 10.6656C2.22122 10.6521 2.21454 10.6386 2.20791 10.6249C2.20178 10.6122 2.19566 10.5994 2.18957 10.5866C2.18296 10.5727 2.17638 10.5588 2.16983 10.5447C2.16382 10.5318 2.15782 10.5188 2.15185 10.5058C2.14536 10.4916 2.13891 10.4774 2.13248 10.463C2.12654 10.4498 2.12061 10.4365 2.11473 10.4231C2.10842 10.4088 2.10216 10.3944 2.09591 10.3799C2.09004 10.3663 2.08418 10.3527 2.07836 10.339C2.07218 10.3244 2.06604 10.3097 2.05991 10.2949C2.05419 10.2812 2.04847 10.2674 2.0428 10.2535C2.03677 10.2388 2.0308 10.2239 2.02484 10.209C2.01921 10.1949 2.01355 10.1809 2.00798 10.1667C2.00207 10.1517 1.99626 10.1365 1.9904 10.1214C1.98494 10.1072 1.97945 10.0931 1.97405 10.0789C1.96815 10.0633 1.96237 10.0477 1.95656 10.032C1.95138 10.0181 1.94614 10.0042 1.94103 9.99014C1.9349 9.97337 1.92892 9.95647 1.92288 9.93961C1.91822 9.92656 1.91348 9.91358 1.90888 9.90047C1.9087 9.89995 1.90852 9.89944 1.90833 9.89892C1.90833 9.89892 1.90834 9.89892 1.90836 9.89892C1.90215 9.88125 1.8961 9.86346 1.89 9.8457C1.66058 9.88477 1.42879 9.91045 1.19531 9.92065C1.19534 9.92073 1.19537 9.9208 1.19539 9.92087C1.24632 10.0704 1.30437 10.2148 1.3664 10.3437C1.36664 10.3442 1.36689 10.3447 1.36713 10.3452C1.37906 10.3699 1.39115 10.394 1.40335 10.4175C1.40406 10.4189 1.40478 10.4203 1.40548 10.4217C1.41734 10.4444 1.42933 10.4665 1.44139 10.4879C1.44248 10.4899 1.44356 10.4918 1.44465 10.4938C1.45649 10.5146 1.46843 10.5348 1.48043 10.5543C1.48174 10.5564 1.48304 10.5586 1.48434 10.5607C1.49619 10.5797 1.50811 10.598 1.52007 10.6156C1.52156 10.6178 1.52306 10.62 1.52456 10.6222C1.53642 10.6394 1.54832 10.6558 1.56025 10.6714C1.56183 10.6735 1.56341 10.6756 1.565 10.6776C1.57691 10.693 1.58886 10.7075 1.6008 10.7212C1.60237 10.723 1.60393 10.7247 1.60549 10.7265C1.61746 10.7399 1.62946 10.7525 1.64143 10.7641C1.64295 10.7656 1.64445 10.767 1.64597 10.7684C1.65804 10.7799 1.67009 10.7904 1.68211 10.7998C1.68343 10.8009 1.68474 10.8018 1.68606 10.8028C1.69828 10.8121 1.71047 10.8205 1.72259 10.8276C1.72363 10.8282 1.72463 10.8287 1.72567 10.8293C1.73808 10.8364 1.75045 10.8424 1.76273 10.847C1.76333 10.8472 1.76392 10.8473 1.76451 10.8476C1.77722 10.8522 1.78983 10.8556 1.80233 10.8573C1.96611 10.8807 2.11386 10.8498 2.28849 10.7844C2.28753 10.7826 2.28659 10.7808 2.28565 10.779C2.27941 10.7671 2.27323 10.7551 2.26704 10.7431Z" fill="#B20E12"/>
<path d="M5.9801 9.20898C5.97832 9.20981 5.97652 9.21059 5.97475 9.21141C5.9327 9.23082 5.89056 9.24994 5.84832 9.26883C5.84195 9.27168 5.83558 9.2746 5.8292 9.27744C5.68475 9.34171 5.53883 9.40243 5.39018 9.45696C5.3882 9.45768 5.38625 9.45848 5.38428 9.45921L5.84042 10.8237C5.84561 10.8216 5.85107 10.8195 5.85629 10.8174C5.85643 10.8174 5.85657 10.8173 5.85673 10.8172C5.88366 10.8064 5.9112 10.7955 5.93872 10.7846C5.939 10.7845 5.93927 10.7844 5.93954 10.7842C5.96208 10.7753 5.98469 10.7664 6.00764 10.7573C6.00779 10.7573 6.00796 10.7572 6.00811 10.7572C6.03617 10.7461 6.06466 10.7351 6.09333 10.724C6.09348 10.7239 6.09361 10.7238 6.09376 10.7238C6.11702 10.7148 6.14052 10.7057 6.1642 10.6967C6.16426 10.6967 6.16432 10.6966 6.16436 10.6966C6.19417 10.6852 6.22425 10.6738 6.25474 10.6623C6.2786 10.6533 6.30284 10.6442 6.32712 10.6352C6.35838 10.6235 6.38975 10.6118 6.42173 10.6001C6.42876 10.5975 6.43546 10.595 6.44252 10.5924L5.9801 9.20898Z" fill="#EA5242"/>
<path d="M6.48004 8.9707C6.31321 9.05049 6.14718 9.13103 5.97994 9.20831C5.97816 9.20913 5.97638 9.20997 5.97461 9.21079C5.97638 9.20997 5.97818 9.20918 5.97996 9.20836L6.44241 10.5918C6.43535 10.5943 6.42865 10.5969 6.42162 10.5995C6.47099 10.5814 6.52063 10.5632 6.57175 10.545C6.69618 10.5005 6.82588 10.4555 6.96126 10.4102L6.48004 8.9707Z" fill="#D11625"/>
<path d="M5.84032 10.8238L5.38418 9.45928C5.38615 9.45856 5.3881 9.45775 5.39008 9.45703C5.3881 9.45775 5.3861 9.45842 5.38413 9.45914C5.20845 9.52334 5.02896 9.57901 4.8432 9.62112C3.87239 9.85179 2.88975 10.0077 1.90823 9.89866C1.90823 9.89866 1.90822 9.89866 1.9082 9.89866C1.90839 9.89918 1.90858 9.89968 1.90875 9.9002C1.91335 9.91331 1.91809 9.9263 1.92275 9.93935C1.92879 9.95621 1.93477 9.97311 1.9409 9.98988C1.94601 10.0039 1.95125 10.0178 1.95643 10.0317C1.96224 10.0474 1.96802 10.0631 1.97392 10.0786C1.97932 10.0929 1.98482 10.107 1.99028 10.1211C1.99613 10.1363 2.00194 10.1514 2.00785 10.1665C2.01342 10.1806 2.01908 10.1946 2.02471 10.2087C2.03067 10.2236 2.03664 10.2385 2.04267 10.2533C2.04834 10.2672 2.05406 10.2809 2.05978 10.2947C2.06591 10.3094 2.07205 10.3241 2.07823 10.3387C2.08405 10.3524 2.08991 10.366 2.09578 10.3796C2.10203 10.3941 2.10829 10.4085 2.1146 10.4229C2.12048 10.4362 2.12641 10.4495 2.13235 10.4628C2.13878 10.4771 2.14523 10.4914 2.15172 10.5055C2.15769 10.5186 2.16369 10.5316 2.1697 10.5445C2.17625 10.5585 2.18283 10.5725 2.18944 10.5864C2.19553 10.5992 2.20165 10.612 2.20778 10.6246C2.21441 10.6383 2.22109 10.6519 2.22778 10.6654C2.23396 10.6779 2.24016 10.6904 2.24641 10.7028C2.25321 10.7162 2.26005 10.7295 2.26691 10.7428C2.2731 10.7548 2.27928 10.7669 2.28551 10.7787C2.28646 10.7805 2.28739 10.7824 2.28835 10.7842C2.29445 10.7958 2.30064 10.8071 2.30679 10.8186C2.31292 10.8299 2.31903 10.8414 2.32519 10.8526C2.33259 10.8661 2.34004 10.8793 2.34749 10.8926C2.35343 10.9032 2.35936 10.9138 2.36534 10.9243C2.37329 10.9381 2.38131 10.9517 2.38931 10.9652C2.39488 10.9747 2.40043 10.9843 2.40601 10.9936C2.4152 11.0089 2.42446 11.0238 2.4337 11.0387C2.43818 11.0459 2.44262 11.0533 2.44712 11.0605C2.46078 11.0822 2.47451 11.1034 2.4883 11.1242C2.49221 11.1301 2.49614 11.1357 2.50006 11.1415C2.51009 11.1564 2.52012 11.1713 2.53019 11.1857C2.53561 11.1934 2.54106 11.2008 2.54648 11.2084C2.55508 11.2204 2.56366 11.2324 2.57228 11.2441C2.5783 11.2522 2.58434 11.2599 2.59038 11.2679C2.59848 11.2785 2.60659 11.2893 2.61474 11.2996C2.62099 11.3075 2.62728 11.3151 2.63356 11.3229C2.64149 11.3326 2.64942 11.3424 2.65739 11.3519C2.66381 11.3595 2.67025 11.3668 2.67668 11.3742C2.68454 11.3833 2.6924 11.3923 2.70026 11.4009C2.70677 11.4081 2.71328 11.415 2.71981 11.422C2.72766 11.4303 2.73549 11.4386 2.74336 11.4466C2.74989 11.4533 2.75643 11.4597 2.76298 11.4661C2.77083 11.4738 2.77869 11.4814 2.78654 11.4887C2.79312 11.4948 2.79967 11.5008 2.80625 11.5067C2.81412 11.5137 2.82197 11.5205 2.82984 11.5271C2.83642 11.5327 2.84298 11.5382 2.84955 11.5434C2.85744 11.5498 2.86532 11.5558 2.8732 11.5618C2.87976 11.5667 2.88632 11.5716 2.89287 11.5763C2.90081 11.582 2.90875 11.5873 2.91669 11.5925C2.92315 11.5968 2.92961 11.6011 2.93607 11.6051C2.94415 11.6101 2.95223 11.6147 2.96031 11.6193C2.96662 11.6228 2.97293 11.6265 2.97924 11.6298C2.98749 11.6341 2.99574 11.6379 3.00398 11.6418C3.01012 11.6446 3.01623 11.6477 3.02236 11.6503C3.03094 11.6539 3.03951 11.657 3.04808 11.6601C3.05382 11.6621 3.05956 11.6645 3.06528 11.6663C3.07478 11.6694 3.08426 11.6717 3.09373 11.6741C3.0985 11.6753 3.10328 11.6768 3.10803 11.6779C3.12224 11.6809 3.13642 11.6833 3.15056 11.6848C3.17969 11.6878 3.2086 11.6902 3.23735 11.6918C3.29485 11.6951 3.35169 11.6955 3.40829 11.6932C3.43659 11.6921 3.46484 11.6903 3.49306 11.6879C3.54951 11.683 3.60594 11.6756 3.66273 11.6657C3.69112 11.6607 3.71961 11.6552 3.74824 11.6491C3.92001 11.6123 4.09693 11.5544 4.29003 11.4799C4.33026 11.4644 4.37148 11.4479 4.4132 11.4309C4.41339 11.4309 4.41358 11.4308 4.41378 11.4307C4.45652 11.4134 4.50024 11.3952 4.54476 11.3765C4.55089 11.3739 4.55694 11.3714 4.5631 11.3688C4.6082 11.3498 4.65391 11.3303 4.70105 11.3099C4.73765 11.2941 4.7749 11.278 4.81286 11.2614C4.88876 11.2283 4.96748 11.1938 5.04944 11.158C5.17237 11.1043 5.30256 11.0478 5.44138 10.9889C5.48765 10.9692 5.53489 10.9493 5.58314 10.9292C5.65198 10.9005 5.7238 10.8711 5.79705 10.8414C5.80515 10.8382 5.81313 10.8349 5.8213 10.8316C5.8317 10.8274 5.84176 10.8233 5.85225 10.8191C5.85359 10.8185 5.85486 10.818 5.85619 10.8175C5.85097 10.8196 5.84552 10.8217 5.84032 10.8238Z" fill="#D11625"/>
<path d="M5.79952 13.4316C5.41061 12.6506 5.18164 11.6934 5.59614 10.9238C5.59195 10.9256 5.58752 10.9274 5.58335 10.9291C5.5351 10.9493 5.48786 10.9691 5.44159 10.9888C5.30276 11.0477 5.17257 11.1042 5.04964 11.1579C4.96769 11.1937 4.88896 11.2283 4.81306 11.2613C4.77511 11.2779 4.73785 11.2941 4.70126 11.3098C4.65411 11.3302 4.6084 11.3497 4.5633 11.3687C4.55717 11.3713 4.55104 11.3739 4.54496 11.3764C4.50044 11.3951 4.45673 11.4133 4.41398 11.4306C4.41384 11.4307 4.41372 11.4307 4.41357 11.4308C4.4855 11.6649 4.56856 11.9465 4.65887 12.2532C4.67633 12.3125 4.69407 12.3728 4.71204 12.4338C4.73001 12.4948 4.74823 12.5566 4.76665 12.6189C4.78508 12.6813 4.80371 12.7443 4.82252 12.8077C4.83193 12.8394 4.84138 12.8712 4.85088 12.9031C4.86987 12.9668 4.88903 13.031 4.90831 13.0953C4.92761 13.1596 4.94704 13.2241 4.96659 13.2886C4.97635 13.3208 4.98615 13.3531 4.99597 13.3853C5.01561 13.4498 5.03535 13.5142 5.05515 13.5784C5.07494 13.6425 5.09481 13.7065 5.11471 13.77C5.13462 13.8335 5.15454 13.8966 5.17449 13.9592C5.20441 14.053 5.23434 14.1456 5.26418 14.2363C5.28408 14.2968 5.30395 14.3565 5.32373 14.4152C5.33364 14.4445 5.34352 14.4736 5.35337 14.5024C5.39282 14.6177 5.43194 14.7288 5.47051 14.8342C5.48979 14.8869 5.50893 14.9382 5.52792 14.988C5.5469 15.0377 5.56571 15.0859 5.58432 15.1324C5.60294 15.1789 5.62135 15.2236 5.63955 15.2664C5.65773 15.3092 5.67571 15.3502 5.69342 15.389C5.71112 15.4279 5.72857 15.4647 5.74575 15.4992C5.83161 15.6721 5.91036 15.7891 5.97836 15.8296C5.98634 15.8344 5.99508 15.8384 6.00419 15.842C6.00668 15.843 6.00926 15.8439 6.01183 15.8449C6.01957 15.8476 6.02765 15.85 6.0361 15.8521C6.03808 15.8526 6.03996 15.8532 6.04199 15.8536C6.05234 15.8559 6.06323 15.8576 6.07455 15.8588C6.07733 15.8591 6.08025 15.8593 6.08309 15.8595C6.09239 15.8604 6.10198 15.8609 6.11187 15.861C6.11507 15.8611 6.11822 15.8612 6.12149 15.8612C6.13405 15.8612 6.14696 15.8608 6.16039 15.8599C6.16237 15.8597 6.16448 15.8595 6.16648 15.8593C6.17828 15.8584 6.19041 15.8571 6.20281 15.8554C6.20682 15.8549 6.21085 15.8544 6.21493 15.8538C6.22814 15.8519 6.24161 15.8497 6.25545 15.847C6.25694 15.8468 6.25836 15.8466 6.25986 15.8463C6.2752 15.8433 6.29099 15.8398 6.30704 15.8359C6.31125 15.8349 6.31552 15.8339 6.31979 15.8328C6.33303 15.8295 6.34649 15.826 6.36016 15.8222C6.36376 15.8212 6.36728 15.8202 6.37091 15.8192C6.38778 15.8144 6.40495 15.8092 6.42243 15.8036C6.42603 15.8024 6.4297 15.8012 6.43333 15.8C6.44793 15.7952 6.46272 15.7902 6.47768 15.785C6.48227 15.7834 6.48683 15.7818 6.49144 15.7801C6.50983 15.7736 6.5284 15.7667 6.54729 15.7595C6.54793 15.7592 6.54857 15.759 6.54921 15.7587C6.56756 15.7516 6.58619 15.7441 6.60497 15.7364C6.60957 15.7345 6.61419 15.7326 6.6188 15.7307C6.63659 15.7233 6.65453 15.7157 6.67264 15.7078C6.67443 15.707 6.67618 15.7063 6.67796 15.7055C6.69821 15.6966 6.71867 15.6873 6.73925 15.6778C6.74307 15.6761 6.74688 15.6743 6.75069 15.6725C6.76858 15.6642 6.78658 15.6557 6.80468 15.6469C6.80793 15.6454 6.81117 15.6438 6.81443 15.6422C6.83574 15.6319 6.85718 15.6212 6.87873 15.6103C6.87998 15.6097 6.88122 15.6091 6.88247 15.6084C6.90264 15.5982 6.92293 15.5877 6.94324 15.577C6.94675 15.5752 6.95025 15.5733 6.95376 15.5715C6.9974 15.5484 7.0413 15.5244 7.08524 15.4996C7.08785 15.4981 7.09046 15.4966 7.09306 15.4952C7.13814 15.4696 7.18323 15.4432 7.22808 15.4162C7.22851 15.4159 7.22893 15.4157 7.22935 15.4154C7.25172 15.4019 7.27401 15.3882 7.29621 15.3744C7.29714 15.3739 7.29806 15.3733 7.29898 15.3727C7.34423 15.3445 7.38908 15.3158 7.43328 15.2866C7.43426 15.286 7.43525 15.2853 7.43623 15.2847C7.48076 15.2553 7.5246 15.2254 7.56752 15.1954C7.56754 15.1954 7.56756 15.1953 7.56759 15.1953C7.67592 15.1194 7.77822 15.0421 7.87003 14.9662C7.8701 14.9661 7.87017 14.9661 7.87023 14.966C7.00535 14.7892 6.24063 14.3278 5.79952 13.4316Z" fill="#B00E18"/>
<path d="M5.73779 11.8634L6.22117 13.3094C6.22117 13.3094 6.73231 13.1718 6.80896 13.0221C6.80897 13.0221 6.80899 13.0221 6.80901 13.022C6.8082 13.021 6.80745 13.0201 6.80664 13.0191C6.77199 12.9764 6.73936 12.9345 6.70822 12.8928C6.68746 12.933 6.6518 12.9656 6.60548 12.9811L6.33285 13.0722L5.9623 11.9638L6.17195 11.8937C6.15169 11.8449 6.13097 11.7946 6.10949 11.7415C6.10742 11.7364 6.10546 11.7317 6.10338 11.7266C6.05811 11.7439 5.73779 11.8634 5.73779 11.8634Z" fill="#A00F14"/>
</svg>
