<svg width="20" height="20" viewBox="0 0 20 20" fill="none" xmlns="http://www.w3.org/2000/svg">
<path d="M2.5 2.5V15.8333C2.5 16.2754 2.67559 16.6993 2.98816 17.0118C3.30072 17.3244 3.72464 17.5 4.16667 17.5H17.5" stroke="#1E1F24" stroke-linecap="round" stroke-linejoin="round"/>
<path d="M15 4.1665H13.3333C12.8731 4.1665 12.5 4.5396 12.5 4.99984V13.3332C12.5 13.7934 12.8731 14.1665 13.3333 14.1665H15C15.4602 14.1665 15.8333 13.7934 15.8333 13.3332V4.99984C15.8333 4.5396 15.4602 4.1665 15 4.1665Z" stroke="#1E1F24" stroke-linecap="round" stroke-linejoin="round"/>
<path d="M8.33333 6.6665H6.66667C6.20643 6.6665 5.83333 7.0396 5.83333 7.49984V13.3332C5.83333 13.7934 6.20643 14.1665 6.66667 14.1665H8.33333C8.79357 14.1665 9.16667 13.7934 9.16667 13.3332V7.49984C9.16667 7.0396 8.79357 6.6665 8.33333 6.6665Z" stroke="#1E1F24" stroke-linecap="round" stroke-linejoin="round"/>
</svg>
