<svg width="20" height="20" viewBox="0 0 20 20" fill="none" xmlns="http://www.w3.org/2000/svg">
<path d="M11.875 5.07245C11.875 4.77649 12.03 4.50897 12.2093 4.2735C12.3934 4.03175 12.5 3.745 12.5 3.4375C12.5 2.57456 11.6605 1.875 10.625 1.875C9.58947 1.875 8.75 2.57456 8.75 3.4375C8.75 3.745 8.85659 4.03175 9.04066 4.2735C9.21996 4.50897 9.375 4.77648 9.375 5.07245C9.375 5.37351 9.12846 5.61664 8.82752 5.60797C7.65782 5.57428 6.5007 5.49037 5.35825 5.35833C5.51355 6.7023 5.60224 8.06656 5.62093 9.44772C5.62505 9.75269 5.37744 9.99996 5.07245 10C4.77649 10 4.50897 9.84496 4.2735 9.66566C4.03175 9.48159 3.745 9.375 3.4375 9.375C2.57455 9.375 1.875 10.2145 1.875 11.25C1.875 12.2855 2.57456 13.125 3.4375 13.125C3.745 13.125 4.03175 13.0184 4.2735 12.8343C4.50897 12.655 4.77648 12.5 5.07245 12.5C5.33011 12.5 5.53464 12.7173 5.51575 12.9743C5.41088 14.401 5.23118 15.8068 4.98056 17.188C6.24548 17.3464 7.52876 17.4457 8.82755 17.4831C9.12853 17.4918 9.3751 17.2486 9.3751 16.9475C9.3751 16.6515 9.22006 16.384 9.04076 16.1485C8.85669 15.9068 8.7501 15.62 8.7501 15.3125C8.7501 14.4496 9.58956 13.75 10.6251 13.75C11.6606 13.75 12.5001 14.4496 12.5001 15.3125C12.5001 15.62 12.3935 15.9068 12.2094 16.1485C12.0301 16.384 11.8751 16.6515 11.8751 16.9475C11.8751 17.2249 12.1068 17.4464 12.3837 17.4301C13.916 17.3401 15.4252 17.1638 16.9063 16.906C17.1309 15.6158 17.2936 14.3044 17.3913 12.9749C17.4103 12.7176 17.2055 12.5 16.9475 12.5C16.6516 12.5 16.3841 12.6551 16.1486 12.8344C15.9068 13.0184 15.6201 13.125 15.3126 13.125C14.4497 13.125 13.7501 12.2856 13.7501 11.25C13.7501 10.2145 14.4497 9.37504 15.3126 9.37504C15.6201 9.37504 15.9068 9.48163 16.1486 9.6657C16.3841 9.845 16.6516 10 16.9475 10C17.2528 10 17.5007 9.75253 17.4966 9.44728C17.4761 7.93677 17.3719 6.44644 17.1884 4.98081C15.6169 5.26596 14.0133 5.45929 12.3836 5.55504C12.1067 5.57131 11.875 5.34983 11.875 5.07245Z" stroke="#1E1F24" stroke-width="1.25" stroke-linecap="round" stroke-linejoin="round"/>
</svg>
