<svg width="16" height="16" viewBox="0 0 16 16" fill="none" xmlns="http://www.w3.org/2000/svg">
<path d="M10.7933 1.3335H5.20666C2.77999 1.3335 1.33333 2.78016 1.33333 5.20683V10.7868C1.33333 13.2202 2.77999 14.6668 5.20666 14.6668H10.7867C13.2133 14.6668 14.66 13.2202 14.66 10.7935V5.20683C14.6667 2.78016 13.22 1.3335 10.7933 1.3335ZM9.86 8.3535L7.50666 10.7068C7.40666 10.8068 7.27999 10.8535 7.15333 10.8535C7.02666 10.8535 6.89999 10.8068 6.79999 10.7068C6.60666 10.5135 6.60666 10.1935 6.79999 10.0002L8.8 8.00016L6.79999 6.00016C6.60666 5.80683 6.60666 5.48683 6.79999 5.2935C6.99333 5.10016 7.31333 5.10016 7.50666 5.2935L9.86 7.64683C10.06 7.84016 10.06 8.16016 9.86 8.3535Z" fill="#F3A218"/>
</svg>
