<svg width="16" height="16" viewBox="0 0 16 16" fill="none" xmlns="http://www.w3.org/2000/svg">
<path d="M10.7933 1.3335H5.20665C2.77998 1.3335 1.33331 2.78016 1.33331 5.20683V10.7868C1.33331 13.2202 2.77998 14.6668 5.20665 14.6668H10.7866C13.2133 14.6668 14.66 13.2202 14.66 10.7935V5.20683C14.6666 2.78016 13.22 1.3335 10.7933 1.3335ZM9.85998 8.3535L7.50665 10.7068C7.40665 10.8068 7.27998 10.8535 7.15331 10.8535C7.02665 10.8535 6.89998 10.8068 6.79998 10.7068C6.60665 10.5135 6.60665 10.1935 6.79998 10.0002L8.79998 8.00016L6.79998 6.00016C6.60665 5.80683 6.60665 5.48683 6.79998 5.2935C6.99331 5.10016 7.31331 5.10016 7.50665 5.2935L9.85998 7.64683C10.06 7.84016 10.06 8.16016 9.85998 8.3535Z" fill="#F3A218"/>
</svg>
