<svg width="16" height="16" viewBox="0 0 16 16" fill="none" xmlns="http://www.w3.org/2000/svg">
<path d="M10.7933 1.3335H5.20665C2.77998 1.3335 1.33331 2.78016 1.33331 5.20683V10.7868C1.33331 13.2202 2.77998 14.6668 5.20665 14.6668H10.7866C13.2133 14.6668 14.66 13.2202 14.66 10.7935V5.20683C14.6666 2.78016 13.22 1.3335 10.7933 1.3335ZM10.7066 7.44683L8.35331 9.80016C8.25331 9.90016 8.12665 9.94683 7.99998 9.94683C7.87331 9.94683 7.74665 9.90016 7.64665 9.80016L5.29331 7.44683C5.09998 7.2535 5.09998 6.9335 5.29331 6.74016C5.48665 6.54683 5.80665 6.54683 5.99998 6.74016L7.99998 8.74016L9.99998 6.74016C10.1933 6.54683 10.5133 6.54683 10.7066 6.74016C10.9 6.9335 10.9 7.24683 10.7066 7.44683Z" fill="#59B96F"/>
</svg>
