<svg width="16" height="16" viewBox="0 0 16 16" fill="none" xmlns="http://www.w3.org/2000/svg">
<path d="M10.7933 1.3335H5.20666C2.77999 1.3335 1.33333 2.78016 1.33333 5.20683V10.7868C1.33333 13.2202 2.77999 14.6668 5.20666 14.6668H10.7867C13.2133 14.6668 14.66 13.2202 14.66 10.7935V5.20683C14.6667 2.78016 13.22 1.3335 10.7933 1.3335ZM10.7067 9.3335C10.6067 9.4335 10.48 9.48016 10.3533 9.48016C10.2267 9.48016 10.1 9.42683 10 9.3335L8 7.3335L6 9.3335C5.80666 9.52683 5.48666 9.52683 5.29333 9.3335C5.1 9.14016 5.1 8.82016 5.29333 8.62683L7.64666 6.2735C7.84 6.08016 8.15999 6.08016 8.35333 6.2735L10.7067 8.62683C10.9 8.82016 10.9 9.1335 10.7067 9.3335Z" fill="#F04438"/>
</svg>
