<svg width="16" height="16" viewBox="0 0 16 16" fill="none" xmlns="http://www.w3.org/2000/svg">
<path d="M10.7934 1.3335H5.20671C2.78004 1.3335 1.33337 2.78016 1.33337 5.20683V10.7868C1.33337 13.2202 2.78004 14.6668 5.20671 14.6668H10.7867C13.2134 14.6668 14.66 13.2202 14.66 10.7935V5.20683C14.6667 2.78016 13.22 1.3335 10.7934 1.3335ZM10.7067 9.3335C10.6067 9.4335 10.48 9.48016 10.3534 9.48016C10.2267 9.48016 10.1 9.42683 10 9.3335L8.00004 7.3335L6.00004 9.3335C5.80671 9.52683 5.48671 9.52683 5.29337 9.3335C5.10004 9.14016 5.10004 8.82016 5.29337 8.62683L7.64671 6.2735C7.84004 6.08016 8.16004 6.08016 8.35337 6.2735L10.7067 8.62683C10.9 8.82016 10.9 9.1335 10.7067 9.3335Z" fill="#F04438"/>
</svg>
