<svg width="18" height="18" viewBox="0 0 18 18" fill="none" xmlns="http://www.w3.org/2000/svg">
<path fill-rule="evenodd" clip-rule="evenodd" d="M1.125 4.5C1.125 3.56802 1.88052 2.8125 2.8125 2.8125H15.1875C16.1195 2.8125 16.875 3.56802 16.875 4.5V13.5C16.875 14.432 16.1195 15.1875 15.1875 15.1875H2.8125C1.88052 15.1875 1.125 14.432 1.125 13.5V4.5ZM2.25 12.0455V13.5C2.25 13.8107 2.50184 14.0625 2.8125 14.0625H15.1875C15.4982 14.0625 15.75 13.8107 15.75 13.5V12.0455L13.733 10.0285C13.2937 9.58915 12.5813 9.58915 12.142 10.0285L11.483 10.6875L12.2102 11.4148C12.4299 11.6344 12.4299 11.9906 12.2102 12.2102C11.9906 12.4299 11.6344 12.4299 11.4148 12.2102L7.5455 8.34099C7.10615 7.90165 6.39385 7.90165 5.95451 8.34099L2.25 12.0455ZM9.84375 6.1875C9.84375 5.72151 10.2215 5.34375 10.6875 5.34375C11.1535 5.34375 11.5312 5.72151 11.5312 6.1875C11.5312 6.65349 11.1535 7.03125 10.6875 7.03125C10.2215 7.03125 9.84375 6.65349 9.84375 6.1875Z" fill="#80828D"/>
</svg>
