<svg width="20" height="20" viewBox="0 0 20 20" fill="none" xmlns="http://www.w3.org/2000/svg">
<path d="M13.4916 1.6665H6.50829C3.47496 1.6665 1.66663 3.47484 1.66663 6.50817V13.4832C1.66663 16.5248 3.47496 18.3332 6.50829 18.3332H13.4833C16.5166 18.3332 18.325 16.5248 18.325 13.4915V6.50817C18.3333 3.47484 16.525 1.6665 13.4916 1.6665ZM13.3833 11.6665C13.2583 11.7915 13.1 11.8498 12.9416 11.8498C12.7833 11.8498 12.625 11.7832 12.5 11.6665L9.99996 9.1665L7.49996 11.6665C7.25829 11.9082 6.85829 11.9082 6.61663 11.6665C6.37496 11.4248 6.37496 11.0248 6.61663 10.7832L9.55829 7.8415C9.79996 7.59984 10.2 7.59984 10.4416 7.8415L13.3833 10.7832C13.625 11.0248 13.625 11.4165 13.3833 11.6665Z" fill="#F04438"/>
</svg>
