<svg width="16" height="16" viewBox="0 0 16 16" fill="none" xmlns="http://www.w3.org/2000/svg">
<path d="M14.28 7.28125C14.3993 7.2286 14.5006 7.14209 14.5713 7.03245C14.642 6.9228 14.6789 6.79484 14.6775 6.6644C14.6762 6.53397 14.6366 6.40679 14.5637 6.29863C14.4908 6.19048 14.3877 6.10608 14.2673 6.05591L8.55333 3.45325C8.37962 3.37401 8.19092 3.33301 8 3.33301C7.80907 3.33301 7.62037 3.37401 7.44667 3.45325L1.73333 6.05325C1.61464 6.10523 1.51368 6.19067 1.44278 6.29912C1.37188 6.40758 1.33412 6.53434 1.33412 6.66391C1.33412 6.79348 1.37188 6.92025 1.44278 7.0287C1.51368 7.13716 1.61464 7.2226 1.73333 7.27458L7.44667 9.87991C7.62037 9.95915 7.80907 10.0002 8 10.0002C8.19092 10.0002 8.37962 9.95915 8.55333 9.87991L14.28 7.28125Z" stroke="#1E1F24" stroke-linecap="round" stroke-linejoin="round"/>
<path d="M14.6667 6.66699V10.667" stroke="#1E1F24" stroke-linecap="round" stroke-linejoin="round"/>
<path d="M4 8.33301V10.6663C4 11.1968 4.42143 11.7055 5.17157 12.0806C5.92172 12.4556 6.93913 12.6663 8 12.6663C9.06087 12.6663 10.0783 12.4556 10.8284 12.0806C11.5786 11.7055 12 11.1968 12 10.6663V8.33301" stroke="#1E1F24" stroke-linecap="round" stroke-linejoin="round"/>
</svg>
