<svg width="16" height="16" viewBox="0 0 16 16" fill="none" xmlns="http://www.w3.org/2000/svg">
<path d="M8 4V8L10.6667 9.33333" stroke="#62636C" stroke-linecap="round" stroke-linejoin="round"/>
<path d="M13.3333 8V11.3333" stroke="#62636C" stroke-linecap="round" stroke-linejoin="round"/>
<path d="M13.3333 14H13.34" stroke="#62636C" stroke-linecap="round" stroke-linejoin="round"/>
<path d="M14.1667 5.46684C13.6638 4.24109 12.8071 3.19298 11.7059 2.45626C10.6047 1.71955 9.30901 1.32765 7.98412 1.33058C6.65922 1.33352 5.36525 1.73115 4.26734 2.47274C3.16944 3.21432 2.31739 4.26622 1.81995 5.49419C1.32251 6.72216 1.20224 8.0705 1.47448 9.36712C1.74672 10.6637 2.39914 11.8498 3.34845 12.774C4.29777 13.6982 5.50094 14.3186 6.80439 14.556C8.10785 14.7934 9.45248 14.637 10.6667 14.1068" stroke="#62636C" stroke-linecap="round" stroke-linejoin="round"/>
</svg>
