<svg width="16" height="16" viewBox="0 0 16 16" fill="none" xmlns="http://www.w3.org/2000/svg">
<path d="M7.33331 13.333H1.33331" stroke="#1E1F24" stroke-linecap="round" stroke-linejoin="round"/>
<path d="M7.33331 3.04114V13.8125C7.33334 13.9137 7.35644 14.0137 7.40085 14.1047C7.44526 14.1957 7.50982 14.2754 7.58963 14.3377C7.66944 14.4 7.7624 14.4434 7.86146 14.4644C7.96051 14.4854 8.06306 14.4836 8.16131 14.4591L12.6666 13.3331V3.70781C12.6666 3.41048 12.5672 3.1217 12.3842 2.88736C12.2012 2.65302 11.9451 2.48657 11.6566 2.41447L8.98998 1.74781C8.79348 1.69869 8.58837 1.69498 8.39023 1.73698C8.19208 1.77897 8.00611 1.86555 7.84642 1.99015C7.68673 2.11475 7.55753 2.27409 7.46863 2.45608C7.37972 2.63807 7.33344 2.83859 7.33331 3.04114Z" stroke="#1E1F24" stroke-linecap="round" stroke-linejoin="round"/>
<path d="M7.33333 2.66699H5.33333C4.97971 2.66699 4.64057 2.80747 4.39052 3.05752C4.14048 3.30756 4 3.6467 4 4.00033V13.3337" stroke="#1E1F24" stroke-linecap="round" stroke-linejoin="round"/>
<path d="M9.33331 8H9.33998" stroke="#1E1F24" stroke-linecap="round" stroke-linejoin="round"/>
<path d="M14.6667 13.333H12.6667" stroke="#1E1F24" stroke-linecap="round" stroke-linejoin="round"/>
</svg>
