<svg width="20" height="20" viewBox="0 0 20 20" fill="none" xmlns="http://www.w3.org/2000/svg">
<path d="M12.2837 7.5L11.9952 15M8.00481 15L7.71635 7.5M16.023 4.82547C16.308 4.86851 16.592 4.91456 16.875 4.96358M16.023 4.82547L15.1332 16.3938C15.058 17.3707 14.2434 18.125 13.2637 18.125H6.73631C5.75655 18.125 4.94198 17.3707 4.86683 16.3938L3.97696 4.82547M16.023 4.82547C15.0677 4.6812 14.1013 4.57071 13.125 4.49527M3.125 4.96358C3.40798 4.91456 3.69198 4.86851 3.97696 4.82547M3.97696 4.82547C4.93231 4.6812 5.89874 4.57071 6.875 4.49527M13.125 4.49527V3.73182C13.125 2.74902 12.3661 1.92853 11.3838 1.8971C10.9244 1.8824 10.463 1.875 10 1.875C9.53696 1.875 9.07565 1.8824 8.61618 1.8971C7.63388 1.92853 6.875 2.74902 6.875 3.73182V4.49527M13.125 4.49527C12.0938 4.41558 11.0516 4.375 10 4.375C8.94836 4.375 7.9062 4.41558 6.875 4.49527" stroke="#E74C3C" stroke-linecap="round" stroke-linejoin="round"/>
</svg>
