<svg width="18" height="18" viewBox="0 0 18 18" fill="none" xmlns="http://www.w3.org/2000/svg">
<path d="M8.25 15H1.5" stroke="#1E1F24" stroke-width="1.5" stroke-linecap="round" stroke-linejoin="round"/>
<path d="M8.25 3.42165V15.5394C8.25003 15.6533 8.27602 15.7657 8.32598 15.8681C8.37594 15.9705 8.44857 16.0602 8.53836 16.1303C8.62814 16.2004 8.73272 16.2491 8.84416 16.2728C8.9556 16.2965 9.07096 16.2945 9.1815 16.2669L14.25 15.0001V4.17165C14.2499 3.83715 14.1381 3.51228 13.9322 3.24865C13.7263 2.98502 13.4383 2.79776 13.1138 2.71665L10.1137 1.96665C9.89269 1.91139 9.66194 1.90722 9.43903 1.95446C9.21611 2.0017 9.00689 2.09911 8.82724 2.23928C8.6476 2.37946 8.50225 2.55872 8.40223 2.76346C8.30221 2.9682 8.25015 3.19378 8.25 3.42165Z" stroke="#1E1F24" stroke-width="1.5" stroke-linecap="round" stroke-linejoin="round"/>
<path d="M8.25 3H6C5.60218 3 5.22064 3.15804 4.93934 3.43934C4.65804 3.72064 4.5 4.10218 4.5 4.5V15" stroke="#1E1F24" stroke-width="1.5" stroke-linecap="round" stroke-linejoin="round"/>
<path d="M10.5 9H10.5067" stroke="#1E1F24" stroke-width="1.5" stroke-linecap="round" stroke-linejoin="round"/>
<path d="M16.5 15H14.25" stroke="#1E1F24" stroke-width="1.5" stroke-linecap="round" stroke-linejoin="round"/>
</svg>
