<svg width="18" height="18" viewBox="0 0 18 18" fill="none" xmlns="http://www.w3.org/2000/svg">
<path d="M9 4.5V9L12 10.5" stroke="#1E1F24" stroke-width="1.5" stroke-linecap="round" stroke-linejoin="round"/>
<path d="M15 9V12.75" stroke="#1E1F24" stroke-width="1.5" stroke-linecap="round" stroke-linejoin="round"/>
<path d="M15 15.75H15.008" stroke="#1E1F24" stroke-width="1.5" stroke-linecap="round" stroke-linejoin="round"/>
<path d="M15.9375 6.15038C15.3717 4.77141 14.408 3.59228 13.1691 2.76348C11.9303 1.93467 10.4726 1.49379 8.98211 1.49709C7.4916 1.50039 6.03588 1.94773 4.80074 2.78201C3.56559 3.6163 2.60704 4.79969 2.04742 6.18115C1.4878 7.56261 1.35249 9.07949 1.65877 10.5382C1.96504 11.9969 2.69901 13.3313 3.76699 14.371C4.83497 15.4107 6.18853 16.1086 7.65492 16.3757C9.12131 16.6428 10.634 16.4668 12 15.8704" stroke="#1E1F24" stroke-width="1.5" stroke-linecap="round" stroke-linejoin="round"/>
</svg>
