<svg width="18" height="18" viewBox="0 0 18 18" fill="none" xmlns="http://www.w3.org/2000/svg">
<g clip-path="url(#clip0_14905_45006)">
<path d="M9 4.5V9L11.733 10.3665" stroke="#1E1F24" stroke-width="1.5" stroke-linecap="round" stroke-linejoin="round"/>
<path d="M12 14.25H16.5" stroke="#1E1F24" stroke-width="1.5" stroke-linecap="round" stroke-linejoin="round"/>
<path d="M14.25 12V16.5" stroke="#1E1F24" stroke-width="1.5" stroke-linecap="round" stroke-linejoin="round"/>
<path d="M16.44 9.95035C16.6381 8.39838 16.346 6.82329 15.6044 5.44563C14.8628 4.06797 13.709 2.95672 12.3044 2.26748C10.8998 1.57823 9.31485 1.3455 7.77142 1.60187C6.228 1.85824 4.80339 2.59088 3.69707 3.69719C2.59075 4.80351 1.85812 6.22812 1.60175 7.77155C1.34538 9.31497 1.57811 10.8999 2.26735 12.3045C2.9566 13.7091 4.06785 14.8629 5.44551 15.6045C6.82317 16.3461 8.39826 16.6383 9.95023 16.4401" stroke="#1E1F24" stroke-width="1.5" stroke-linecap="round" stroke-linejoin="round"/>
</g>
<defs>
<clipPath id="clip0_14905_45006">
<rect width="18" height="18" fill="white"/>
</clipPath>
</defs>
</svg>
