<svg width="18" height="18" viewBox="0 0 18 18" fill="none" xmlns="http://www.w3.org/2000/svg">
<path d="M7.125 10.3995C7.65794 9.97455 8.3197 9.74376 9.00132 9.74512C9.68293 9.74649 10.3438 9.97993 10.875 10.407" stroke="#1E1F24" stroke-width="1.5" stroke-linecap="round" stroke-linejoin="round"/>
<path d="M9 12.75H9.00667" stroke="#1E1F24" stroke-width="1.5" stroke-linecap="round" stroke-linejoin="round"/>
<path d="M2.25 7.50036C2.24995 7.28216 2.2975 7.06658 2.38934 6.86865C2.48118 6.67072 2.6151 6.49521 2.78175 6.35436L8.03175 1.85436C8.30249 1.62554 8.64552 1.5 9 1.5C9.35448 1.5 9.69751 1.62554 9.96825 1.85436L15.2183 6.35436C15.3849 6.49521 15.5188 6.67072 15.6107 6.86865C15.7025 7.06658 15.7501 7.28216 15.75 7.50036V14.2504C15.75 14.6482 15.592 15.0297 15.3107 15.311C15.0294 15.5923 14.6478 15.7504 14.25 15.7504H3.75C3.35218 15.7504 2.97064 15.5923 2.68934 15.311C2.40804 15.0297 2.25 14.6482 2.25 14.2504V7.50036Z" stroke="#1E1F24" stroke-width="1.5" stroke-linecap="round" stroke-linejoin="round"/>
<path d="M5.25 8.06527C6.31417 7.21325 7.63677 6.74902 9 6.74902C10.3632 6.74902 11.6858 7.21325 12.75 8.06527" stroke="#1E1F24" stroke-width="1.5" stroke-linecap="round" stroke-linejoin="round"/>
</svg>
