<svg width="18" height="18" viewBox="0 0 18 18" fill="none" xmlns="http://www.w3.org/2000/svg">
<path d="M16.0651 8.19128C16.1994 8.13205 16.3133 8.03473 16.3928 7.91138C16.4723 7.78803 16.5139 7.64407 16.5123 7.49733C16.5108 7.35059 16.4663 7.20752 16.3843 7.08584C16.3022 6.96416 16.1863 6.86922 16.0508 6.81278L9.62259 3.88478C9.42717 3.79564 9.21488 3.74951 9.00009 3.74951C8.7853 3.74951 8.57301 3.79564 8.37759 3.88478L1.95009 6.80978C1.81657 6.86826 1.70298 6.96438 1.62322 7.08639C1.54346 7.2084 1.50098 7.35101 1.50098 7.49678C1.50098 7.64255 1.54346 7.78516 1.62322 7.90717C1.70298 8.02918 1.81657 8.1253 1.95009 8.18378L8.37759 11.1148C8.57301 11.2039 8.7853 11.25 9.00009 11.25C9.21488 11.25 9.42717 11.2039 9.62259 11.1148L16.0651 8.19128Z" stroke="#1E1F24" stroke-width="1.5" stroke-linecap="round" stroke-linejoin="round"/>
<path d="M16.5 7.5V12" stroke="#1E1F24" stroke-width="1.5" stroke-linecap="round" stroke-linejoin="round"/>
<path d="M4.5 9.375V12C4.5 12.5967 4.97411 13.169 5.81802 13.591C6.66193 14.0129 7.80653 14.25 9 14.25C10.1935 14.25 11.3381 14.0129 12.182 13.591C13.0259 13.169 13.5 12.5967 13.5 12V9.375" stroke="#1E1F24" stroke-width="1.5" stroke-linecap="round" stroke-linejoin="round"/>
</svg>
