<svg width="16" height="16" viewBox="0 0 16 16" fill="none" xmlns="http://www.w3.org/2000/svg">
<path d="M7.33333 13.333H1.33333" stroke="#1E1F24" stroke-linecap="round" stroke-linejoin="round"/>
<path d="M7.33333 3.04114V13.8125C7.33336 13.9137 7.35646 14.0137 7.40087 14.1047C7.44528 14.1957 7.50984 14.2754 7.58965 14.3377C7.66946 14.4 7.76242 14.4434 7.86148 14.4644C7.96053 14.4854 8.06308 14.4836 8.16133 14.4591L12.6667 13.3331V3.70781C12.6666 3.41048 12.5672 3.1217 12.3842 2.88736C12.2012 2.65302 11.9451 2.48657 11.6567 2.41447L8.99 1.74781C8.7935 1.69869 8.58839 1.69498 8.39025 1.73698C8.1921 1.77897 8.00613 1.86555 7.84644 1.99015C7.68675 2.11475 7.55755 2.27409 7.46865 2.45608C7.37974 2.63807 7.33347 2.83859 7.33333 3.04114Z" stroke="#1E1F24" stroke-linecap="round" stroke-linejoin="round"/>
<path d="M7.33333 2.66699H5.33333C4.97971 2.66699 4.64057 2.80747 4.39052 3.05752C4.14048 3.30756 4 3.6467 4 4.00033V13.3337" stroke="#1E1F24" stroke-linecap="round" stroke-linejoin="round"/>
<path d="M9.33333 8H9.34" stroke="#1E1F24" stroke-linecap="round" stroke-linejoin="round"/>
<path d="M14.6667 13.333H12.6667" stroke="#1E1F24" stroke-linecap="round" stroke-linejoin="round"/>
</svg>
