<svg width="16" height="16" viewBox="0 0 16 16" fill="none" xmlns="http://www.w3.org/2000/svg">
<path d="M7.33334 13.333H1.33334" stroke="#62636C" stroke-linecap="round" stroke-linejoin="round"/>
<path d="M7.33334 3.04114V13.8125C7.33337 13.9137 7.35647 14.0137 7.40088 14.1047C7.44529 14.1957 7.50985 14.2754 7.58966 14.3377C7.66947 14.4 7.76243 14.4434 7.86149 14.4644C7.96054 14.4854 8.06309 14.4836 8.16134 14.4591L12.6667 13.3331V3.70781C12.6666 3.41048 12.5672 3.1217 12.3842 2.88736C12.2012 2.65302 11.9451 2.48657 11.6567 2.41447L8.99001 1.74781C8.79351 1.69869 8.5884 1.69498 8.39026 1.73698C8.19211 1.77897 8.00614 1.86555 7.84645 1.99015C7.68676 2.11475 7.55756 2.27409 7.46866 2.45608C7.37975 2.63807 7.33348 2.83859 7.33334 3.04114Z" stroke="#62636C" stroke-linecap="round" stroke-linejoin="round"/>
<path d="M7.33333 2.66699H5.33333C4.97971 2.66699 4.64057 2.80747 4.39052 3.05752C4.14048 3.30756 4 3.6467 4 4.00033V13.3337" stroke="#62636C" stroke-linecap="round" stroke-linejoin="round"/>
<path d="M9.33334 8H9.34001" stroke="#62636C" stroke-linecap="round" stroke-linejoin="round"/>
<path d="M14.6667 13.333H12.6667" stroke="#62636C" stroke-linecap="round" stroke-linejoin="round"/>
</svg>
