<svg width="16" height="16" viewBox="0 0 16 16" fill="none" xmlns="http://www.w3.org/2000/svg">
<path d="M8 4V8L10.6667 9.33333" stroke="#62636C" stroke-linecap="round" stroke-linejoin="round"/>
<path d="M13.3333 8V11.3333" stroke="#62636C" stroke-linecap="round" stroke-linejoin="round"/>
<path d="M13.3333 14H13.34" stroke="#62636C" stroke-linecap="round" stroke-linejoin="round"/>
<path d="M14.1667 5.46636C13.6638 4.2406 12.8071 3.19249 11.7059 2.45577C10.6047 1.71906 9.30901 1.32716 7.98412 1.33009C6.65922 1.33303 5.36525 1.73066 4.26734 2.47225C3.16944 3.21383 2.31739 4.26574 1.81995 5.4937C1.32251 6.72167 1.20224 8.07001 1.47448 9.36663C1.74672 10.6633 2.39914 11.8494 3.34845 12.7736C4.29777 13.6978 5.50094 14.3181 6.80439 14.5555C8.10785 14.7929 9.45248 14.6365 10.6667 14.1064" stroke="#62636C" stroke-linecap="round" stroke-linejoin="round"/>
</svg>
