<svg width="18" height="18" viewBox="0 0 18 18" fill="none" xmlns="http://www.w3.org/2000/svg">
<path d="M9 4.5V9L12 10.5" stroke="#1E1F24" stroke-width="1.5" stroke-linecap="round" stroke-linejoin="round"/>
<path d="M15 9V12.75" stroke="#1E1F24" stroke-width="1.5" stroke-linecap="round" stroke-linejoin="round"/>
<path d="M15 15.75H15.008" stroke="#1E1F24" stroke-width="1.5" stroke-linecap="round" stroke-linejoin="round"/>
<path d="M15.9375 6.15038C15.3718 4.77141 14.408 3.59228 13.1692 2.76348C11.9303 1.93467 10.4726 1.49379 8.98214 1.49709C7.49163 1.50039 6.03591 1.94773 4.80077 2.78201C3.56562 3.6163 2.60707 4.79969 2.04745 6.18115C1.48783 7.56261 1.35252 9.07949 1.6588 10.5382C1.96507 11.9969 2.69904 13.3313 3.76702 14.371C4.835 15.4107 6.18856 16.1086 7.65495 16.3757C9.12134 16.6428 10.634 16.4668 12 15.8704" stroke="#1E1F24" stroke-width="1.5" stroke-linecap="round" stroke-linejoin="round"/>
</svg>
