<svg width="18" height="18" viewBox="0 0 18 18" fill="none" xmlns="http://www.w3.org/2000/svg">
<g clip-path="url(#clip0_15506_5725)">
<path d="M9 4.5V9L11.733 10.3665" stroke="#1E1F24" stroke-width="1.5" stroke-linecap="round" stroke-linejoin="round"/>
<path d="M12 14.25H16.5" stroke="#1E1F24" stroke-width="1.5" stroke-linecap="round" stroke-linejoin="round"/>
<path d="M14.25 12V16.5" stroke="#1E1F24" stroke-width="1.5" stroke-linecap="round" stroke-linejoin="round"/>
<path d="M16.44 9.94987C16.6381 8.39789 16.346 6.82281 15.6044 5.44515C14.8628 4.06749 13.709 2.95623 12.3044 2.26699C10.8998 1.57774 9.31485 1.34501 7.77142 1.60138C6.228 1.85775 4.80339 2.59039 3.69707 3.69671C2.59075 4.80303 1.85812 6.22763 1.60175 7.77106C1.34538 9.31448 1.57811 10.8994 2.26735 12.304C2.9566 13.7086 4.06785 14.8624 5.44551 15.604C6.82317 16.3456 8.39826 16.6378 9.95023 16.4396" stroke="#1E1F24" stroke-width="1.5" stroke-linecap="round" stroke-linejoin="round"/>
</g>
<defs>
<clipPath id="clip0_15506_5725">
<rect width="18" height="18" fill="white"/>
</clipPath>
</defs>
</svg>
