<svg width="16" height="16" viewBox="0 0 16 16" fill="none" xmlns="http://www.w3.org/2000/svg">
<path d="M14.9891 11.29L13.5516 6.99001C13.9513 6.71798 14.1216 6.62777 14.222 6.41442C14.3488 6.14462 13.903 4.86178 13.6314 4.64779C13.395 4.46151 13.2516 4.52846 12.7478 4.58526L11.3083 0.279252C11.2713 0.168307 11.1501 0.107871 11.0392 0.144959L11.0112 0.154304C10.9003 0.191391 10.8399 0.31251 10.8769 0.423455L10.9346 0.595992C10.6851 1.25655 9.25671 4.59268 5.44273 5.86764C3.06347 6.66299 2.24159 6.30432 1.65121 7.199C1.50706 7.41746 1.47854 7.82605 1.53163 8.31093C1.3118 8.35467 1.16863 8.41854 1.05246 8.61369C0.812619 9.01657 1.37248 10.7949 1.80206 10.8561C1.96586 10.8794 2.11363 10.8485 2.28828 10.7832C2.55675 11.2921 2.86223 11.6535 3.15041 11.6838C3.56552 11.7275 3.9374 11.623 4.41323 11.4299C4.81902 12.7506 5.58122 15.5925 5.97803 15.8287C6.38091 16.0685 8.23508 14.8838 8.29631 14.4542C8.33884 14.1558 7.48926 14.0005 6.71039 12.8874C6.72957 12.8469 6.73404 12.7993 6.7187 12.7534L6.46233 11.9865C6.4308 11.8922 6.32879 11.8413 6.23449 11.8728L6.17054 11.8942C6.04118 11.5854 5.92264 11.2332 5.82116 10.8306C6.15202 10.697 6.52699 10.5551 6.96117 10.4099L6.96119 10.4099C10.6568 9.17456 13.9002 10.914 14.5021 11.2679L14.5577 11.4342C14.5948 11.5452 14.7159 11.6056 14.8268 11.5685L14.8548 11.5592C14.9657 11.5221 15.0262 11.401 14.9891 11.29Z" fill="#EDEDED"/>
<path d="M6.47998 8.97069L6.47995 8.9706L5.44277 5.86792C5.23576 5.93712 5.04124 5.99711 4.85693 6.05043C4.83281 6.05741 4.80864 6.06441 4.7849 6.07115C4.74623 6.08211 4.70832 6.09261 4.67063 6.10296C4.64908 6.10887 4.62715 6.11502 4.60593 6.12075C4.55729 6.13385 4.50962 6.14638 4.4626 6.15852C4.43288 6.1662 4.40383 6.1735 4.37474 6.18081C2.79606 6.57788 2.14293 6.45418 1.65125 7.19929C1.5071 7.41774 1.47858 7.82633 1.53167 8.31121C1.58356 8.78488 1.71344 9.33127 1.88977 9.84472C1.89587 9.86248 1.90193 9.88027 1.90813 9.89794C1.90813 9.89794 1.90812 9.89794 1.9081 9.89794C1.90829 9.89846 1.90848 9.89896 1.90865 9.89948C1.91325 9.91259 1.918 9.92558 1.92266 9.93863C1.92869 9.95549 1.93467 9.97239 1.9408 9.98916C1.94592 10.0032 1.95115 10.0171 1.95633 10.031C1.96214 10.0467 1.96792 10.0623 1.97383 10.0779C1.97922 10.0921 1.98472 10.1063 1.99018 10.1204C1.99603 10.1356 2.00184 10.1507 2.00775 10.1657C2.01332 10.1799 2.01898 10.1939 2.02461 10.208C2.03057 10.2229 2.03654 10.2378 2.04257 10.2526C2.04824 10.2664 2.05396 10.2802 2.05968 10.2939C2.06581 10.3087 2.07195 10.3234 2.07814 10.338C2.08395 10.3517 2.08981 10.3653 2.09568 10.3789C2.10193 10.3934 2.10819 10.4078 2.1145 10.4221C2.12039 10.4355 2.12632 10.4488 2.13225 10.462C2.13868 10.4764 2.14513 10.4906 2.15162 10.5048C2.15759 10.5179 2.16359 10.5308 2.16961 10.5438C2.17615 10.5578 2.18273 10.5718 2.18935 10.5857C2.19543 10.5985 2.20155 10.6112 2.20768 10.6239C2.21431 10.6376 2.22099 10.6511 2.22768 10.6646C2.23386 10.6772 2.24007 10.6897 2.24631 10.702C2.25311 10.7155 2.25996 10.7288 2.26681 10.7421C2.27301 10.7541 2.27918 10.7661 2.28541 10.778C2.28636 10.7798 2.28729 10.7817 2.28825 10.7835C2.29435 10.7951 2.30054 10.8064 2.3067 10.8178C2.31282 10.8292 2.31893 10.8407 2.32509 10.8519C2.33249 10.8654 2.33995 10.8786 2.34739 10.8919C2.35333 10.9024 2.35926 10.9131 2.36524 10.9235C2.37319 10.9374 2.38121 10.9509 2.38921 10.9645C2.39478 10.974 2.40033 10.9836 2.40591 10.9929C2.4151 11.0082 2.42436 11.0231 2.4336 11.038C2.43808 11.0452 2.44253 11.0526 2.44702 11.0598C2.46069 11.0814 2.47442 11.1027 2.4882 11.1235C2.49211 11.1294 2.49604 11.135 2.49996 11.1408C2.50999 11.1557 2.52002 11.1705 2.5301 11.1849C2.53551 11.1927 2.54096 11.2001 2.54638 11.2077C2.55498 11.2197 2.56357 11.2317 2.57219 11.2434C2.5782 11.2515 2.58424 11.2592 2.59028 11.2672C2.59838 11.2778 2.60649 11.2885 2.61464 11.2989C2.6209 11.3068 2.62718 11.3144 2.63346 11.3222C2.64139 11.3319 2.64933 11.3417 2.65729 11.3512C2.66371 11.3588 2.67015 11.3661 2.67658 11.3735C2.68445 11.3825 2.6923 11.3915 2.70016 11.4002C2.70667 11.4074 2.71319 11.4143 2.71972 11.4213C2.72756 11.4296 2.7354 11.4379 2.74326 11.4459C2.74979 11.4526 2.75634 11.459 2.76288 11.4654C2.77073 11.4731 2.77859 11.4807 2.78644 11.488C2.79302 11.4941 2.79957 11.5001 2.80616 11.506C2.81402 11.513 2.82187 11.5198 2.82974 11.5264C2.83632 11.532 2.84288 11.5374 2.84946 11.5427C2.85734 11.549 2.86522 11.5551 2.8731 11.5611C2.87966 11.566 2.88622 11.5709 2.89277 11.5756C2.90071 11.5813 2.90865 11.5866 2.91659 11.5918C2.92305 11.5961 2.92951 11.6004 2.93597 11.6044C2.94405 11.6094 2.95213 11.614 2.96022 11.6186C2.96652 11.6221 2.97283 11.6258 2.97914 11.6291C2.98739 11.6334 2.99564 11.6372 3.00389 11.6411C3.01002 11.6439 3.01613 11.647 3.02226 11.6496C3.03084 11.6532 3.03941 11.6562 3.04798 11.6593C3.05372 11.6614 3.05946 11.6638 3.06518 11.6656C3.07468 11.6687 3.08416 11.671 3.09364 11.6734C3.0984 11.6746 3.10318 11.6761 3.10793 11.6772C3.12214 11.6802 3.13633 11.6826 3.15046 11.6841C3.17959 11.6871 3.2085 11.6895 3.23725 11.6911C3.29475 11.6943 3.35159 11.6948 3.4082 11.6925C3.43649 11.6914 3.46474 11.6896 3.49296 11.6872C3.54942 11.6823 3.60584 11.6749 3.66263 11.665C3.69102 11.66 3.71951 11.6545 3.74814 11.6484C3.91991 11.6116 4.09683 11.5537 4.28993 11.4792C4.33016 11.4636 4.37138 11.4471 4.4131 11.4302C4.41329 11.4301 4.41349 11.4301 4.41368 11.43C4.45642 11.4126 4.50014 11.3945 4.54466 11.3758C4.55079 11.3732 4.55684 11.3707 4.563 11.3681C4.6081 11.349 4.65381 11.3296 4.70096 11.3092C4.73755 11.2934 4.77481 11.2772 4.81276 11.2607C4.88866 11.2276 4.96738 11.1931 5.04934 11.1573C5.17227 11.1036 5.30246 11.047 5.44129 10.9881C5.48755 10.9685 5.5348 10.9486 5.58305 10.9285C5.65188 10.8998 5.7237 10.8704 5.79695 10.8407C5.80505 10.8374 5.81303 10.8342 5.8212 10.8309C5.8316 10.8267 5.84166 10.8226 5.85215 10.8183C5.85349 10.8178 5.85476 10.8173 5.8561 10.8167C5.85624 10.8167 5.85638 10.8166 5.85654 10.8166C5.88347 10.8058 5.91101 10.7948 5.93853 10.7839C5.93881 10.7838 5.93908 10.7837 5.93935 10.7836C5.96189 10.7746 5.9845 10.7657 6.00745 10.7567C6.00761 10.7566 6.00777 10.7565 6.00792 10.7565C6.03598 10.7455 6.06447 10.7344 6.09315 10.7233C6.09329 10.7232 6.09342 10.7232 6.09357 10.7231C6.11683 10.7141 6.14033 10.7051 6.16401 10.696C6.16407 10.696 6.16413 10.696 6.16417 10.6959C6.19398 10.6845 6.22406 10.6731 6.25455 10.6616C6.27841 10.6526 6.30265 10.6435 6.32693 10.6345C6.3582 10.6228 6.38956 10.6112 6.42154 10.5994C6.47091 10.5813 6.52056 10.5632 6.57168 10.5449C6.6961 10.5004 6.8258 10.4555 6.96119 10.4102L6.47998 8.97069Z" fill="#E73A3A"/>
<path d="M5.97986 9.20829C5.97808 9.20911 5.97628 9.2099 5.97451 9.21072C5.97628 9.2099 5.97806 9.20906 5.97984 9.20824L4.91831 6.03271C4.89747 6.03885 4.87747 6.04443 4.8569 6.05038C4.83278 6.05736 4.8086 6.06437 4.78487 6.0711C4.7462 6.08206 4.70829 6.09256 4.6706 6.10291C4.64905 6.10882 4.62712 6.11497 4.6059 6.1207C4.55726 6.1338 4.50959 6.14633 4.46257 6.15848C4.43285 6.16615 4.4038 6.17345 4.37471 6.18077C4.34812 6.18745 4.32112 6.19436 4.29504 6.20076L5.38401 9.45837C5.38598 9.45765 5.38798 9.45699 5.38996 9.45627C5.38798 9.45699 5.38603 9.45779 5.38406 9.45852L5.8402 10.823C5.84539 10.821 5.85085 10.8188 5.85606 10.8167C5.85621 10.8167 5.85635 10.8166 5.85651 10.8165C5.88344 10.8057 5.91098 10.7948 5.9385 10.7839C5.93878 10.7838 5.93905 10.7837 5.93932 10.7836C5.96186 10.7746 5.98447 10.7657 6.00742 10.7567C6.00757 10.7566 6.00774 10.7565 6.00789 10.7565C6.03595 10.7455 6.06444 10.7344 6.09311 10.7233C6.09326 10.7232 6.09339 10.7232 6.09354 10.7231C6.1168 10.7141 6.1403 10.7051 6.16398 10.696C6.16404 10.696 6.1641 10.6959 6.16414 10.6959C6.19395 10.6845 6.22403 10.6731 6.25452 10.6616C6.27838 10.6526 6.30262 10.6435 6.3269 10.6345C6.35816 10.6228 6.38953 10.6111 6.42151 10.5994C6.42854 10.5968 6.43524 10.5943 6.4423 10.5917L5.97986 9.20829Z" fill="#EF7C54"/>
<path d="M2.28537 10.7778C2.27914 10.766 2.27295 10.7539 2.26677 10.7419C2.25991 10.7286 2.25306 10.7153 2.24627 10.7019C2.24002 10.6895 2.23383 10.677 2.22763 10.6645C2.22094 10.6509 2.21427 10.6374 2.20764 10.6237C2.2015 10.6111 2.19539 10.5983 2.1893 10.5855C2.18269 10.5716 2.17611 10.5576 2.16956 10.5436C2.16354 10.5307 2.15755 10.5177 2.15158 10.5046C2.14508 10.4905 2.13863 10.4762 2.13221 10.4619C2.12627 10.4486 2.12034 10.4353 2.11445 10.422C2.10814 10.4076 2.10189 10.3932 2.09563 10.3787C2.08976 10.3651 2.0839 10.3515 2.07809 10.3378C2.0719 10.3232 2.06576 10.3085 2.05964 10.2938C2.05391 10.28 2.04819 10.2662 2.04253 10.2524C2.03649 10.2376 2.03053 10.2227 2.02456 10.2078C2.01893 10.1937 2.01328 10.1797 2.00771 10.1656C2.0018 10.1505 1.99598 10.1354 1.99013 10.1203C1.98467 10.1061 1.97917 10.092 1.97378 10.0777C1.96788 10.0622 1.9621 10.0465 1.95628 10.0308C1.9511 10.0169 1.94587 10.003 1.94075 9.98898C1.93463 9.97221 1.92864 9.95531 1.92261 9.93845C1.91795 9.9254 1.9132 9.91242 1.90861 9.89931C1.90843 9.89879 1.90824 9.89828 1.90806 9.89776C1.90806 9.89776 1.90807 9.89776 1.90808 9.89776C1.90187 9.88009 1.89583 9.8623 1.88972 9.84454C1.71339 9.33109 1.5835 8.7847 1.53162 8.31104C1.31179 8.35478 1.16862 8.41865 1.05245 8.61379C0.928022 8.8228 1.01887 9.40194 1.19504 9.9195C1.19507 9.91957 1.19509 9.91964 1.19512 9.91972C1.24604 10.0693 1.3041 10.2137 1.36613 10.3425C1.36637 10.343 1.36661 10.3435 1.36686 10.344C1.37879 10.3688 1.39087 10.3929 1.40307 10.4164C1.40379 10.4178 1.4045 10.4192 1.40521 10.4205C1.41707 10.4433 1.42905 10.4654 1.44112 10.4868C1.44221 10.4887 1.44329 10.4907 1.44438 10.4926C1.45621 10.5135 1.46815 10.5337 1.48015 10.5532C1.48147 10.5553 1.48276 10.5574 1.48407 10.5595C1.49591 10.5786 1.50783 10.5969 1.5198 10.6145C1.52129 10.6167 1.52278 10.6188 1.52428 10.621C1.53614 10.6382 1.54805 10.6547 1.55998 10.6703C1.56156 10.6724 1.56313 10.6744 1.56472 10.6765C1.57664 10.6918 1.58858 10.7064 1.60052 10.72C1.60209 10.7218 1.60365 10.7236 1.60522 10.7253C1.61719 10.7388 1.62918 10.7514 1.64116 10.763C1.64267 10.7645 1.64417 10.7658 1.64569 10.7673C1.65776 10.7787 1.66982 10.7893 1.68184 10.7987C1.68316 10.7997 1.68447 10.8006 1.68579 10.8016C1.69801 10.811 1.7102 10.8194 1.72232 10.8265C1.72335 10.8271 1.72436 10.8276 1.72539 10.8282C1.73781 10.8352 1.75018 10.8413 1.76245 10.8458C1.76305 10.8461 1.76364 10.8462 1.76423 10.8464C1.77694 10.851 1.78956 10.8544 1.80205 10.8562C1.96584 10.8795 2.11359 10.8486 2.28822 10.7833C2.28725 10.7815 2.28631 10.7796 2.28537 10.7778Z" fill="#CC1A25"/>
<path d="M14.0936 5.55354C14.0928 5.55428 14.0919 5.55502 14.0911 5.55575C13.9607 5.15932 13.7726 4.7593 13.6314 4.64806C13.395 4.46178 13.2517 4.52874 12.7478 4.58554L13.2562 6.10648L13.5517 6.99029C13.9513 6.71825 14.1217 6.62804 14.222 6.41469C14.2856 6.27938 14.2117 5.91147 14.0936 5.55354Z" fill="#E6E6E6"/>
<path d="M4.8574 6.15055L4.58179 6.24268L5.30249 8.39887L5.5781 8.30674L4.8574 6.15055Z" fill="#F4A081"/>
<path d="M4.1989 6.33154C4.1989 6.33154 3.27872 6.60775 2.93486 6.65513C2.59098 6.70252 2.15152 6.76282 1.85584 7.15365C1.58329 7.51392 1.6892 8.1497 1.6892 8.1497L4.46337 7.22234L4.1989 6.33154Z" fill="#EB5E53"/>
<path d="M5.39062 5.97217L5.03711 6.09033L5.31982 6.93614L5.67333 6.81798L5.39062 5.97217Z" fill="#EB5E53"/>
<path d="M14.989 11.29L13.5516 6.99002L13.2562 6.10621L12.7477 4.58526L11.3083 0.279252C11.2712 0.168307 11.1501 0.107871 11.0391 0.144959L11.0252 0.149627L11.0112 0.154304C10.9002 0.191391 10.8398 0.31251 10.8769 0.423455L10.9346 0.595992L13.1754 7.29931L14.502 11.2679L14.5576 11.4342C14.5947 11.5452 14.7158 11.6056 14.8268 11.5685L14.8408 11.5639L14.8547 11.5592C14.9657 11.5221 15.0261 11.401 14.989 11.29Z" fill="#BDBDBD"/>
<path d="M10.0373 4.78696C11.2394 3.87937 11.582 2.99119 11.582 2.99119L10.921 1.01392C10.921 1.01392 10.1286 2.84652 8.78199 4.10036C7.30878 5.47212 5.60706 5.96105 5.60706 5.96105L5.87144 6.75195C5.87144 6.75195 8.55099 5.90922 10.0373 4.78696Z" fill="white"/>
<path d="M6.80847 13.0225C6.80848 13.0224 6.8085 13.0224 6.80852 13.0224C6.80771 13.0214 6.80696 13.0204 6.80615 13.0194C6.77414 12.977 6.74219 12.9331 6.71036 12.8876C6.72954 12.847 6.73402 12.7995 6.71867 12.7536L6.4623 11.9866C6.43078 11.8923 6.32875 11.8414 6.23445 11.873L6.17146 11.894C6.1512 11.8453 6.13048 11.7949 6.109 11.7419C6.00346 11.471 5.90628 11.1687 5.82112 10.8308C5.81296 10.8341 5.80498 10.8374 5.79687 10.8406C5.7281 10.8685 5.66068 10.8961 5.59577 10.9231C5.59158 10.9249 5.58715 10.9267 5.58298 10.9284C5.53473 10.9485 5.48749 10.9684 5.44122 10.9881C5.30239 11.047 5.1722 11.1035 5.04927 11.1572C4.96732 11.193 4.8886 11.2275 4.81269 11.2606C4.77474 11.2771 4.73748 11.2933 4.70089 11.3091C4.65374 11.3295 4.60803 11.349 4.56293 11.368C4.5568 11.3706 4.55068 11.3731 4.5446 11.3757C4.50007 11.3944 4.45637 11.4126 4.41361 11.4299C4.41347 11.4299 4.41335 11.43 4.41321 11.4301C4.48513 11.6642 4.56819 11.9458 4.65851 12.2525C4.67596 12.3118 4.6937 12.3721 4.71167 12.4331C4.72964 12.4941 4.74786 12.5559 4.76629 12.6182C4.78471 12.6806 4.80335 12.7435 4.82215 12.807C4.83157 12.8387 4.84102 12.8705 4.85051 12.9023C4.8695 12.9661 4.88867 13.0303 4.90795 13.0946C4.92725 13.1589 4.94668 13.2233 4.96622 13.2879C4.97598 13.3201 4.98578 13.3524 4.99561 13.3846C5.01524 13.4491 5.03499 13.5135 5.05478 13.5776C5.07457 13.6418 5.09444 13.7057 5.11434 13.7693C5.13425 13.8328 5.15417 13.8959 5.17412 13.9585C5.20405 14.0523 5.23397 14.1449 5.26381 14.2356C5.28371 14.2961 5.30358 14.3558 5.32337 14.4144C5.33328 14.4438 5.34316 14.4729 5.35301 14.5017C5.39245 14.617 5.43158 14.728 5.47015 14.8335C5.48943 14.8862 5.50857 14.9375 5.52756 14.9873C5.54654 15.037 5.56535 15.0852 5.58396 15.1317C5.60258 15.1781 5.62098 15.2229 5.63918 15.2657C5.65737 15.3085 5.67534 15.3494 5.69305 15.3883C5.71075 15.4272 5.72821 15.464 5.74539 15.4985C5.83124 15.6714 5.90999 15.7884 5.978 15.8289C5.98597 15.8336 5.99472 15.8376 6.00383 15.8413C6.00631 15.8423 6.00889 15.8432 6.01147 15.8441C6.01921 15.8469 6.02728 15.8493 6.03573 15.8514C6.03772 15.8518 6.0396 15.8524 6.04163 15.8529C6.05197 15.8551 6.06287 15.8568 6.07418 15.8581C6.07697 15.8584 6.07989 15.8586 6.08272 15.8588C6.09202 15.8596 6.10161 15.8601 6.11151 15.8603C6.11471 15.8604 6.11786 15.8605 6.12112 15.8605C6.13369 15.8605 6.1466 15.8601 6.16002 15.8592C6.16201 15.859 6.16411 15.8588 6.16612 15.8586C6.17791 15.8577 6.19005 15.8563 6.20245 15.8547C6.20645 15.8542 6.21048 15.8537 6.21456 15.8531C6.22777 15.8512 6.24125 15.8489 6.25508 15.8463C6.25657 15.846 6.25799 15.8458 6.25949 15.8455C6.27483 15.8426 6.29062 15.839 6.30668 15.8352C6.31088 15.8342 6.31516 15.8332 6.31943 15.8321C6.33266 15.8288 6.34612 15.8253 6.3598 15.8215C6.3634 15.8204 6.36692 15.8195 6.37054 15.8185C6.38742 15.8137 6.40459 15.8085 6.42207 15.8029C6.42567 15.8017 6.42933 15.8005 6.43297 15.7993C6.44756 15.7945 6.46235 15.7895 6.47732 15.7843C6.4819 15.7827 6.48647 15.7811 6.49107 15.7794C6.50946 15.7728 6.52804 15.766 6.54693 15.7587C6.54756 15.7585 6.54821 15.7582 6.54884 15.758C6.5672 15.7509 6.58582 15.7434 6.6046 15.7357C6.6092 15.7338 6.61382 15.7319 6.61844 15.73C6.63623 15.7226 6.65417 15.715 6.67227 15.7071C6.67407 15.7063 6.67581 15.7055 6.6776 15.7048C6.69785 15.6959 6.7183 15.6866 6.73889 15.6771C6.7427 15.6754 6.74651 15.6736 6.75032 15.6718C6.76822 15.6635 6.78621 15.655 6.80431 15.6462C6.80757 15.6446 6.8108 15.6431 6.81406 15.6415C6.83538 15.6311 6.85681 15.6205 6.87836 15.6096C6.87961 15.609 6.88086 15.6083 6.8821 15.6077C6.90227 15.5975 6.92256 15.587 6.94287 15.5763C6.94639 15.5745 6.94988 15.5726 6.95339 15.5708C6.99703 15.5477 7.04093 15.5237 7.08487 15.4989C7.08748 15.4974 7.09009 15.4959 7.0927 15.4944C7.13777 15.4689 7.18286 15.4425 7.22771 15.4155C7.22815 15.4152 7.22856 15.4149 7.22898 15.4147C7.25135 15.4012 7.27364 15.3875 7.29584 15.3737C7.29677 15.3731 7.2977 15.3726 7.29862 15.372C7.34387 15.3438 7.38871 15.3151 7.43292 15.2859C7.4339 15.2853 7.43488 15.2846 7.43586 15.284C7.48039 15.2545 7.52424 15.2247 7.56715 15.1947C7.56718 15.1946 7.56719 15.1946 7.56722 15.1946C7.67555 15.1187 7.77785 15.0413 7.86966 14.9655C7.86973 14.9654 7.86981 14.9654 7.86987 14.9653C8.10992 14.767 8.27849 14.579 8.29624 14.4544C8.33702 14.1685 7.5588 14.0139 6.80847 13.0225Z" fill="#CC1A25"/>
<path d="M13.5517 6.98997C13.9513 6.71793 14.1217 6.62772 14.222 6.41437C14.2856 6.27905 14.2117 5.91114 14.0936 5.55322C14.0928 5.55396 14.0919 5.5547 14.0911 5.55543C13.8954 5.73712 13.6261 5.9192 13.2562 6.10616L13.5517 6.98997Z" fill="#CFD9DF"/>
<path d="M11.0112 0.154579C10.9002 0.191667 10.8398 0.312786 10.8769 0.423731L10.9346 0.596268L13.1754 7.29958L14.502 11.2682L14.5576 11.4345C14.5947 11.5455 14.7158 11.6059 14.8268 11.5688L14.8407 11.5641L11.0252 0.149902L11.0112 0.154579Z" fill="#9AA5AB"/>
<path d="M12.4246 7.31012C10.5863 7.45742 8.93325 7.99131 7.27472 8.62048C7.00217 8.72387 6.73996 8.84604 6.47986 8.97044L6.47988 8.97053L6.9611 10.4101L6.96111 10.4101C10.6567 9.1747 13.9001 10.9142 14.502 11.268L13.1754 7.29944C12.9294 7.28324 12.6808 7.28464 12.4246 7.31012Z" fill="#CFD9DF"/>
<path d="M2.2668 10.7419C2.25994 10.7286 2.25309 10.7153 2.2463 10.7018C2.24005 10.6894 2.23386 10.6769 2.22766 10.6644C2.22097 10.6509 2.2143 10.6374 2.20767 10.6237C2.20153 10.611 2.19542 10.5982 2.18933 10.5854C2.18272 10.5715 2.17614 10.5576 2.16959 10.5435C2.16357 10.5306 2.15758 10.5176 2.15161 10.5046C2.14511 10.4904 2.13866 10.4761 2.13224 10.4618C2.1263 10.4486 2.12037 10.4353 2.11448 10.4219C2.10817 10.4076 2.10192 10.3931 2.09566 10.3787C2.08979 10.3651 2.08393 10.3515 2.07812 10.3378C2.07193 10.3232 2.06579 10.3084 2.05967 10.2937C2.05394 10.2799 2.04822 10.2662 2.04256 10.2523C2.03652 10.2375 2.03056 10.2226 2.02459 10.2077C2.01896 10.1937 2.01331 10.1796 2.00774 10.1655C2.00183 10.1505 1.99601 10.1353 1.99016 10.1202C1.9847 10.106 1.9792 10.0919 1.97381 10.0777C1.96791 10.0621 1.96213 10.0464 1.95631 10.0308C1.95113 10.0168 1.9459 10.0029 1.94078 9.98892C1.93466 9.97215 1.92867 9.95525 1.92264 9.93839C1.91798 9.92534 1.91323 9.91236 1.90864 9.89925C1.90846 9.89873 1.90827 9.89822 1.90809 9.8977C1.90809 9.8977 1.9081 9.8977 1.90811 9.8977C1.9019 9.88003 1.89586 9.86224 1.88975 9.84448C1.66033 9.88355 1.42854 9.90922 1.19507 9.91943C1.19509 9.9195 1.19512 9.91958 1.19515 9.91965C1.24607 10.0692 1.30413 10.2136 1.36616 10.3424C1.3664 10.3429 1.36664 10.3435 1.36689 10.344C1.37882 10.3687 1.3909 10.3928 1.4031 10.4163C1.40382 10.4177 1.40453 10.4191 1.40524 10.4205C1.4171 10.4432 1.42908 10.4653 1.44115 10.4867C1.44224 10.4887 1.44332 10.4906 1.44441 10.4925C1.45624 10.5134 1.46818 10.5336 1.48018 10.5531C1.4815 10.5552 1.48279 10.5573 1.4841 10.5594C1.49594 10.5785 1.50786 10.5968 1.51983 10.6144C1.52132 10.6166 1.52281 10.6188 1.52431 10.621C1.53617 10.6382 1.54808 10.6546 1.56001 10.6702C1.56158 10.6723 1.56316 10.6743 1.56475 10.6764C1.57667 10.6918 1.58861 10.7063 1.60055 10.72C1.60212 10.7218 1.60368 10.7235 1.60525 10.7252C1.61722 10.7387 1.62921 10.7513 1.64119 10.7629C1.6427 10.7644 1.6442 10.7658 1.64572 10.7672C1.65779 10.7786 1.66985 10.7892 1.68187 10.7986C1.68319 10.7996 1.6845 10.8006 1.68582 10.8016C1.69804 10.8109 1.71023 10.8193 1.72235 10.8264C1.72338 10.827 1.72439 10.8275 1.72542 10.8281C1.73784 10.8352 1.75021 10.8412 1.76248 10.8458C1.76308 10.846 1.76367 10.8461 1.76426 10.8463C1.77697 10.851 1.78959 10.8543 1.80208 10.8561C1.96587 10.8795 2.11362 10.8485 2.28825 10.7832C2.28728 10.7814 2.28635 10.7796 2.28541 10.7778C2.27917 10.7659 2.27298 10.7539 2.2668 10.7419Z" fill="#B20E12"/>
<path d="M5.97985 9.20825C5.97808 9.20907 5.97628 9.20986 5.9745 9.21068C5.93246 9.23009 5.89031 9.2492 5.84807 9.2681C5.8417 9.27095 5.83534 9.27387 5.82895 9.27671C5.6845 9.34097 5.53859 9.4017 5.38994 9.45623C5.38796 9.45695 5.38601 9.45775 5.38403 9.45848L5.84018 10.823C5.84536 10.8209 5.85083 10.8188 5.85604 10.8167C5.85618 10.8166 5.85632 10.8166 5.85648 10.8165C5.88341 10.8057 5.91095 10.7948 5.93848 10.7838C5.93876 10.7837 5.93902 10.7836 5.9393 10.7835C5.96183 10.7746 5.98445 10.7656 6.00739 10.7566C6.00755 10.7565 6.00772 10.7565 6.00787 10.7564C6.03593 10.7454 6.06441 10.7343 6.09309 10.7232C6.09323 10.7232 6.09336 10.7231 6.09351 10.7231C6.11677 10.7141 6.14027 10.705 6.16396 10.6959C6.16402 10.6959 6.16407 10.6959 6.16412 10.6959C6.19392 10.6845 6.224 10.673 6.25449 10.6615C6.27835 10.6525 6.30259 10.6435 6.32688 10.6344C6.35814 10.6228 6.38951 10.6111 6.42149 10.5994C6.42852 10.5968 6.43522 10.5942 6.44228 10.5917L5.97985 9.20825Z" fill="#EA5242"/>
<path d="M6.47992 8.97046C6.31308 9.05025 6.14706 9.13078 5.97982 9.20806C5.97803 9.20889 5.97626 9.20972 5.97449 9.21054C5.97626 9.20972 5.97806 9.20894 5.97983 9.20812L6.44229 10.5915C6.43523 10.5941 6.42853 10.5966 6.4215 10.5992C6.47087 10.5811 6.52051 10.563 6.57163 10.5447C6.69606 10.5002 6.82575 10.4553 6.96114 10.41L6.47992 8.97046Z" fill="#D11625"/>
<path d="M5.8402 10.8228L5.38406 9.4583C5.38603 9.45758 5.38798 9.45678 5.38996 9.45605C5.38798 9.45678 5.38598 9.45744 5.38401 9.45816C5.20832 9.52237 5.02883 9.57803 4.84308 9.62014C3.87226 9.85082 2.88963 10.0067 1.90811 9.89768C1.90811 9.89768 1.9081 9.89768 1.90808 9.89768C1.90827 9.8982 1.90846 9.89871 1.90863 9.89923C1.91323 9.91233 1.91797 9.92532 1.92263 9.93837C1.92867 9.95523 1.93465 9.97213 1.94077 9.9889C1.94589 10.0029 1.95112 10.0168 1.9563 10.0308C1.96212 10.0464 1.9679 10.0621 1.9738 10.0776C1.97919 10.0919 1.9847 10.106 1.99015 10.1202C1.996 10.1353 2.00182 10.1505 2.00773 10.1655C2.0133 10.1796 2.01896 10.1936 2.02459 10.2077C2.03055 10.2226 2.03652 10.2375 2.04255 10.2523C2.04822 10.2662 2.05393 10.2799 2.05966 10.2937C2.06578 10.3084 2.07193 10.3231 2.07811 10.3378C2.08393 10.3515 2.08979 10.3651 2.09565 10.3787C2.10191 10.3931 2.10817 10.4075 2.11448 10.4219C2.12036 10.4353 2.12629 10.4485 2.13223 10.4618C2.13865 10.4761 2.1451 10.4904 2.1516 10.5046C2.15756 10.5176 2.16356 10.5306 2.16958 10.5435C2.17613 10.5576 2.1827 10.5715 2.18932 10.5854C2.19541 10.5982 2.20153 10.611 2.20766 10.6237C2.21428 10.6373 2.22096 10.6509 2.22765 10.6644C2.23384 10.6769 2.24004 10.6894 2.24629 10.7018C2.25308 10.7153 2.25993 10.7286 2.26679 10.7418C2.27298 10.7539 2.27916 10.7659 2.28539 10.7777C2.28633 10.7795 2.28727 10.7814 2.28823 10.7832C2.29433 10.7948 2.30051 10.8061 2.30667 10.8176C2.3128 10.829 2.3189 10.8404 2.32507 10.8517C2.33247 10.8651 2.33992 10.8783 2.34737 10.8916C2.35331 10.9022 2.35924 10.9129 2.36522 10.9233C2.37317 10.9372 2.38118 10.9507 2.38919 10.9643C2.39475 10.9737 2.40031 10.9833 2.40589 10.9927C2.41508 11.0079 2.42433 11.0228 2.43358 11.0377C2.43805 11.0449 2.4425 11.0524 2.44699 11.0595C2.46066 11.0812 2.47439 11.1024 2.48817 11.1232C2.49208 11.1291 2.49602 11.1347 2.49994 11.1405C2.50997 11.1554 2.51999 11.1703 2.53007 11.1847C2.53549 11.1924 2.54093 11.1998 2.54636 11.2074C2.55496 11.2194 2.56354 11.2315 2.57216 11.2431C2.57818 11.2512 2.58422 11.259 2.59026 11.2669C2.59836 11.2776 2.60647 11.2883 2.61461 11.2986C2.62087 11.3065 2.62715 11.3142 2.63344 11.3219C2.64137 11.3317 2.6493 11.3415 2.65727 11.3509C2.66369 11.3585 2.67013 11.3659 2.67656 11.3733C2.68442 11.3823 2.69228 11.3913 2.70014 11.4C2.70665 11.4071 2.71316 11.4141 2.71969 11.421C2.72754 11.4294 2.73537 11.4376 2.74323 11.4456C2.74976 11.4523 2.75631 11.4588 2.76286 11.4652C2.7707 11.4729 2.77857 11.4804 2.78642 11.4877C2.79299 11.4939 2.79955 11.4998 2.80613 11.5057C2.81399 11.5127 2.82185 11.5195 2.82972 11.5262C2.83629 11.5317 2.84286 11.5372 2.84943 11.5425C2.85732 11.5488 2.8652 11.5549 2.87308 11.5608C2.87964 11.5657 2.88619 11.5707 2.89275 11.5753C2.90069 11.581 2.90862 11.5863 2.91657 11.5916C2.92302 11.5958 2.92948 11.6001 2.93594 11.6041C2.94403 11.6092 2.95211 11.6137 2.96019 11.6183C2.9665 11.6219 2.97281 11.6255 2.97912 11.6288C2.98737 11.6332 2.99562 11.637 3.00386 11.6408C3.00999 11.6437 3.01611 11.6467 3.02223 11.6493C3.03082 11.6529 3.03939 11.656 3.04796 11.6591C3.0537 11.6612 3.05944 11.6635 3.06515 11.6654C3.07466 11.6684 3.08413 11.6708 3.09361 11.6731C3.09838 11.6743 3.10316 11.6759 3.10791 11.6769C3.12211 11.68 3.1363 11.6823 3.15044 11.6838C3.17957 11.6869 3.20847 11.6892 3.23722 11.6908C3.29473 11.6941 3.35157 11.6945 3.40817 11.6923C3.43647 11.6911 3.46472 11.6894 3.49294 11.6869C3.54939 11.682 3.60581 11.6746 3.6626 11.6647C3.691 11.6598 3.71949 11.6542 3.74812 11.6481C3.91989 11.6113 4.09681 11.5534 4.28991 11.4789C4.33014 11.4634 4.37135 11.4469 4.41307 11.43C4.41327 11.4299 4.41346 11.4298 4.41366 11.4297C4.4564 11.4124 4.50011 11.3943 4.54464 11.3755C4.55076 11.373 4.55682 11.3704 4.56298 11.3678C4.60808 11.3488 4.65379 11.3293 4.70093 11.309C4.73753 11.2932 4.77478 11.277 4.81273 11.2604C4.88864 11.2274 4.96736 11.1929 5.04932 11.1571C5.17224 11.1034 5.30243 11.0468 5.44126 10.9879C5.48753 10.9683 5.53477 10.9484 5.58302 10.9282C5.65186 10.8995 5.72368 10.8701 5.79693 10.8405C5.80503 10.8372 5.813 10.8339 5.82117 10.8306C5.83158 10.8264 5.84164 10.8223 5.85213 10.8181C5.85347 10.8175 5.85474 10.817 5.85607 10.8165C5.85085 10.8186 5.8454 10.8207 5.8402 10.8228Z" fill="#D11625"/>
<path d="M5.79915 13.4308C5.41025 12.6499 5.18127 11.6927 5.59577 10.9231C5.59158 10.9248 5.58715 10.9266 5.58298 10.9284C5.53473 10.9485 5.48749 10.9684 5.44122 10.988C5.30239 11.0469 5.1722 11.1035 5.04927 11.1572C4.96732 11.193 4.8886 11.2275 4.81269 11.2606C4.77474 11.2771 4.73748 11.2933 4.70089 11.3091C4.65374 11.3295 4.60803 11.3489 4.56293 11.368C4.5568 11.3706 4.55068 11.3731 4.5446 11.3757C4.50007 11.3944 4.45637 11.4125 4.41361 11.4299C4.41347 11.4299 4.41335 11.43 4.41321 11.43C4.48513 11.6641 4.56819 11.9458 4.65851 12.2525C4.67596 12.3118 4.6937 12.3721 4.71167 12.4331C4.72964 12.4941 4.74786 12.5558 4.76629 12.6182C4.78471 12.6806 4.80335 12.7435 4.82215 12.8069C4.83157 12.8386 4.84102 12.8704 4.85051 12.9023C4.8695 12.9661 4.88867 13.0302 4.90795 13.0945C4.92725 13.1588 4.94668 13.2233 4.96622 13.2878C4.97598 13.3201 4.98578 13.3524 4.99561 13.3846C5.01524 13.4491 5.03499 13.5135 5.05478 13.5776C5.07457 13.6418 5.09444 13.7057 5.11434 13.7693C5.13425 13.8328 5.15417 13.8959 5.17412 13.9585C5.20405 14.0523 5.23397 14.1449 5.26381 14.2356C5.28371 14.2961 5.30358 14.3557 5.32337 14.4144C5.33328 14.4438 5.34316 14.4729 5.35301 14.5017C5.39245 14.617 5.43158 14.728 5.47015 14.8335C5.48943 14.8862 5.50857 14.9375 5.52756 14.9873C5.54654 15.037 5.56535 15.0852 5.58396 15.1317C5.60258 15.1781 5.62098 15.2228 5.63918 15.2657C5.65737 15.3085 5.67534 15.3494 5.69305 15.3883C5.71075 15.4272 5.72821 15.464 5.74539 15.4985C5.83124 15.6713 5.90999 15.7884 5.978 15.8289C5.98597 15.8336 5.99472 15.8376 6.00383 15.8413C6.00631 15.8423 6.00889 15.8432 6.01147 15.8441C6.01921 15.8469 6.02728 15.8493 6.03573 15.8514C6.03772 15.8518 6.0396 15.8524 6.04163 15.8529C6.05197 15.8551 6.06287 15.8568 6.07418 15.8581C6.07697 15.8584 6.07989 15.8586 6.08272 15.8588C6.09202 15.8596 6.10161 15.8601 6.11151 15.8603C6.11471 15.8604 6.11786 15.8605 6.12112 15.8605C6.13369 15.8605 6.1466 15.8601 6.16002 15.8591C6.16201 15.859 6.16411 15.8587 6.16612 15.8586C6.17791 15.8576 6.19005 15.8563 6.20245 15.8547C6.20645 15.8542 6.21048 15.8536 6.21456 15.8531C6.22777 15.8511 6.24125 15.8489 6.25508 15.8463C6.25657 15.846 6.25799 15.8458 6.25949 15.8455C6.27483 15.8425 6.29062 15.839 6.30668 15.8352C6.31088 15.8342 6.31516 15.8331 6.31943 15.8321C6.33266 15.8288 6.34612 15.8253 6.3598 15.8214C6.3634 15.8204 6.36692 15.8195 6.37054 15.8185C6.38742 15.8136 6.40459 15.8084 6.42207 15.8029C6.42567 15.8017 6.42933 15.8005 6.43297 15.7993C6.44756 15.7945 6.46235 15.7895 6.47732 15.7843C6.4819 15.7826 6.48647 15.7811 6.49107 15.7794C6.50946 15.7728 6.52804 15.766 6.54693 15.7587C6.54756 15.7585 6.54821 15.7582 6.54884 15.758C6.5672 15.7509 6.58582 15.7434 6.6046 15.7357C6.6092 15.7338 6.61382 15.7319 6.61844 15.73C6.63623 15.7226 6.65417 15.715 6.67227 15.707C6.67407 15.7063 6.67581 15.7055 6.6776 15.7047C6.69785 15.6958 6.7183 15.6866 6.73889 15.6771C6.7427 15.6754 6.74651 15.6736 6.75032 15.6718C6.76822 15.6635 6.78621 15.6549 6.80431 15.6462C6.80757 15.6446 6.8108 15.6431 6.81406 15.6415C6.83538 15.6311 6.85681 15.6205 6.87836 15.6096C6.87961 15.609 6.88086 15.6083 6.8821 15.6077C6.90227 15.5975 6.92256 15.587 6.94287 15.5763C6.94639 15.5744 6.94988 15.5726 6.95339 15.5707C6.99703 15.5477 7.04093 15.5237 7.08487 15.4989C7.08748 15.4974 7.09009 15.4959 7.0927 15.4944C7.13777 15.4689 7.18286 15.4425 7.22771 15.4154C7.22815 15.4152 7.22856 15.4149 7.22898 15.4147C7.25135 15.4012 7.27364 15.3875 7.29584 15.3737C7.29677 15.3731 7.2977 15.3726 7.29862 15.372C7.34387 15.3438 7.38871 15.3151 7.43292 15.2859C7.4339 15.2852 7.43488 15.2846 7.43586 15.2839C7.48039 15.2545 7.52424 15.2247 7.56715 15.1946C7.56718 15.1946 7.56719 15.1946 7.56722 15.1946C7.67555 15.1187 7.77785 15.0413 7.86966 14.9655C7.86973 14.9654 7.86981 14.9654 7.86987 14.9653C7.00499 14.7885 6.24027 14.3271 5.79915 13.4308Z" fill="#B00E18"/>
<path d="M5.7373 11.8636L6.22069 13.3096C6.22069 13.3096 6.73182 13.1721 6.80848 13.0224C6.80848 13.0223 6.8085 13.0223 6.80852 13.0223C6.80771 13.0213 6.80696 13.0203 6.80615 13.0193C6.7715 12.9766 6.73887 12.9347 6.70773 12.893C6.68697 12.9332 6.65131 12.9658 6.60499 12.9813L6.33236 13.0725L5.96182 11.964L6.17147 11.8939C6.1512 11.8452 6.13048 11.7948 6.109 11.7418C6.10693 11.7367 6.10498 11.7319 6.10289 11.7268C6.05762 11.7442 5.7373 11.8636 5.7373 11.8636Z" fill="#A00F14"/>
</svg>
