<svg width="200" height="200" viewBox="0 0 200 200" fill="none" xmlns="http://www.w3.org/2000/svg">
<path d="M138.936 13.8917C140.187 11.1251 143.453 9.88286 146.146 11.284C157.64 17.2626 167.879 25.4265 176.279 35.3358C185.866 46.6449 192.819 59.9442 196.633 74.271C200.448 88.5978 201.029 103.594 198.335 118.173C195.974 130.947 191.15 143.121 184.151 154.024C182.511 156.579 179.06 157.125 176.599 155.347V155.347C174.138 153.568 173.6 150.14 175.223 147.574C181.277 138.001 185.458 127.345 187.523 116.174C189.921 103.198 189.403 89.8515 186.008 77.1C182.613 64.3486 176.425 52.5115 167.892 42.4459C160.546 33.7804 151.62 26.6145 141.608 21.3196C138.923 19.9002 137.685 16.6583 138.936 13.8917V13.8917Z" fill="#8E44AD"/>
</svg>
