<svg width="20" height="20" viewBox="0 0 20 20" fill="none" xmlns="http://www.w3.org/2000/svg">
<path d="M10 1.66675C5.40834 1.66675 1.66667 5.40841 1.66667 10.0001C1.66667 14.5917 5.40834 18.3334 10 18.3334C14.5917 18.3334 18.3333 14.5917 18.3333 10.0001C18.3333 5.40841 14.5917 1.66675 10 1.66675ZM13.625 12.9751C13.5083 13.1751 13.3 13.2834 13.0833 13.2834C12.975 13.2834 12.8667 13.2584 12.7667 13.1917L10.1833 11.6501C9.54167 11.2667 9.06667 10.4251 9.06667 9.68341V6.26675C9.06667 5.92508 9.35001 5.64175 9.69167 5.64175C10.0333 5.64175 10.3167 5.92508 10.3167 6.26675V9.68341C10.3167 9.98341 10.5667 10.4251 10.825 10.5751L13.4083 12.1167C13.7083 12.2917 13.8083 12.6751 13.625 12.9751Z" fill="#395CC6"/>
</svg>
