<svg width="16" height="16" viewBox="0 0 16 16" fill="none" xmlns="http://www.w3.org/2000/svg">
<path d="M10.7933 1.33325H5.20665C2.77998 1.33325 1.33331 2.77992 1.33331 5.20659V10.7866C1.33331 13.2199 2.77998 14.6666 5.20665 14.6666H10.7866C13.2133 14.6666 14.66 13.2199 14.66 10.7933V5.20659C14.6666 2.77992 13.22 1.33325 10.7933 1.33325ZM9.85998 8.35325L7.50665 10.7066C7.40665 10.8066 7.27998 10.8533 7.15331 10.8533C7.02665 10.8533 6.89998 10.8066 6.79998 10.7066C6.60665 10.5133 6.60665 10.1933 6.79998 9.99992L8.79998 7.99992L6.79998 5.99992C6.60665 5.80659 6.60665 5.48659 6.79998 5.29325C6.99331 5.09992 7.31331 5.09992 7.50665 5.29325L9.85998 7.64659C10.06 7.83992 10.06 8.15992 9.85998 8.35325Z" fill="#F3A218"/>
</svg>
