<svg width="20" height="20" viewBox="0 0 20 20" fill="none" xmlns="http://www.w3.org/2000/svg">
<path d="M10 1.66675C5.40835 1.66675 1.66669 5.40841 1.66669 10.0001C1.66669 14.5917 5.40835 18.3334 10 18.3334C14.5917 18.3334 18.3334 14.5917 18.3334 10.0001C18.3334 5.40841 14.5917 1.66675 10 1.66675ZM13.625 12.9751C13.5084 13.1751 13.3 13.2834 13.0834 13.2834C12.975 13.2834 12.8667 13.2584 12.7667 13.1917L10.1834 11.6501C9.54169 11.2667 9.06669 10.4251 9.06669 9.68341V6.26675C9.06669 5.92508 9.35002 5.64175 9.69169 5.64175C10.0334 5.64175 10.3167 5.92508 10.3167 6.26675V9.68341C10.3167 9.98341 10.5667 10.4251 10.825 10.5751L13.4084 12.1167C13.7084 12.2917 13.8084 12.6751 13.625 12.9751Z" fill="#395CC6"/>
</svg>
