<svg width="20" height="20" viewBox="0 0 20 20" fill="none" xmlns="http://www.w3.org/2000/svg">
<path fill-rule="evenodd" clip-rule="evenodd" d="M2 10C2 5.58172 5.58172 2 10 2C14.4183 2 18 5.58172 18 10C18 14.4183 14.4183 18 10 18C5.58172 18 2 14.4183 2 10ZM10.8571 5.14286C10.8571 4.66947 10.4734 4.28571 10 4.28571C9.52661 4.28571 9.14286 4.66947 9.14286 5.14286V10C9.14286 10.4734 9.52661 10.8571 10 10.8571H13.7143C14.1877 10.8571 14.5714 10.4734 14.5714 10C14.5714 9.52661 14.1877 9.14286 13.7143 9.14286H10.8571V5.14286Z" fill="#395CC6"/>
</svg>
