<svg width="127" height="88" viewBox="0 0 127 88" fill="none" xmlns="http://www.w3.org/2000/svg">
<g clip-path="url(#clip0_16431_36250)">
<path d="M29.6035 16.9963C27.3572 17.3234 22.7265 16.8194 21.6827 14.419C21.2364 13.3925 21.7114 11.5717 22.1545 10.5711C26.8291 0.0167358 50.6883 -1.51158 55.0866 9.58652C55.766 9.52808 56.6225 9.49233 57.2869 9.39041C67.7048 7.7922 78.1573 8.9248 87.8471 13.1527C89.1559 13.7239 90.7698 14.6822 92.0975 15.0809C92.8521 14.69 93.5559 14.1859 94.3525 13.8226C103.314 9.73683 113.833 16.6626 112.179 26.8084C112 27.9148 111.559 28.7854 111.381 29.9437C112.571 30.8736 115.575 36.1825 116.004 37.703C116.227 37.8288 117.108 37.6451 117.562 37.6515C119.714 37.6671 121.588 39.1276 122.128 41.2115C122.464 42.5049 122.268 43.8787 121.586 45.0275C120.966 46.086 120.194 46.734 119.007 47.0476C118.967 47.0583 118.969 47.0613 118.932 47.0861C119.115 48.0435 119.187 49.0823 119.299 50.0492C119.378 50.7289 119.31 51.9709 119.529 52.5385C120.978 51.6237 122.769 51.6112 123.741 53.2354C124.548 54.5843 123.97 56.3851 122.66 57.1795C121.877 57.6543 120.657 57.698 119.935 57.0855C119.857 57.0198 119.787 56.9351 119.692 56.9309C119.373 57.7905 118.663 61.9928 118.626 62.9213C120.543 64.1614 124.804 66.1068 124.004 69.2664C123.706 70.4419 122.18 71.7005 121.186 72.31C117.49 74.3662 113.331 75.5885 109.291 76.7693C109.067 76.8348 108.85 76.9195 108.619 76.9634L108.563 77.1194C109.044 77.765 108.994 78.2428 108.856 78.989C107.082 80.1645 105.453 80.8582 103.327 81.2347C101.457 81.5659 99.5457 81.6468 97.6534 81.7735C96.7502 81.834 95.7825 81.9614 94.8699 81.971C91.6876 81.6945 88.5758 81.4875 85.3901 81.8706C84.4584 81.9827 83.415 82.1305 82.4666 82.1861C79.7148 82.3474 76.9349 82.5148 74.1814 82.633C63.7472 83.0053 53.3013 82.8909 42.8778 82.29C40.8195 82.1572 38.7755 81.7867 36.7318 81.6752C33.9628 81.524 31.359 81.2129 28.6455 80.678C27.3326 80.4191 25.8252 80.4216 24.4971 80.1618C23.6831 80.0027 22.8773 79.8065 22.0665 79.6317C16.415 78.4656 8.70334 76.743 4.57575 72.4787C3.69767 71.5186 3.24585 70.2269 3.34364 68.9675C3.56945 66.0597 6.44758 65.1697 8.50079 63.7987C8.51157 63.7888 8.52235 63.7787 8.53313 63.7687C8.37634 63.3608 8.19913 62.4702 8.08848 62.0075C7.48294 59.4755 7.05837 56.8966 7.13504 54.2848C7.16226 53.3577 7.57172 51.6137 7.42469 50.8551C7.32825 50.3575 5.81746 48.8287 5.42946 48.2487C4.88983 47.4421 4.44656 46.8227 4.07683 45.8674C2.98212 43.0388 3.13002 39.2869 4.327 36.5117C5.38825 34.1106 7.77699 31.5655 10.2143 30.5444C11.2462 30.1121 13.4642 29.5935 14.5782 29.4186C15.5609 29.2641 17.4936 29.5554 18.4076 29.9488C20.513 27.0084 21.2278 26.3682 23.7188 23.8336C27.4508 20.0361 31.0242 17.4278 35.8785 15.1714C37.5153 14.4106 39.4165 13.7786 41.1099 13.1209C41.7935 12.8553 42.4617 12.7259 43.2362 12.4156C41.148 9.38036 35.5036 10.2129 32.8788 12.1223C31.0316 13.4658 30.5771 15.0449 29.6035 16.9963Z" fill="#203760"/>
<path d="M29.2674 17.0644C27.0211 17.3915 22.3905 16.8875 21.3466 14.4871C20.9003 13.4606 21.3753 11.6398 21.8184 10.6392C26.493 0.0848501 50.3522 -1.44346 54.7506 9.65464C55.4299 9.5962 56.2865 9.56045 56.9508 9.45853C67.3687 7.86031 77.8213 8.99292 87.511 13.2208C88.8198 13.792 90.4337 14.7503 91.7615 15.1491C92.516 14.7581 93.2198 14.254 94.0165 13.8908C102.978 9.80494 113.497 16.7307 111.843 26.8765C111.664 27.9829 111.223 28.8535 111.045 30.0118C112.235 30.9417 115.239 36.2506 115.668 37.7711C115.891 37.8969 116.772 37.7132 117.226 37.7196C119.378 37.7352 121.252 39.1957 121.792 41.2796C122.127 42.573 121.932 43.9468 121.25 45.0956C120.63 46.1541 119.858 46.8022 118.671 47.1157C118.631 47.1264 118.633 47.1294 118.595 47.1542C118.779 48.1117 118.851 49.1504 118.963 50.1173C119.042 50.797 118.974 52.039 119.193 52.6066C120.642 51.6918 122.433 51.6793 123.405 53.3035C124.212 54.6525 123.634 56.4532 122.324 57.2476C121.541 57.7224 120.321 57.7661 119.599 57.1536C119.521 57.0879 119.451 57.0032 119.356 56.999C119.037 57.8586 118.326 62.061 118.29 62.9894L118.235 63.1529C116.984 62.7999 115.699 62.2093 114.449 61.8098C112.783 61.2775 111.07 60.9239 109.462 60.2399C109.014 60.0496 108.811 60.1279 108.511 60.4876L108.413 60.414C108.851 58.5826 108.353 56.7782 107.216 55.2935C107.064 55.6506 106.985 55.7631 107.168 56.1608L107.129 56.2038C107.051 56.1137 106.614 55.3849 106.407 55.1231C105.396 53.8489 104.374 53.4027 102.761 53.4456L102.706 53.3789C102.984 53.3066 103.022 53.1479 103.256 53.0771C103.056 52.9641 102.663 53.0603 102.413 53.0957L102.349 53.009C101.549 53.161 100.189 53.5004 99.7132 54.2246C99.2449 54.9355 99.5302 55.459 99.855 56.1549C98.9011 55.4452 98.0203 55.0172 96.922 54.5525C96.3058 54.2915 96.1666 54.4335 95.6037 54.0315L95.5925 53.931C96.4193 53.7639 96.9031 53.9679 97.2065 53.1034C97.0655 52.9539 96.8464 52.8104 96.6384 52.7776C96.1589 53.3346 95.3416 52.9503 94.7031 52.7756C94.5467 52.645 94.2708 52.5956 94.0629 52.5388C94.2296 53.0241 94.294 53.3974 94.0371 53.8691L93.7543 53.7035C92.3673 53.587 91.373 53.6106 90.004 53.7L89.9662 52.4351C89.2822 51.8825 89.0596 51.2665 88.9676 50.3895C88.6333 47.2977 88.4176 44.1941 88.3205 41.0857C88.2595 39.4156 88.2629 37.7409 88.165 36.0762C88.1486 35.7943 88.0094 35.3897 87.7645 35.2615C87.2291 34.9813 84.2951 32.7706 83.8775 32.7198C82.1542 32.5101 80.0716 32.7107 78.3276 32.7124C78.2981 32.0247 78.2646 31.4813 78.1809 30.7994C77.3183 29.7015 76.5829 28.5866 75.0536 28.3845C73.2516 28.1465 71.2015 29.6214 71.0269 31.4676C70.9893 31.866 70.9917 32.2863 70.9958 32.6853C68.3687 32.758 65.5999 32.7006 62.9561 32.6904C59.3054 32.6776 55.6547 32.684 52.0041 32.7096C51.9123 31.2394 51.7614 30.4588 50.6009 29.383C48.5898 27.5185 45.5364 28.3634 44.6937 30.9384C44.5288 31.4423 44.5624 32.1077 44.5568 32.6457C42.9479 32.7863 40.5957 32.4921 39.0535 32.8332C38.4374 32.9695 36.9859 34.2208 37.0455 34.8766C36.8539 37.6194 36.4959 40.2975 36.1992 43.0223C36.1629 43.3549 36.5793 43.5957 36.815 43.743C36.4194 47.72 35.865 52.1292 34.9064 55.9924C34.7087 56.7896 34.5082 57.9496 34.16 58.6632C34.136 58.6649 34.1119 58.6667 34.0879 58.6685C33.7682 58.6313 33.8078 58.4654 33.422 58.4892C30.6243 58.6615 28.0813 59.0719 25.338 59.5611C22.3768 60.0892 19.4939 60.643 16.5813 61.328C15.5578 61.5687 8.51303 63.9398 8.19707 63.8369C8.04028 63.4289 7.86306 62.5383 7.75242 62.0757C7.14688 59.5436 6.7223 56.9647 6.79898 54.3529C6.82619 53.4258 7.23566 51.6819 7.08863 50.9232C6.99218 50.4256 5.48139 48.8968 5.09339 48.3168C4.55377 47.5102 4.1105 46.8908 3.74076 45.9355C2.64606 43.1069 2.79395 39.355 3.99094 36.5798C5.05219 34.1787 7.44092 31.6336 9.87823 30.6126C10.9102 30.1802 13.1281 29.6617 14.2421 29.4867C15.2248 29.3323 17.1576 29.6235 18.0715 30.0169C20.1769 27.0765 20.8917 26.4363 23.3827 23.9017C27.1147 20.1042 30.6882 17.4959 35.5424 15.2395C37.1792 14.4787 39.0805 13.8467 40.7738 13.189C41.4574 12.9234 42.1256 12.794 42.9001 12.4837C40.8119 9.44847 35.1675 10.281 32.5427 12.1904C30.6956 13.5339 30.241 15.113 29.2674 17.0644Z" fill="#EFF3F6"/>
<path d="M116.004 37.703C116.227 37.8288 117.108 37.6452 117.562 37.6515C119.714 37.6672 121.588 39.1277 122.128 41.2116C122.464 42.5049 122.268 43.8787 121.586 45.0275C120.966 46.086 120.194 46.7341 119.007 47.0477C118.967 47.0583 118.969 47.0613 118.931 47.0862C117.489 47.7074 116.181 47.4408 114.855 46.6866C111.615 44.8414 111.809 39.7606 115.217 38.2122C115.509 38.0798 115.866 37.9945 116.004 37.703Z" fill="#B8D9F0"/>
<path d="M119.529 52.5387C120.978 51.6239 122.769 51.6114 123.741 53.2356C124.548 54.5845 123.97 56.3853 122.66 57.1797C121.877 57.6545 120.657 57.6982 119.935 57.0857C119.857 57.02 119.787 56.9353 119.692 56.9311C119.099 56.4001 118.822 56.2497 118.692 55.3347C118.598 54.6828 118.856 54.1536 119.01 53.5483C119.139 53.0386 119.337 52.9505 119.529 52.5387Z" fill="#B8D9F0"/>
<path d="M93.4579 50.9821C94.1755 50.975 96.0549 51.2793 96.7811 51.4384L97.3835 52.0204C97.5735 52.3831 97.5442 52.6305 97.5425 53.0354C97.4016 52.8858 97.1824 52.7423 96.9745 52.7095C96.4949 53.2665 95.6777 52.8822 95.0392 52.7075C94.8828 52.577 94.6069 52.5276 94.3989 52.4707C94.5656 52.956 94.6301 53.3294 94.3732 53.801L94.0904 53.6354C93.555 52.805 91.7409 53.4318 92.7919 51.3158C92.8933 51.1117 93.256 51.0359 93.4579 50.9821Z" fill="#203760"/>
<path d="M93.4914 51.6382C94.1927 51.6689 96.2689 51.8689 96.8301 52.1932C96.9805 52.4218 96.9435 52.3172 96.965 52.593L96.9745 52.7094C96.4949 53.2664 95.6777 52.8821 95.0391 52.7074C94.8827 52.5769 94.6069 52.5275 94.3989 52.4707C94.0285 52.4018 93.6194 52.446 93.3848 52.2342C93.3127 51.9051 93.3367 51.9983 93.4914 51.6382Z" fill="#B8D9F0"/>
<path d="M102.685 52.9409C104.476 52.3129 106.563 53.8079 107.552 55.2253C107.4 55.5825 107.321 55.695 107.504 56.0926L107.465 56.1357C107.387 56.0455 106.95 55.3168 106.743 55.055C105.732 53.7807 104.71 53.3345 103.097 53.3775L103.042 53.3107C103.32 53.2385 103.358 53.0798 103.592 53.0089C103.392 52.896 102.999 52.9922 102.749 53.0276L102.685 52.9409Z" fill="#03050D"/>
<path d="M21.4838 40.2911C22.3474 40.1885 23.1357 40.7921 23.262 41.6525C23.3884 42.513 22.8067 43.3176 21.95 43.4675C21.3746 43.5682 20.7898 43.3485 20.4231 42.8936C20.0564 42.4388 19.9657 41.8207 20.1862 41.2797C20.4067 40.7386 20.9037 40.3601 21.4838 40.2911Z" fill="#B8D9F0"/>
<path d="M26.1541 40.3865C26.986 40.1332 27.8667 40.5977 28.1274 41.4273C28.3881 42.2569 27.9316 43.1418 27.1043 43.41C26.2665 43.6815 25.368 43.2179 25.1039 42.3776C24.8398 41.5374 25.3115 40.643 26.1541 40.3865Z" fill="#B8D9F0"/>
<path d="M16.2831 40.3208C18.3199 40.2487 19.2343 42.202 17.4467 43.3382C16.1927 43.5091 15.0735 43.2239 15.2658 41.5335C15.3255 41.0089 15.8396 40.5851 16.2831 40.3208Z" fill="#B8D9F0"/>
<path d="M8.53313 63.7689C8.84909 63.8719 15.8938 61.5008 16.9173 61.26C19.83 60.575 22.7129 60.0213 25.6741 59.4932C28.4173 59.0039 30.9604 58.5936 33.7581 58.4213C34.1439 58.3975 34.1042 58.5633 34.4239 58.6005C34.448 58.5987 34.472 58.5969 34.496 58.5952C33.847 60.7776 33.2649 62.6563 32.3773 64.7766C31.8317 66.08 31.0284 67.2812 30.5093 68.4717C30.9736 68.7629 33.9053 69.2504 34.5477 69.3151C34.5524 70.866 34.435 72.4019 34.3558 73.9493C34.2978 75.0813 34.1291 75.3645 35.0893 76.0772L64.6852 76.079C69.5836 76.0742 74.9589 75.9505 79.8222 76.0825C79.826 76.6871 79.8198 76.5877 80.0366 77.0978C81.0666 79.5204 83.7058 76.7301 84.9052 77.1543C86.2744 78.0134 87.7508 78.8489 89.3183 79.2786C92.3021 80.0969 95.5324 80.114 98.4887 79.1664C99.3979 79.8696 100.189 80.7879 101.468 80.6493C103.279 80.4532 102.455 77.7889 102.322 76.6556C103.403 75.602 104.005 74.8615 104.898 73.6595C104.706 74.2484 104.579 74.537 104.148 74.9831C104.98 75.3368 105.805 75.689 106.63 76.0583C107.23 76.3269 108.001 76.8084 108.619 76.9636L108.563 77.1196C109.044 77.7652 108.994 78.243 108.856 78.9892C107.082 80.1647 105.453 80.8583 103.327 81.2348C101.457 81.566 99.5457 81.647 97.6534 81.7737C96.7502 81.8342 95.7825 81.9616 94.8699 81.9712C91.6876 81.6947 88.5758 81.4877 85.3901 81.8708C84.4584 81.9828 83.415 82.1307 82.4666 82.1863C79.7148 82.3476 76.9349 82.515 74.1814 82.6331C63.7472 83.0055 53.3013 82.891 42.8778 82.2902C40.8195 82.1574 38.7755 81.7869 36.7318 81.6754C33.9628 81.5242 31.359 81.2131 28.6455 80.6781C27.3326 80.4193 25.8252 80.4218 24.4971 80.162C23.6831 80.0028 22.8773 79.8066 22.0665 79.6319C16.415 78.4658 8.70334 76.7431 4.57575 72.4788C3.69767 71.5187 3.24585 70.2271 3.34364 68.9677C3.56945 66.0598 6.44758 65.1699 8.50079 63.7989C8.51157 63.7889 8.52235 63.7789 8.53313 63.7689Z" fill="#B8D9F0"/>
<path d="M80.7373 78.4312C79.9598 78.4423 78.5026 78.6245 77.6571 78.6851C75.6136 78.8266 73.5672 78.9224 71.5194 78.9723C60.1347 79.2425 48.8605 79.3041 37.5113 78.4631C32.1213 78.0637 26.8534 77.8429 21.5424 76.567C19.6828 76.1203 16.1078 75.1251 18.6813 72.6613C21.287 70.3309 25.265 69.711 28.5533 68.9148C28.8819 68.8352 30.3723 68.559 30.5092 68.4717C30.9736 68.7628 33.9052 69.2504 34.5476 69.3151C34.5524 70.8659 34.435 72.4019 34.3557 73.9493C34.2977 75.0812 34.129 75.3645 35.0893 76.0771L64.6851 76.079C69.5836 76.0741 74.9589 75.9505 79.8222 76.0825C79.8259 76.687 79.8198 76.5876 80.0366 77.0977C81.0665 79.5203 83.7058 76.73 84.9051 77.1542C83.6239 77.4477 82.6132 78.0795 81.3213 78.3457C81.3213 78.3457 81.1367 78.5392 81.1185 78.5583L81.1558 78.7132C82.1095 79.8024 84.8781 80.7362 86.2709 81.0496C86.4643 81.0931 86.6645 81.18 86.753 81.3453L86.6379 81.3974C86.3036 81.1841 85.9658 81.0493 85.5843 80.9499C83.7036 80.46 82.1013 79.8932 80.7373 78.4312Z" fill="#B8D9F0"/>
<path d="M108.749 60.3459L108.847 60.4196C109.147 60.0598 109.35 59.9815 109.798 60.1719C111.406 60.8559 113.12 61.2094 114.785 61.7417C116.035 62.1412 117.32 62.7319 118.571 63.0848L118.626 62.9214C120.543 64.1614 124.804 66.1068 124.003 69.2665C123.706 70.4419 122.18 71.7006 121.186 72.31C117.49 74.3663 113.331 75.5886 109.291 76.7693C109.067 76.8348 108.85 76.9196 108.619 76.9635C108.001 76.8083 107.23 76.3268 106.63 76.0582C105.805 75.6888 104.98 75.3367 104.148 74.983C104.579 74.5369 104.706 74.2483 104.898 73.6593C104.956 73.4886 105.494 72.5631 105.614 72.3099C105.928 71.6454 106.072 71.0847 106.284 70.4084C107.333 67.0593 106.572 65.1111 105.548 61.9675C107.516 62.3587 107.812 62.0081 108.749 60.3459Z" fill="#B8D9F0"/>
<path d="M103.097 53.3773C104.71 53.3343 105.732 53.7805 106.743 55.0548C106.95 55.3166 107.387 56.0453 107.465 56.1355C108.096 57.4168 108.251 57.8431 107.865 59.2648C106.922 59.9881 106.548 60.0654 105.879 60.5374C105.67 60.2961 104.615 59.2992 104.292 58.9758C102.947 57.6287 102.098 56.4675 100.946 55.051C100.739 54.7936 100.769 54.9018 100.757 54.6266C101.119 54.0636 102.444 53.6148 103.097 53.3773Z" fill="#3072CB"/>
<path d="M103.097 53.3773C104.71 53.3343 105.732 53.7805 106.743 55.0548L106.542 55.2016C105.954 55.3265 105.338 54.7064 104.792 54.4631C103.711 53.9802 102.014 54.6866 100.946 55.051C100.739 54.7936 100.769 54.9018 100.757 54.6266C101.119 54.0636 102.444 53.6148 103.097 53.3773Z" fill="#88B3D7"/>
<path d="M105.879 60.5377C106.548 60.0657 106.922 59.9884 107.865 59.2651C107.959 59.7452 107.907 59.9667 107.838 60.4414C107.177 61.0346 106.572 61.5086 105.879 60.5377Z" fill="#203760"/>
<path d="M94.3989 52.4707C94.6069 52.5275 94.8827 52.5769 95.0392 52.7075C95.0795 53.039 95.1474 53.412 95.0778 53.733C94.8149 54.01 94.722 53.9247 94.3731 53.8009C94.6301 53.3293 94.5656 52.956 94.3989 52.4707Z" fill="#5A7292"/>
<path d="M38.418 43.7412C43.5378 43.8715 48.5848 43.7932 53.696 43.8249C63.2276 43.8841 72.7488 43.9689 82.2808 43.7537C82.5544 43.7475 82.96 43.7586 83.1789 43.9109L83.1878 44.2372L83.1138 44.5762C83.2243 45.3611 83.0839 49.1949 83.0773 50.2596L83.0214 50.3102C82.6224 50.6685 82.2154 50.8898 81.8038 51.2252C80.5857 52.2178 79.5212 53.6886 79.4155 55.3011C79.3611 56.132 79.5897 56.7174 79.9635 57.429C80.925 57.8609 81.2732 57.8378 82.3232 57.8382C79.8403 60.6891 78.9969 63.138 78.8109 66.8572C78.8358 67.0851 78.8734 68.0192 78.9414 68.1169C79.1247 68.8841 79.3605 69.5013 79.6308 70.237C79.6743 70.5339 79.6866 70.8464 79.7047 71.1473C80.128 71.664 80.456 72.0894 80.7402 72.7043C80.8308 72.8599 80.9296 73.064 81.0656 73.1718C81.2272 73.6052 80.7008 74.4442 80.4906 74.8409C79.1431 74.8278 77.7956 74.8238 76.448 74.8286C76.1068 74.8297 74.6957 74.8562 74.442 74.8194C71.6499 74.9419 68.3212 74.8011 65.4908 74.8088L45.4451 74.8606L39.2258 74.8398C38.1772 74.8401 36.7622 74.815 35.7532 74.9098C35.8386 74.3509 35.7824 73.7455 35.8746 73.1367L36.0158 73.0333C36.0007 72.9997 35.9979 72.8988 35.9944 72.8556C36.4633 72.665 37.1431 72.9776 37.7845 72.707C37.1574 72.6835 36.5299 72.6692 35.9024 72.6644C35.9078 71.8166 35.9734 70.9006 36.0142 70.046C36.001 69.8148 36.0938 69.1858 36.1253 68.9269L36.2658 68.5395C35.1295 68.4287 33.4843 68.2508 32.4009 68.0061C35.7782 61.603 38.0916 51.8201 38.3509 44.6033L38.418 43.7412Z" fill="#EFF3F6"/>
<path d="M36.1253 68.9268C37.1765 69.1633 39.1828 69.4253 40.2802 69.4386C41.4977 69.6711 42.7677 69.5637 43.9888 69.7068C46.6655 70.0206 49.2882 70.4674 51.9916 70.5138C52.5668 70.5236 53.1467 70.626 53.7212 70.6383C54.1722 70.6305 55.0057 70.5337 55.4959 70.4965L55.5191 70.4418L55.1197 70.3035C61.0574 70.6702 67.0069 70.8108 72.9553 70.725C73.9238 70.7163 78.0721 70.6674 78.8332 70.5106C79.121 70.4995 79.2369 70.501 79.5187 70.4287L79.6308 70.2369C79.6743 70.5338 79.6866 70.8463 79.7047 71.1471C80.128 71.6639 80.456 72.0893 80.7402 72.7041C80.8307 72.8598 80.9296 73.0639 81.0656 73.1716C81.2272 73.605 80.7008 74.444 80.4906 74.8407C79.1431 74.8277 77.7956 74.8236 76.448 74.8284C76.1068 74.8295 74.6957 74.856 74.442 74.8192C71.6499 74.9418 68.3212 74.8009 65.4908 74.8087L45.4451 74.8605L39.2258 74.8396C38.1772 74.8399 36.7622 74.8148 35.7532 74.9096C35.8386 74.3508 35.7824 73.7454 35.8746 73.1366L36.0158 73.0331C36.0007 72.9995 35.9979 72.8986 35.9944 72.8555C36.4633 72.6649 37.143 72.9774 37.7845 72.7069C37.1574 72.6833 36.5299 72.6691 35.9024 72.6643C35.9078 71.8165 35.9734 70.9005 36.0142 70.0458C36.001 69.8147 36.0937 69.1856 36.1253 68.9268Z" fill="#7F8B9A"/>
<path d="M80.7402 72.7041C80.8307 72.8598 80.9296 73.0639 81.0656 73.1716C81.2272 73.605 80.7008 74.444 80.4906 74.8407C79.1431 74.8276 77.7956 74.8236 76.448 74.8284C76.1068 74.8295 74.6957 74.856 74.442 74.8192C71.6499 74.9418 68.3212 74.8009 65.4908 74.8087L45.4451 74.8605L39.2258 74.8396C38.1772 74.8399 36.7622 74.8148 35.7532 74.9096C35.8386 74.3508 35.7824 73.7454 35.8746 73.1366L36.0158 73.0331C36.0007 72.9995 35.9979 72.8986 35.9944 72.8555C36.4633 72.6649 37.143 72.9774 37.7845 72.7069C38.2574 72.6521 39.5231 72.681 40.0272 72.6833C41.3086 72.69 42.5901 72.6903 43.8716 72.6839L56.2833 72.6299C57.8151 72.7755 59.9809 72.6847 61.5724 72.7046C65.9962 72.7665 70.4205 72.7741 74.8445 72.7274L78.4652 72.6912C79.1262 72.6811 80.1284 72.6236 80.7402 72.7041Z" fill="#5A7292"/>
<path d="M80.7401 72.7041C80.8307 72.8598 80.9296 73.0639 81.0656 73.1716C80.753 73.1231 80.1475 73.1283 79.81 73.1218C77.9617 73.0085 75.5932 73.0614 73.7204 73.0594C70.1104 73.0419 66.5003 73.0532 62.8905 73.0934L51.1824 73.0714C46.1268 73.0915 41.0712 73.0788 36.0158 73.0331C36.0007 72.9995 35.9979 72.8986 35.9944 72.8555C36.4633 72.6649 37.143 72.9774 37.7845 72.7069C38.2574 72.6521 39.5231 72.681 40.0272 72.6833C41.3086 72.69 42.5901 72.6903 43.8716 72.6839L56.2833 72.6299C57.8151 72.7755 59.9809 72.6847 61.5724 72.7046C65.9962 72.7665 70.4205 72.7741 74.8445 72.7274L78.4652 72.6912C79.1262 72.6811 80.1284 72.6236 80.7401 72.7041Z" fill="#203760"/>
<path d="M79.8101 73.1221C80.1476 73.1286 80.7531 73.1234 81.0657 73.1719C81.2272 73.6053 80.7008 74.4443 80.4906 74.841C79.1431 74.8279 77.7956 74.8239 76.4481 74.8287C76.1068 74.8298 74.6957 74.8563 74.442 74.8195C74.6652 74.6633 79.4098 74.7455 80.039 74.7496C79.9807 74.2047 79.9043 73.6619 79.8101 73.1221Z" fill="#425474"/>
<path d="M36.0141 70.0459C36.3575 70.0783 36.6692 70.156 37.0041 70.1991C39.8424 70.565 42.6705 70.8558 45.5106 71.225C48.685 71.6376 51.9886 71.6705 55.1892 71.8819C57.189 72.014 58.9713 71.9907 60.9722 72.3128C60.606 72.4212 57.4391 72.0452 56.7207 72.0859L56.7459 72.202C56.9667 72.2697 57.2924 72.3376 57.4189 72.5133C57.904 72.5056 60.7592 72.4592 60.9168 72.5999C59.9568 72.5896 57.1323 72.5279 56.2833 72.63L43.8716 72.684C42.5901 72.6904 41.3086 72.6901 40.0272 72.6834C39.5231 72.6811 38.2574 72.6521 37.7845 72.707C37.1574 72.6834 36.5299 72.6691 35.9023 72.6643C35.9078 71.8166 35.9734 70.9005 36.0141 70.0459Z" fill="#88B3D7"/>
<path d="M38.418 43.7412C43.5377 43.8715 48.5848 43.7932 53.696 43.8249C63.2276 43.8841 72.7487 43.9689 82.2808 43.7537C82.5544 43.7475 82.9599 43.7586 83.1789 43.9109L83.1877 44.2372L83.1138 44.5762C81.6402 44.5017 80.164 44.5763 78.689 44.5672C75.0901 44.545 71.4905 44.538 67.892 44.4772C66.8122 44.459 65.739 44.2859 64.658 44.3009C63.3122 44.3192 61.9714 44.4511 60.6258 44.4799C57.2448 44.525 53.8636 44.5518 50.4823 44.5605C49.112 44.5634 38.8211 44.448 38.3509 44.6033L38.418 43.7412Z" fill="#CCC8CB"/>
<path d="M40.6246 69.1504C43.9912 69.357 47.4263 69.743 50.8078 69.9356C52.2219 70.0161 53.6879 70.2422 55.1197 70.3035L55.5192 70.4419L55.496 70.4965C55.0057 70.5337 54.1722 70.6305 53.7213 70.6383C53.1467 70.626 52.5668 70.5237 51.9916 70.5138C49.2882 70.4675 46.6655 70.0206 43.9888 69.7068C42.7677 69.5637 41.4977 69.6711 40.2802 69.4386L41.0605 69.3767L41.0324 69.3006L40.6246 69.1504Z" fill="#425474"/>
<path d="M36.2658 68.5396C37.2287 68.6553 39.8147 68.9218 40.6246 69.1506L41.0324 69.3008L41.0605 69.3768L40.2802 69.4388C39.1828 69.4255 37.1765 69.1635 36.1253 68.927L36.2658 68.5396Z" fill="#203760"/>
<path d="M78.9414 68.1172C79.1247 68.8844 79.3605 69.5016 79.6308 70.2373L79.5187 70.4291C79.2369 70.5014 79.121 70.4999 78.8332 70.511C78.8024 69.7283 78.6887 68.9913 78.5751 68.2172L78.9414 68.1172Z" fill="#EFF3F6"/>
<path d="M78.8109 66.8574C78.8358 67.0853 78.8734 68.0194 78.9414 68.1172L78.5751 68.2172C78.1567 68.0892 76.749 68.2202 75.8116 68.0272C76.3659 67.9909 78.1723 67.9329 78.6996 67.703C78.7822 67.667 78.7979 67.033 78.8109 66.8574Z" fill="#CCC8CB"/>
<path d="M49.582 56.702C49.8291 56.3992 50.0126 56.3415 50.3705 56.1743L50.5407 56.5445C50.906 56.8066 51.4389 57.279 51.6712 57.6695C51.9417 57.7207 52.0413 57.741 52.3206 57.7421L52.3949 57.7634C51.8781 59.8212 52.7837 62.1087 51.8714 63.9661C51.7557 64.2017 51.3055 64.6789 51.1065 64.8934C49.8252 65.3309 48.7183 65.2912 47.7093 64.2671C46.7363 63.6498 46.8624 62.0858 46.9665 61.1004L47.071 60.6787C44.7195 60.5411 45.6956 56.3984 48.2847 58.5052L48.6021 58.1301C48.7675 57.8329 49.3176 57.1336 49.582 56.702Z" fill="#B8D9F0"/>
<path d="M49.582 56.7017L49.8494 56.689C49.8279 56.8734 49.8087 57.0596 49.7793 57.2427L49.9815 57.5107C49.1979 58.5906 47.9165 60.8925 48.0349 62.3151C48.0896 62.9738 48.6865 63.9745 48.6488 64.1846L48.56 64.2683C48.0704 63.9708 47.8688 63.6351 47.5304 63.1809L47.3725 63.1601C47.3182 63.0648 47.2436 62.9555 47.2198 62.8545C46.9754 63.4059 47.7025 63.8103 47.7093 64.2668C46.7363 63.6496 46.8624 62.0855 46.9665 61.1001L47.071 60.6784C44.7195 60.5409 45.6956 56.3981 48.2847 58.5049L48.6021 58.1298C48.7675 57.8326 49.3176 57.1333 49.582 56.7017Z" fill="#EFF3F6"/>
<path d="M47.071 60.6785C44.7195 60.5409 45.6956 56.3981 48.2847 58.5049C47.8811 59.1562 47.3236 59.9767 47.071 60.6785Z" fill="#F8CFCC"/>
<path d="M49.582 56.7017L49.8493 56.689C49.8278 56.8734 49.8087 57.0596 49.7793 57.2427C49.5717 57.5234 49.2576 57.9216 49.0779 58.2062C48.3683 59.2053 47.6033 60.3406 47.3582 61.5694C47.213 62.3693 47.2437 62.4616 47.5304 63.1809L47.3724 63.1601C47.3182 63.0648 47.2435 62.9555 47.2197 62.8545C46.9753 63.4059 47.7024 63.8103 47.7093 64.2668C46.7362 63.6496 46.8624 62.0855 46.9665 61.1001L47.071 60.6784C47.3235 59.9767 47.8811 59.1561 48.2847 58.5049L48.602 58.1298C48.7675 57.8326 49.3175 57.1333 49.582 56.7017Z" fill="#B8D9F0"/>
<path d="M51.6712 57.6694C51.9417 57.7206 52.0413 57.7409 52.3206 57.742L52.3949 57.7633C51.8781 59.8211 52.7837 62.1086 51.8714 63.966C51.7557 64.2016 51.3055 64.6788 51.1065 64.8933C49.8252 65.3308 48.7183 65.2911 47.7093 64.267C47.7025 63.8105 46.9753 63.4061 47.2198 62.8546C47.2436 62.9557 47.3182 63.0649 47.3725 63.1602L47.5304 63.1811C47.8688 63.6353 48.0704 63.971 48.56 64.2685C48.989 64.5602 50.5917 64.3843 50.9378 63.9184C51.1845 63.5862 51.4664 63.2634 51.5159 62.827C51.7074 61.141 51.6545 59.3723 51.6712 57.6694Z" fill="#B8D9F0"/>
<path d="M70.7192 56.0527C71.2703 56.6071 72.2543 57.8026 72.7061 58.4611C73.9087 57.5553 74.732 59.5097 73.7806 60.2727C75.5231 63.2087 72.3454 66.6518 69.6267 64.518C68.4202 63.5709 68.7373 59.5872 68.7441 57.9259C68.8284 57.9434 68.895 57.9651 68.9677 58.0113L69.1061 57.9333C69.8778 57.6063 70.1305 57.1325 70.5964 56.4637C70.6055 56.3582 70.6741 56.236 70.7204 56.1324L70.7192 56.0527Z" fill="#B8D9F0"/>
<path d="M70.7192 56.0527C71.2703 56.6071 72.2543 57.8026 72.7061 58.4611C73.9087 57.5553 74.732 59.5097 73.7806 60.2727C75.5231 63.2087 72.3454 66.6518 69.6267 64.518C68.4202 63.5709 68.7373 59.5872 68.7441 57.9259C68.8284 57.9434 68.895 57.9651 68.9677 58.0113L69.1061 57.9333C69.0576 58.5631 69.2615 59.1351 69.2586 59.7164C69.2489 61.7101 69.2948 65.4517 72.4351 64.353L72.3668 64.2791C72.306 64.0096 73.0848 62.4826 72.9371 61.505C72.8007 60.6023 71.3194 58.0195 71.4637 57.5649C71.4525 57.5308 71.4404 57.4968 71.4276 57.4631C71.2761 57.0679 70.9961 56.6373 70.5964 56.4637C70.6055 56.3582 70.6741 56.236 70.7204 56.1324L70.7192 56.0527Z" fill="#B8D9F0"/>
<path d="M71.4637 57.5649C72.0436 58.2533 72.6119 59.1417 73.111 59.902C73.6111 60.9127 73.937 62.0908 73.5613 63.2035C73.4877 63.4152 73.4082 63.6248 73.3227 63.832C73.0002 64.0562 72.806 64.2052 72.4351 64.3531L72.3669 64.2792C72.306 64.0097 73.0848 62.4826 72.9371 61.505C72.8008 60.6023 71.3195 58.0196 71.4637 57.5649Z" fill="#EFF3F6"/>
<path d="M72.7061 58.4613C73.9087 57.5555 74.732 59.5099 73.7806 60.273L73.3933 59.6499C73.1754 59.2373 72.9463 58.8602 72.7061 58.4613Z" fill="#F8CFCC"/>
<path d="M59.2544 58.7157C61.8932 58.3956 64.6338 59.3954 66.2512 61.5676C66.328 61.6708 66.3393 61.7976 66.2894 61.9108C65.6368 63.3922 64.7628 61.694 64.0592 61.2688C63.3567 60.8422 62.6572 60.5936 61.9416 60.3207C57.6302 59.0544 55.9855 62.5197 54.8358 62.1003C53.4556 60.4705 58.2073 58.895 59.2544 58.7157Z" fill="#203760"/>
<path d="M68.4065 57.9241C67.2351 57.3956 66.8037 56.0519 66.9266 54.8686C67.1158 53.0456 68.8451 51.3446 70.2749 53.3064C70.9377 54.2159 70.8728 55.0122 70.7192 56.053L70.7204 56.1327C70.6741 56.2363 70.6055 56.3585 70.5964 56.464C70.1305 57.1328 69.8778 57.6066 69.1061 57.9336L68.9677 58.0116C68.895 57.9654 68.8284 57.9437 68.7441 57.9262L68.4065 57.9241Z" fill="#203760"/>
<path d="M68.4065 57.924L68.6548 57.8243C68.8912 57.2734 68.3302 56.6935 68.3318 56.2052C68.8001 55.9154 70.088 56.1958 70.7203 56.1326C70.6741 56.2362 70.6055 56.3584 70.5964 56.4639C70.1305 57.1327 69.8778 57.6065 69.1061 57.9335L68.9677 58.0115C68.895 57.9653 68.8283 57.9436 68.7441 57.9261L68.4065 57.924Z" fill="#88B3D7"/>
<path d="M50.3914 55.837C50.242 54.8895 50.2853 53.9058 50.8365 53.0995C51.3462 52.3538 52.4468 52.0759 53.1491 52.694C54.738 54.0924 54.2647 55.9502 53.4045 57.4944C53.1306 57.5796 52.6627 57.7427 52.3949 57.7633L52.3205 57.742C52.0412 57.7409 51.9416 57.7206 51.6712 57.6695C51.4389 57.2789 50.9059 56.8065 50.5407 56.5444L50.3704 56.1742L50.3914 55.837Z" fill="#203760"/>
<path d="M50.3914 55.8369C50.8171 56.4804 52.1409 55.6908 52.7784 56.2294C52.6709 56.7416 52.1227 57.1839 52.3206 57.7419C52.0413 57.7408 51.9417 57.7205 51.6712 57.6694C51.4389 57.2788 50.906 56.8064 50.5407 56.5444L50.3705 56.1741L50.3914 55.8369Z" fill="#88B3D7"/>
<path d="M53.7168 49.3018C53.9958 49.3776 54.1162 49.5127 54.2139 49.7602C54.094 50.5896 52.3443 51.7626 51.5794 51.9546L51.5166 51.97C50.943 52.1136 50.1769 52.1037 49.5714 52.1152C49.2538 51.9655 49.1362 51.8277 49.0869 51.4771C49.402 50.8558 50.5008 51.1168 51.3441 50.7137C52.2965 50.2584 52.8517 49.8768 53.7168 49.3018Z" fill="#203760"/>
<path d="M67.4015 49.3608C68.1046 49.5927 69.1219 50.5561 69.9403 50.8397C70.5836 51.0627 72.0084 50.9766 72.115 51.6506C72.0303 51.9217 72.0187 51.9574 71.8048 52.1416C70.5614 52.4188 68.8853 51.8965 67.9247 51.0936C67.2868 50.5604 66.7607 50.0956 67.4015 49.3608Z" fill="#203760"/>
<path d="M41.585 65.8358C40.7634 65.8351 36.4948 65.4653 35.9993 65.0369C36.5028 64.7399 41.5608 65.5888 42.5974 65.6774L42.5387 65.7911C42.2214 65.8158 41.9033 65.8308 41.585 65.8358Z" fill="#88B3D7"/>
<path d="M39.6501 45.7548C40.682 45.6733 42.2888 45.721 43.3242 45.7719L43.2787 45.854L43.5433 45.807L43.384 45.8035L43.3554 45.8772L42.6035 45.9133C41.6801 45.9662 39.5264 45.9979 38.6384 45.9146C38.9635 45.7718 39.2964 45.7754 39.6501 45.7548Z" fill="#EFF3F6"/>
<path d="M77.5344 45.9363C78.2625 45.8933 81.3103 45.7562 81.8778 46.0171C81.1814 46.142 78.1717 46.1498 77.5344 45.9363Z" fill="#88B3D7"/>
<path d="M42.5973 65.6777C42.9718 65.7024 43.4562 65.7192 43.815 65.7935C43.6508 66.0101 41.9059 65.8925 41.585 65.8362C41.9033 65.8311 42.2213 65.8162 42.5387 65.7915L42.5973 65.6777Z" fill="#EFF3F6"/>
<path d="M79.7031 67.5467C79.5603 63.9766 79.977 61.3436 82.572 58.4959C90.114 50.2198 104.358 54.6226 105.05 66.0105C105.095 66.7552 105.052 68.2348 104.836 68.9699C104.779 70.1566 103.392 72.4133 102.68 73.3669C100.7 76.0161 97.3439 77.7302 94.0757 78.1289C90.6408 78.5532 87.1775 77.6006 84.4434 75.4794C81.9607 73.5209 80.0843 70.7282 79.7031 67.5467Z" fill="#EFF3F6"/>
<path d="M79.7031 67.5467C79.5603 63.9766 79.977 61.3436 82.572 58.4959C90.114 50.2198 104.358 54.6226 105.05 66.0105C105.095 66.7552 105.052 68.2348 104.836 68.9699C104.594 68.1575 105.113 67.7379 104.723 67.1179L104.579 67.1168C104.485 67.2679 104.399 67.3954 104.296 67.541C104.003 67.5626 103.8 67.1846 103.493 67.1805C103.22 67.1769 103.014 67.1222 102.833 66.9222C102.686 67.1006 102.729 67.6722 102.556 68.0663L102.444 67.9027C102.558 67.3047 102.588 67.0692 102.599 66.4612C102.651 64.2115 102.199 62.8828 100.903 61.0102C99.2234 58.728 97.0466 57.1965 94.2914 56.6739C89.0003 55.6703 84.0513 58.5185 82.4979 63.7083C82.2624 64.4955 82.2229 65.2472 82.0832 66.0564C82.0291 66.2378 81.9738 66.4188 81.9171 66.5994C81.5528 66.3742 80.4454 66.2148 79.9519 66.0992C79.8731 66.7059 80.0887 67.2393 79.7031 67.5467Z" fill="#88B3D7"/>
<path d="M79.7032 67.5465C80.0888 67.2391 79.8732 66.7057 79.952 66.0989C80.4454 66.2146 81.5529 66.3739 81.9171 66.5992C81.9738 66.4185 82.0292 66.2376 82.0832 66.0562C82.4167 72.2604 87.4165 76.3707 93.4278 76.0218C94.0861 75.9836 95.8289 75.8108 96.1014 75.1123C96.3875 74.9675 96.7699 74.8337 97.0759 74.7168C97.344 74.7449 97.4171 74.7703 97.6878 74.6166C100.219 73.1803 101.207 71.4086 102.23 68.7532C102.294 68.5853 102.358 68.1729 102.444 67.9025L102.556 68.0661C102.729 67.6719 102.686 67.1004 102.833 66.922C103.014 67.122 103.22 67.1767 103.493 67.1803C103.8 67.1843 104.003 67.5624 104.296 67.5408C104.399 67.3952 104.485 67.2677 104.579 67.1166L104.723 67.1177C105.113 67.7377 104.594 68.1572 104.836 68.9697C104.779 70.1564 103.392 72.4131 102.68 73.3667C100.7 76.0159 97.344 77.73 94.0758 78.1287C90.6409 78.553 87.1776 77.6004 84.4435 75.4792C81.9608 73.5207 80.0843 70.728 79.7032 67.5465Z" fill="#3072CB"/>
<path d="M82.0832 66.0562C82.2229 65.247 82.2624 64.4953 82.4979 63.7081C84.0513 58.5184 89.0003 55.6701 94.2915 56.6737C97.0466 57.1963 99.2234 58.7278 100.903 61.01C102.199 62.8826 102.651 64.2113 102.599 66.461L102.445 67.0171L102.395 67.0104L102.325 66.6786C102.147 57.5168 91.2089 53.3944 84.9376 59.8642C83.3769 61.4743 82.2799 64.2398 82.3928 66.4716C82.6697 71.9423 87.5522 75.9522 92.9165 75.7833C94.068 75.7471 95.028 75.4401 96.1013 75.1124C95.8289 75.8109 94.0861 75.9836 93.4278 76.0218C87.4165 76.3708 82.4167 72.2605 82.0832 66.0562Z" fill="#203760"/>
<path d="M102.325 66.6784L102.395 67.0103L102.445 67.017L102.599 66.4609C102.588 67.0689 102.558 67.3044 102.444 67.9025C102.358 68.1728 102.294 68.5852 102.23 68.7531C101.207 71.4085 100.219 73.1802 97.6877 74.6166C97.417 74.7702 97.344 74.7448 97.0759 74.7168C97.2572 74.5801 97.5382 74.3907 97.7376 74.2703C100.495 72.606 102 69.898 102.325 66.6784Z" fill="#203760"/>
<path d="M87.4259 62.5553C87.0848 62.1637 85.5715 60.6644 86.4205 60.1603C86.5081 60.108 86.6302 60.0047 86.7565 60.0496C87.921 60.7626 91.0706 64.0648 91.8689 65.0174C92.0142 64.0251 92.4129 60.9354 93.3625 60.5548C94.4694 60.7732 93.5447 64.2084 93.2611 64.9114C93.7269 65.3546 94.0363 65.8143 94.0509 66.4842C94.062 66.8576 93.9761 67.2275 93.8034 67.5582C94.0595 69.4024 90.6108 69.4129 90.6581 67.4294C90.475 67.0185 90.4578 66.8527 90.432 66.408C89.7119 66.159 88.0559 63.8663 87.5239 63.1822C87.3013 62.8972 87.3658 62.8723 87.4259 62.5553Z" fill="#203760"/>
<path d="M87.426 62.5557C87.9888 63.1895 90.3796 65.5768 90.4956 66.0464C90.4828 66.1534 90.4742 66.3243 90.432 66.4083C89.7119 66.1594 88.0559 63.8666 87.5239 63.1826C87.3013 62.8976 87.3658 62.8727 87.426 62.5557Z" fill="#EFF3F6"/>
<path d="M90.6581 67.4297C91.7177 68.4755 92.6733 68.5881 93.8034 67.5585C94.0595 69.4026 90.6108 69.4131 90.6581 67.4297Z" fill="#EFF3F6"/>
<path d="M90.8935 72.9502C91.1419 73.0008 91.239 73.0011 91.4091 73.198C91.5974 73.6662 91.4238 73.976 91.2347 74.4466C90.9193 74.4202 91.0173 74.4684 90.8033 74.3019C90.6194 73.827 90.7543 73.4344 90.8935 72.9502Z" fill="#203760"/>
<path d="M93.6315 57.8589C94.3388 58.0906 93.8988 59.0688 93.7063 59.501C93.6779 59.4883 93.6504 59.4757 93.622 59.4631C93.4484 59.3721 93.3204 59.2135 93.2688 59.025C93.1597 58.6375 93.4442 58.2099 93.6315 57.8589Z" fill="#203760"/>
<path d="M99.4134 67.3926C100.161 67.3311 100.702 67.2535 100.873 68.0833C100.22 68.1008 99.5397 68.1323 99.4134 67.3926Z" fill="#203760"/>
<path d="M87.3151 59.5137C88.1796 59.6269 88.3274 59.9729 88.2372 60.7501L87.9527 60.6921C87.5961 60.3542 87.4758 59.9745 87.3151 59.5137Z" fill="#203760"/>
<path d="M83.9346 64.5957C84.5473 64.9298 85.04 64.6065 85.268 65.2934C84.9013 65.3285 84.3006 65.3715 83.9908 65.1741C83.8233 64.897 83.871 64.9856 83.9346 64.5957Z" fill="#203760"/>
<path d="M98.9476 61.5186L99.1899 61.6056L99.2355 61.7435C99.0945 62.0102 98.6159 62.2891 98.3477 62.4731L98.1922 62.4568L98.1097 62.3424C98.1827 61.973 98.6519 61.7074 98.9476 61.5186Z" fill="#03050D"/>
<path d="M50.1097 34.6984C50.0985 34.3871 50.0462 33.9943 50.1947 33.7347C50.5274 33.6283 69.7046 33.7041 71.2593 33.7868C71.491 34.0159 71.4229 34.3201 71.4041 34.6344C71.3759 35.9679 71.0991 38.0287 72.009 38.9801C72.0446 39.0171 72.081 39.0535 72.1182 39.0889C72.363 38.9401 72.4289 38.8339 72.6818 38.9194C73.257 39.1138 74.2939 39.7815 74.8471 39.8306C75.2939 39.6568 75.9193 39.0501 76.3043 38.7104C76.6993 37.6238 76.5827 35.8646 76.5758 34.6745C76.5661 34.3142 76.5668 34.1656 76.6178 33.8109C76.8519 33.613 79.0906 33.7034 79.5346 33.7089C80.5079 33.6965 83.5124 33.5068 84.1449 34.0145C84.4278 34.5306 84.3056 35.5607 84.2762 36.1868C84.2771 37.3668 84.6111 42.1816 84.056 42.9498C82.969 43.4286 76.6889 43.1634 75.1126 43.1615L54.3719 43.1518C51.6908 43.1616 48.8751 43.2245 46.2009 43.2001C44.1543 43.1815 39.8899 43.3942 38.0359 43.0515C37.8351 42.9278 37.8252 42.8904 37.7365 42.669C37.7408 42.5439 37.736 42.3294 37.7819 42.2251C37.8123 41.7117 37.8941 41.1263 37.9551 40.6081C38.1838 38.7765 38.196 36.7649 38.4622 34.9994C38.6911 34.7391 39.252 34.1536 39.5119 33.993C40.19 33.5741 44.2723 33.6664 44.8838 33.8093C45.0158 34.0334 44.9705 34.3653 44.962 34.6355C44.9263 36.1526 44.605 38.0722 45.6668 39.1573C46.1686 39.6726 46.8572 39.9631 47.5763 39.963C48.3019 39.9563 48.8126 39.6811 49.336 39.1892C50.4103 38.1798 50.1297 36.1772 50.1097 34.6984Z" fill="#F45252"/>
<path d="M37.7819 42.2251L37.8353 42.2962C39.1895 42.3911 40.8038 42.3582 42.171 42.3595L48.8744 42.3719C56.3448 42.4352 63.8156 42.4347 71.286 42.3702L78.9441 42.3755C79.6961 42.3761 82.378 42.4233 82.9416 42.2683C84.3168 41.8899 83.4163 37.695 83.5468 36.6951C83.5949 36.3271 84.0703 36.346 84.0907 36.2232C84.1425 35.9122 84.0036 35.3771 84.1699 35.0996C84.1757 35.5021 84.177 35.7093 84.2586 36.1035L84.2762 36.1868C84.2771 37.3668 84.6111 42.1816 84.056 42.9498C82.969 43.4286 76.6889 43.1634 75.1126 43.1615L54.3719 43.1519C51.6908 43.1617 48.8751 43.2245 46.2009 43.2002C44.1543 43.1815 39.8899 43.3942 38.0359 43.0515C37.8351 42.9278 37.8252 42.8904 37.7365 42.6691C37.7408 42.5439 37.736 42.3294 37.7819 42.2251Z" fill="#BE2B32"/>
<path d="M50.1097 34.6984C50.0984 34.387 50.0462 33.9942 50.1947 33.7347C50.5273 33.6283 69.7046 33.704 71.2593 33.7867C71.4909 34.0159 71.4229 34.3201 71.4041 34.6343C64.3059 34.6105 57.2076 34.6319 50.1097 34.6984Z" fill="#F28182"/>
<path d="M38.4622 34.9993C38.6911 34.739 39.252 34.1535 39.5119 33.9929C40.19 33.574 44.2723 33.6663 44.8838 33.8092C45.0158 34.0334 44.9705 34.3652 44.962 34.6354C43.4479 34.6492 41.6902 34.6424 40.1963 34.738C38.5102 36.1799 38.8486 39.0061 38.2379 40.9534C38.1926 41.0978 38.204 41.0701 38.1115 41.063L37.9551 40.608C38.1838 38.7764 38.196 36.7648 38.4622 34.9993Z" fill="#F28182"/>
<path d="M76.5758 34.6745C76.5661 34.3142 76.5668 34.1656 76.6178 33.8109C76.852 33.613 79.0906 33.7035 79.5347 33.7089C80.1608 33.7466 81.68 33.6345 82.0116 33.9566C82.0571 34.2138 82.0449 34.2596 81.9975 34.5182C81.5371 34.7649 77.6001 34.5651 76.5758 34.6745Z" fill="#F28182"/>
<path d="M72.1182 39.0887C72.363 38.9399 72.4289 38.8337 72.6818 38.9192C73.257 39.1136 74.2939 39.7812 74.8471 39.8304C73.4932 40.122 73.0867 40.0233 72.1182 39.0887Z" fill="#203760"/>
<path d="M46.0807 30.8645C46.1225 30.5091 46.261 30.3389 46.5426 30.1298C48.2748 28.8439 49.0159 29.1068 50.6373 30.2508C51.1607 31.3367 51.5878 33.498 49.6617 32.2815C49.4184 32.4957 49.3663 32.5084 49.066 32.6099C49.0704 33.348 49.0328 34.9641 49.0939 35.633C49.1673 36.4635 49.1617 37.0897 49.1515 37.917C48.2236 39.2097 47.0148 39.4828 46.0204 38.0704C45.932 37.4752 45.9605 37.0649 45.9813 36.4658C45.9657 34.9299 45.8605 32.4416 46.1248 31.0164L46.0807 30.8645Z" fill="#88B3D7"/>
<path d="M46.0807 30.8645C46.1225 30.5091 46.261 30.3389 46.5426 30.1298C48.2748 28.8439 49.0159 29.1068 50.6373 30.2508C51.1606 31.3367 51.5877 33.498 49.6617 32.2815C49.4183 32.4957 49.3663 32.5084 49.066 32.6099C48.9036 30.7923 49.4611 30.3821 47.3633 29.8577C46.7895 30.1872 46.5216 30.3415 46.0807 30.8645Z" fill="#5A7292"/>
<path d="M46.0807 30.8645C46.1225 30.5091 46.261 30.3389 46.5426 30.1298C48.2748 28.8439 49.0159 29.1068 50.6373 30.2508C51.1606 31.3367 51.5877 33.498 49.6617 32.2815C49.9566 31.9889 50.5887 31.8214 50.9965 31.6848C50.8513 31.153 50.7325 30.8822 50.5129 30.3809C49.5048 29.6407 48.535 29.0041 47.3633 29.8577C46.7895 30.1872 46.5216 30.3415 46.0807 30.8645Z" fill="#425474"/>
<path d="M49.0939 35.6328C49.1673 36.4633 49.1617 37.0895 49.1515 37.9168C48.2236 39.2095 47.0148 39.4826 46.0204 38.0702C46.5561 37.9982 47.3394 38.0118 48 37.9356C48.377 37.4557 49.0465 36.2446 49.0939 35.6328Z" fill="#5A7292"/>
<path d="M46.1248 31.0164C46.3452 31.1683 46.5094 31.2194 46.5372 31.5001C46.6866 33.0054 46.5131 34.8701 46.2438 36.3346C46.0977 36.4788 46.1827 36.4371 45.9813 36.4658C45.9657 34.9299 45.8605 32.4415 46.1248 31.0164Z" fill="#B8D9F0"/>
<path d="M73.9311 29.8667C75.1301 29.0079 76.2271 29.7605 77.205 30.5423C77.4166 31.0438 77.5593 31.3715 77.5293 31.9348C77.512 32.3549 77.573 32.3048 77.3775 32.6237C76.8217 32.8277 76.6469 32.2493 76.485 32.1651C76.1746 32.3626 75.8387 32.5662 75.5486 32.7887C75.5288 33.1201 75.5134 33.6675 75.466 33.9794C75.4855 35.25 75.4952 36.5471 75.6218 37.8115C75.4766 38.0727 75.2875 38.4394 75.1308 38.6827C74.0109 39.2445 73.0912 39.2329 72.4939 37.9895C72.4764 37.953 72.4594 37.9164 72.4428 37.8794C72.3131 37.4888 72.3911 37.1742 72.4487 36.7706C72.435 35.2388 72.2059 31.9781 72.8122 30.7438C73.132 30.2454 73.3989 30.119 73.9311 29.8667Z" fill="#88B3D7"/>
<path d="M73.9311 29.8667C75.1301 29.0079 76.2271 29.7605 77.2051 30.5423C77.4166 31.0438 77.5593 31.3715 77.5293 31.9348C77.512 32.3549 77.573 32.3048 77.3775 32.6237C76.8218 32.8277 76.6469 32.2493 76.485 32.1651C76.1747 32.3626 75.8387 32.5662 75.5486 32.7887C75.5288 33.1201 75.5135 33.6675 75.466 33.9794C75.4144 33.5506 75.4362 32.6514 75.4359 32.1849C75.4974 30.6295 75.5092 30.3118 73.9311 29.8667Z" fill="#5A7292"/>
<path d="M76.485 32.1649C76.7388 31.9624 77.2045 31.9571 77.5293 31.9346C77.512 32.3547 77.573 32.3046 77.3775 32.6235C76.8218 32.8275 76.6469 32.2491 76.485 32.1649Z" fill="#5A7292"/>
<path d="M72.4428 37.8793C72.9956 37.8498 74.0304 38.3598 74.4006 37.9342C75.705 36.4348 75.1517 34.0258 75.4359 32.1848C75.4362 32.6513 75.4144 33.5504 75.466 33.9793C75.4855 35.2499 75.4952 36.547 75.6218 37.8114C75.4767 38.0726 75.2875 38.4393 75.1308 38.6825C74.0109 39.2444 73.0912 39.2328 72.4939 37.9894C72.4764 37.9529 72.4594 37.9162 72.4428 37.8793Z" fill="#5A7292"/>
<path d="M72.8121 30.7437C73.0959 30.872 73.0561 30.8003 73.1601 31.0205C72.9785 32.4457 72.9274 33.7522 72.94 35.1861C72.9435 35.5808 72.8921 36.4425 72.6177 36.7154L72.4487 36.7705C72.435 35.2387 72.2059 31.978 72.8121 30.7437Z" fill="#B8D9F0"/>
<path d="M85.1028 50.3125C85.814 50.2658 86.7453 50.152 87.3555 50.58C87.6236 50.7729 88.3154 51.2417 88.4898 51.4547C88.6651 51.7108 88.8697 51.9369 88.8611 52.2364C88.3996 52.8958 83.7702 55.3205 82.8 55.8141C77.7721 58.3718 80.2287 52.3721 83.3515 50.9324C83.9315 50.6613 84.4868 50.4781 85.1028 50.3125Z" fill="#508DD3"/>
<path d="M85.1028 50.3125C85.814 50.2658 86.7453 50.152 87.3554 50.58C87.6236 50.7729 88.3154 51.2417 88.4898 51.4547C88.0361 51.5612 86.8347 51.0705 86.1755 51.0378C85.2711 50.9928 84.4185 51.2052 83.5453 51.2124L83.3514 50.9324C83.9315 50.6613 84.4868 50.4781 85.1028 50.3125Z" fill="#88B3D7"/>
<path d="M85.2716 43.5696C85.4535 43.5668 85.904 43.5504 86.0578 43.5769C86.4566 43.667 87.285 43.701 87.3761 44.0056C87.8668 45.6468 87.7139 49.0509 87.3555 50.5799C86.7453 50.1519 85.814 50.2657 85.1028 50.3125C84.9041 50.1167 84.9663 50.1513 84.9492 49.791C84.5803 49.8751 83.3388 50.2216 83.0773 50.2596C83.0839 49.1949 83.2243 45.3612 83.1138 44.5762L83.1878 44.2373L83.3756 44.3255L83.5303 44.266C83.6554 43.5152 84.1331 43.7145 84.8472 43.7003C85.066 43.6978 85.091 43.6922 85.2716 43.5696Z" fill="#203760"/>
<path d="M84.8472 43.7004C85.0564 44.0754 85.002 49.139 84.9492 49.7911C84.5803 49.8752 83.3388 50.2217 83.0773 50.2597C83.0839 49.195 83.2243 45.3613 83.1138 44.5763L83.1878 44.2374L83.3756 44.3256L83.5303 44.2661C83.6554 43.5153 84.1331 43.7146 84.8472 43.7004Z" fill="#5A7292"/>
<path d="M85.3896 34.8779C85.6108 35.0391 87.1655 36.0316 87.1716 36.0908C87.4276 38.3955 87.3967 41.2757 87.3984 43.5745L86.0578 43.5769C85.904 43.5504 85.4535 43.5668 85.2716 43.5696C85.1694 40.8093 85.2648 37.636 85.3896 34.8779Z" fill="#BE2B32"/>
<path d="M100.981 76.3916C101.607 76.7445 101.82 79.2555 101.369 79.6465C100.866 79.7196 100.262 79.3491 99.8112 79.1133C99.4005 78.6603 99.0086 78.2572 98.578 77.824C99.4675 77.1186 99.9419 76.8904 100.981 76.3916Z" fill="#203760"/>
<path d="M15.6756 17.8033C18.331 17.5326 20.7018 19.469 20.967 22.125C21.2321 24.7809 19.2909 27.1477 16.6343 27.4074C13.9856 27.6662 11.6273 25.7319 11.363 23.0838C11.0986 20.4356 13.0279 18.0733 15.6756 17.8033Z" fill="#B8D9F0"/>
</g>
<defs>
<clipPath id="clip0_16431_36250">
<rect width="126.844" height="88" fill="white"/>
</clipPath>
</defs>
</svg>
