<svg width="205" height="303" viewBox="0 0 205 303" fill="none" xmlns="http://www.w3.org/2000/svg">
<g filter="url(#filter0_d_14763_41848)">
<g clip-path="url(#clip0_14763_41848)">
<rect x="18.1" y="18.0996" width="168" height="266" rx="8" fill="white" fill-opacity="0.1" shape-rendering="crispEdges"/>
<mask id="path-3-inside-1_14763_41848" fill="white">
<path d="M30.1 30.0996H174.1V62.0996H30.1V30.0996Z"/>
</mask>
<path d="M174.1 62.0996V61.3496H30.1V62.0996V62.8496H174.1V62.0996Z" fill="#B9BBC6" mask="url(#path-3-inside-1_14763_41848)"/>
<path d="M50.1 42.0996V46.0996L52.7666 47.4329" stroke="#1E1F24" stroke-linecap="round" stroke-linejoin="round"/>
<path d="M55.4333 46.0996V49.4329" stroke="#1E1F24" stroke-linecap="round" stroke-linejoin="round"/>
<path d="M55.4333 52.0996H55.44" stroke="#1E1F24" stroke-linecap="round" stroke-linejoin="round"/>
<path d="M56.2666 43.566C55.7638 42.3402 54.9071 41.2921 53.8059 40.5554C52.7047 39.8187 51.409 39.4268 50.0841 39.4297C48.7592 39.4326 47.4652 39.8303 46.3673 40.5719C45.2694 41.3134 44.4174 42.3653 43.9199 43.5933C43.4225 44.8213 43.3022 46.1696 43.5745 47.4662C43.8467 48.7629 44.4991 49.949 45.4484 50.8732C46.3977 51.7974 47.6009 52.4178 48.9044 52.6551C50.2078 52.8925 51.5525 52.7361 52.7666 52.206" stroke="#1E1F24" stroke-linecap="round" stroke-linejoin="round"/>
<path d="M65.1568 41.8723H66.4182L69.3841 49.1167H69.4863L72.4522 41.8723H73.7136V50.5996H72.725V43.9689H72.6397L69.9125 50.5996H68.9579L66.2307 43.9689H66.1454V50.5996H65.1568V41.8723ZM77.6223 50.753C77.2076 50.753 76.8312 50.6749 76.4931 50.5186C76.155 50.3596 75.8866 50.1309 75.6877 49.8326C75.4888 49.5314 75.3894 49.1678 75.3894 48.7417C75.3894 48.3667 75.4633 48.0627 75.611 47.8297C75.7587 47.5939 75.9562 47.4093 76.2033 47.2757C76.4505 47.1422 76.7232 47.0428 77.0215 46.9775C77.3226 46.9093 77.6252 46.8553 77.9292 46.8155C78.3269 46.7644 78.6493 46.726 78.8965 46.7005C79.1465 46.6721 79.3283 46.6252 79.442 46.5598C79.5584 46.4945 79.6167 46.3809 79.6167 46.2189V46.1848C79.6167 45.7644 79.5016 45.4377 79.2715 45.2047C79.0442 44.9718 78.6991 44.8553 78.236 44.8553C77.7559 44.8553 77.3795 44.9604 77.1067 45.1706C76.834 45.3809 76.6422 45.6053 76.5314 45.8439L75.5769 45.503C75.7473 45.1053 75.9746 44.7956 76.2587 44.574C76.5456 44.3496 76.8581 44.1934 77.1962 44.1053C77.5371 44.0144 77.8723 43.9689 78.2019 43.9689C78.4121 43.9689 78.6536 43.9945 78.9263 44.0456C79.2019 44.0939 79.4675 44.1948 79.7232 44.3482C79.9817 44.5016 80.1962 44.7331 80.3667 45.0428C80.5371 45.3525 80.6223 45.7672 80.6223 46.2871V50.5996H79.6167V49.7132H79.5655C79.4973 49.8553 79.3837 50.0073 79.2246 50.1692C79.0655 50.3311 78.8539 50.4689 78.5897 50.5826C78.3255 50.6962 78.003 50.753 77.6223 50.753ZM77.7758 49.8496C78.1735 49.8496 78.5087 49.7715 78.7814 49.6152C79.057 49.459 79.2644 49.2573 79.4036 49.0101C79.5456 48.763 79.6167 48.503 79.6167 48.2303V47.3098C79.5741 47.361 79.4803 47.4078 79.3354 47.4505C79.1934 47.4902 79.0286 47.5257 78.8411 47.557C78.6564 47.5854 78.476 47.611 78.2999 47.6337C78.1266 47.6536 77.986 47.6706 77.878 47.6848C77.6167 47.7189 77.3723 47.7743 77.1451 47.851C76.9206 47.9249 76.7388 48.0371 76.5996 48.1877C76.4633 48.3354 76.3951 48.5371 76.3951 48.7928C76.3951 49.1422 76.5243 49.4064 76.7829 49.5854C77.0442 49.7615 77.3752 49.8496 77.7758 49.8496ZM83.4636 46.6621V50.5996H82.4579V44.0542H83.4295V45.0769H83.5147C83.6682 44.7445 83.9011 44.4775 84.2136 44.2757C84.5261 44.0712 84.9295 43.9689 85.4238 43.9689C85.867 43.9689 86.2548 44.0598 86.5872 44.2417C86.9196 44.4206 87.1781 44.6934 87.3628 45.0598C87.5474 45.4235 87.6397 45.8837 87.6397 46.4405V50.5996H86.6341V46.5087C86.6341 45.9945 86.5005 45.5939 86.2335 45.307C85.9665 45.0172 85.6 44.8723 85.1341 44.8723C84.813 44.8723 84.5261 44.9419 84.2733 45.0811C84.0233 45.2203 83.8258 45.4235 83.6809 45.6905C83.5361 45.9576 83.4636 46.2814 83.4636 46.6621ZM93.6025 47.9235V44.0542H94.6081V50.5996H93.6025V49.4917H93.5343C93.3809 49.824 93.1422 50.1067 92.8184 50.3397C92.4945 50.5698 92.0854 50.6848 91.5911 50.6848C91.182 50.6848 90.8184 50.5953 90.5002 50.4164C90.182 50.2346 89.932 49.9618 89.7502 49.5982C89.5684 49.2317 89.4775 48.7701 89.4775 48.2132V44.0542H90.4831V48.1451C90.4831 48.6223 90.6167 49.003 90.8837 49.2871C91.1536 49.5712 91.4973 49.7132 91.915 49.7132C92.165 49.7132 92.4192 49.6493 92.6777 49.5215C92.9391 49.3936 93.1579 49.1976 93.334 48.9334C93.513 48.6692 93.6025 48.3326 93.6025 47.9235ZM98.3763 50.753C97.9615 50.753 97.5851 50.6749 97.247 50.5186C96.9089 50.3596 96.6405 50.1309 96.4416 49.8326C96.2427 49.5314 96.1433 49.1678 96.1433 48.7417C96.1433 48.3667 96.2172 48.0627 96.3649 47.8297C96.5126 47.5939 96.7101 47.4093 96.9572 47.2757C97.2044 47.1422 97.4771 47.0428 97.7754 46.9775C98.0765 46.9093 98.3791 46.8553 98.6831 46.8155C99.0808 46.7644 99.4032 46.726 99.6504 46.7005C99.9004 46.6721 100.082 46.6252 100.196 46.5598C100.312 46.4945 100.371 46.3809 100.371 46.2189V46.1848C100.371 45.7644 100.256 45.4377 100.025 45.2047C99.7981 44.9718 99.453 44.8553 98.9899 44.8553C98.5098 44.8553 98.1334 44.9604 97.8606 45.1706C97.5879 45.3809 97.3961 45.6053 97.2853 45.8439L96.3308 45.503C96.5013 45.1053 96.7285 44.7956 97.0126 44.574C97.2995 44.3496 97.612 44.1934 97.9501 44.1053C98.291 44.0144 98.6263 43.9689 98.9558 43.9689C99.166 43.9689 99.4075 43.9945 99.6802 44.0456C99.9558 44.0939 100.221 44.1948 100.477 44.3482C100.736 44.5016 100.95 44.7331 101.121 45.0428C101.291 45.3525 101.376 45.7672 101.376 46.2871V50.5996H100.371V49.7132H100.319C100.251 49.8553 100.138 50.0073 99.9785 50.1692C99.8194 50.3311 99.6078 50.4689 99.3436 50.5826C99.0794 50.6962 98.7569 50.753 98.3763 50.753ZM98.5297 49.8496C98.9274 49.8496 99.2626 49.7715 99.5353 49.6152C99.8109 49.459 100.018 49.2573 100.158 49.0101C100.3 48.763 100.371 48.503 100.371 48.2303V47.3098C100.328 47.361 100.234 47.4078 100.089 47.4505C99.9473 47.4902 99.7825 47.5257 99.595 47.557C99.4103 47.5854 99.2299 47.611 99.0538 47.6337C98.8805 47.6536 98.7399 47.6706 98.6319 47.6848C98.3706 47.7189 98.1263 47.7743 97.899 47.851C97.6745 47.9249 97.4927 48.0371 97.3535 48.1877C97.2172 48.3354 97.149 48.5371 97.149 48.7928C97.149 49.1422 97.2782 49.4064 97.5368 49.5854C97.7981 49.7615 98.1291 49.8496 98.5297 49.8496ZM104.218 41.8723V50.5996H103.212V41.8723H104.218ZM109.571 50.5996V41.8723H110.628V49.6621H114.684V50.5996H109.571ZM118.844 50.736C118.253 50.736 117.734 50.5953 117.288 50.3141C116.845 50.0328 116.498 49.6394 116.248 49.1337C116.001 48.628 115.878 48.0371 115.878 47.361C115.878 46.6792 116.001 46.084 116.248 45.5755C116.498 45.0669 116.845 44.6721 117.288 44.3908C117.734 44.1096 118.253 43.9689 118.844 43.9689C119.434 43.9689 119.952 44.1096 120.395 44.3908C120.841 44.6721 121.187 45.0669 121.434 45.5755C121.684 46.084 121.809 46.6792 121.809 47.361C121.809 48.0371 121.684 48.628 121.434 49.1337C121.187 49.6394 120.841 50.0328 120.395 50.3141C119.952 50.5953 119.434 50.736 118.844 50.736ZM118.844 49.8326C119.292 49.8326 119.662 49.7175 119.952 49.4874C120.241 49.2573 120.456 48.9547 120.595 48.5797C120.734 48.2047 120.804 47.7985 120.804 47.361C120.804 46.9235 120.734 46.5158 120.595 46.138C120.456 45.7601 120.241 45.4547 119.952 45.2218C119.662 44.9888 119.292 44.8723 118.844 44.8723C118.395 44.8723 118.025 44.9888 117.736 45.2218C117.446 45.4547 117.231 45.7601 117.092 46.138C116.953 46.5158 116.883 46.9235 116.883 47.361C116.883 47.7985 116.953 48.2047 117.092 48.5797C117.231 48.9547 117.446 49.2573 117.736 49.4874C118.025 49.7175 118.395 49.8326 118.844 49.8326ZM125.987 53.1905C125.501 53.1905 125.083 53.128 124.734 53.003C124.384 52.8809 124.093 52.7189 123.86 52.5172C123.63 52.3184 123.447 52.1053 123.311 51.878L124.112 51.3155C124.203 51.4348 124.318 51.5712 124.457 51.7246C124.596 51.8809 124.786 52.0158 125.028 52.1294C125.272 52.2459 125.592 52.3042 125.987 52.3042C126.515 52.3042 126.951 52.1763 127.295 51.9206C127.639 51.665 127.811 51.2644 127.811 50.7189V49.3894H127.725C127.651 49.5087 127.546 49.6564 127.41 49.8326C127.276 50.0059 127.083 50.1607 126.83 50.2971C126.58 50.4306 126.242 50.4973 125.816 50.4973C125.288 50.4973 124.813 50.3723 124.393 50.1223C123.975 49.8723 123.644 49.5087 123.4 49.0314C123.159 48.5542 123.038 47.9746 123.038 47.2928C123.038 46.6223 123.156 46.0385 123.392 45.5414C123.627 45.0414 123.955 44.655 124.376 44.3823C124.796 44.1067 125.282 43.9689 125.833 43.9689C126.259 43.9689 126.597 44.04 126.847 44.182C127.1 44.3212 127.294 44.4803 127.427 44.6593C127.563 44.8354 127.669 44.9803 127.742 45.0939H127.845V44.0542H128.816V50.7871C128.816 51.3496 128.688 51.807 128.433 52.1593C128.18 52.5144 127.839 52.7743 127.41 52.9391C126.984 53.1067 126.509 53.1905 125.987 53.1905ZM125.953 49.5939C126.356 49.5939 126.697 49.5016 126.975 49.3169C127.254 49.1323 127.465 48.8667 127.61 48.5201C127.755 48.1735 127.828 47.7587 127.828 47.2757C127.828 46.8042 127.757 46.388 127.615 46.0272C127.472 45.6664 127.262 45.3837 126.984 45.1792C126.705 44.9746 126.362 44.8723 125.953 44.8723C125.526 44.8723 125.171 44.9803 124.887 45.1962C124.606 45.4121 124.394 45.7019 124.252 46.0655C124.113 46.4292 124.044 46.8326 124.044 47.2757C124.044 47.7303 124.115 48.1323 124.257 48.4817C124.401 48.8283 124.615 49.101 124.896 49.2999C125.18 49.4959 125.532 49.5939 125.953 49.5939Z" fill="#1E1F24"/>
<mask id="path-10-inside-2_14763_41848" fill="white">
<path d="M30.1 72.0996H174.1V104.1H30.1V72.0996Z"/>
</mask>
<path d="M174.1 104.1V103.35H30.1V104.1V104.85H174.1V104.1Z" fill="#B9BBC6" mask="url(#path-10-inside-2_14763_41848)"/>
<path d="M52.7667 92.7666H56.7667" stroke="#1E1F24" stroke-linecap="round" stroke-linejoin="round"/>
<path d="M52.7667 81.4326V84.0993" stroke="#1E1F24" stroke-linecap="round" stroke-linejoin="round"/>
<path d="M56.1 90.0999V84.0999C56.1 83.7463 55.9595 83.4072 55.7095 83.1571C55.4594 82.9071 55.1203 82.7666 54.7666 82.7666H45.4333C45.0797 82.7666 44.7405 82.9071 44.4905 83.1571C44.2405 83.4072 44.1 83.7463 44.1 84.0999V93.4333C44.1 93.7869 44.2405 94.126 44.4905 94.3761C44.7405 94.6261 45.0797 94.7666 45.4333 94.7666H51.1" stroke="#1E1F24" stroke-linecap="round" stroke-linejoin="round"/>
<path d="M44.1 86.7666H56.1" stroke="#1E1F24" stroke-linecap="round" stroke-linejoin="round"/>
<path d="M47.4333 81.4326V84.0993" stroke="#1E1F24" stroke-linecap="round" stroke-linejoin="round"/>
<path d="M65.1568 92.5996V83.8723H66.2136V91.6621H70.2704V92.5996H65.1568ZM74.5147 92.736C73.8841 92.736 73.34 92.5968 72.8826 92.3184C72.4281 92.0371 72.0772 91.6451 71.8301 91.1422C71.5858 90.6365 71.4636 90.0485 71.4636 89.378C71.4636 88.7076 71.5858 88.1167 71.8301 87.6053C72.0772 87.0911 72.421 86.6905 72.8613 86.4036C73.3045 86.1138 73.8216 85.9689 74.4125 85.9689C74.7534 85.9689 75.09 86.0257 75.4224 86.1394C75.7548 86.253 76.0574 86.4377 76.3301 86.6934C76.6028 86.9462 76.8201 87.2814 76.9821 87.699C77.144 88.1167 77.225 88.6309 77.225 89.2417V89.6678H72.1795V88.7985H76.2022C76.2022 88.4292 76.1284 88.0996 75.9807 87.8098C75.8358 87.5201 75.6284 87.2914 75.3585 87.1238C75.0915 86.9561 74.7761 86.8723 74.4125 86.8723C74.0119 86.8723 73.6653 86.9718 73.3727 87.1706C73.0829 87.3667 72.8599 87.6223 72.7037 87.9377C72.5474 88.253 72.4693 88.5911 72.4693 88.9519V89.5314C72.4693 90.0257 72.5545 90.4448 72.725 90.7885C72.8983 91.1294 73.1383 91.3894 73.4451 91.5684C73.752 91.7445 74.1085 91.8326 74.5147 91.8326C74.779 91.8326 75.0176 91.7956 75.2307 91.7218C75.4466 91.6451 75.6326 91.5314 75.7889 91.3809C75.9451 91.2275 76.0659 91.0371 76.1511 90.8098L77.1227 91.0826C77.0204 91.4121 76.8486 91.7019 76.6071 91.9519C76.3656 92.199 76.0673 92.3922 75.7122 92.5314C75.3571 92.6678 74.9579 92.736 74.5147 92.736ZM80.6809 92.753C80.2662 92.753 79.8897 92.6749 79.5517 92.5186C79.2136 92.3596 78.9451 92.1309 78.7463 91.8326C78.5474 91.5314 78.448 91.1678 78.448 90.7417C78.448 90.3667 78.5219 90.0627 78.6696 89.8297C78.8173 89.5939 79.0147 89.4093 79.2619 89.2757C79.5091 89.1422 79.7818 89.0428 80.0801 88.9775C80.3812 88.9093 80.6838 88.8553 80.9878 88.8155C81.3855 88.7644 81.7079 88.726 81.9551 88.7005C82.2051 88.6721 82.3869 88.6252 82.5005 88.5598C82.617 88.4945 82.6753 88.3809 82.6753 88.2189V88.1848C82.6753 87.7644 82.5602 87.4377 82.3301 87.2047C82.1028 86.9718 81.7576 86.8553 81.2946 86.8553C80.8145 86.8553 80.438 86.9604 80.1653 87.1706C79.8926 87.3809 79.7008 87.6053 79.59 87.8439L78.6355 87.503C78.8059 87.1053 79.0332 86.7956 79.3173 86.574C79.6042 86.3496 79.9167 86.1934 80.2548 86.1053C80.5957 86.0144 80.9309 85.9689 81.2605 85.9689C81.4707 85.9689 81.7122 85.9945 81.9849 86.0456C82.2605 86.0939 82.5261 86.1948 82.7818 86.3482C83.0403 86.5016 83.2548 86.7331 83.4253 87.0428C83.5957 87.3525 83.6809 87.7672 83.6809 88.2871V92.5996H82.6753V91.7132H82.6241C82.5559 91.8553 82.4423 92.0073 82.2832 92.1692C82.1241 92.3311 81.9125 92.4689 81.6483 92.5826C81.3841 92.6962 81.0616 92.753 80.6809 92.753ZM80.8344 91.8496C81.2321 91.8496 81.5673 91.7715 81.84 91.6152C82.1156 91.459 82.323 91.2573 82.4622 91.0101C82.6042 90.763 82.6753 90.503 82.6753 90.2303V89.3098C82.6326 89.361 82.5389 89.4078 82.394 89.4505C82.252 89.4902 82.0872 89.5257 81.8997 89.557C81.715 89.5854 81.5346 89.611 81.3585 89.6337C81.1852 89.6536 81.0446 89.6706 80.9366 89.6848C80.6753 89.7189 80.4309 89.7743 80.2037 89.851C79.9792 89.9249 79.7974 90.0371 79.6582 90.1877C79.5219 90.3354 79.4537 90.5371 79.4537 90.7928C79.4537 91.1422 79.5829 91.4064 79.8415 91.5854C80.1028 91.7615 80.4338 91.8496 80.8344 91.8496ZM90.6344 86.0542L88.214 92.5996H87.1912L84.7708 86.0542H85.8617L87.6685 91.2701H87.7367L89.5435 86.0542H90.6344ZM94.4718 92.736C93.8411 92.736 93.2971 92.5968 92.8397 92.3184C92.3851 92.0371 92.0343 91.6451 91.7871 91.1422C91.5428 90.6365 91.4206 90.0485 91.4206 89.378C91.4206 88.7076 91.5428 88.1167 91.7871 87.6053C92.0343 87.0911 92.378 86.6905 92.8184 86.4036C93.2616 86.1138 93.7786 85.9689 94.3695 85.9689C94.7104 85.9689 95.0471 86.0257 95.3795 86.1394C95.7118 86.253 96.0144 86.4377 96.2871 86.6934C96.5598 86.9462 96.7772 87.2814 96.9391 87.699C97.101 88.1167 97.182 88.6309 97.182 89.2417V89.6678H92.1366V88.7985H96.1593C96.1593 88.4292 96.0854 88.0996 95.9377 87.8098C95.7928 87.5201 95.5854 87.2914 95.3155 87.1238C95.0485 86.9561 94.7331 86.8723 94.3695 86.8723C93.9689 86.8723 93.6223 86.9718 93.3297 87.1706C93.04 87.3667 92.817 87.6223 92.6607 87.9377C92.5045 88.253 92.4263 88.5911 92.4263 88.9519V89.5314C92.4263 90.0257 92.5116 90.4448 92.682 90.7885C92.8553 91.1294 93.0954 91.3894 93.4022 91.5684C93.709 91.7445 94.0655 91.8326 94.4718 91.8326C94.736 91.8326 94.9746 91.7956 95.1877 91.7218C95.4036 91.6451 95.5897 91.5314 95.7459 91.3809C95.9022 91.2275 96.0229 91.0371 96.1081 90.8098L97.0797 91.0826C96.9775 91.4121 96.8056 91.7019 96.5641 91.9519C96.3226 92.199 96.0243 92.3922 95.6692 92.5314C95.3141 92.6678 94.915 92.736 94.4718 92.736Z" fill="#1E1F24"/>
<mask id="path-18-inside-3_14763_41848" fill="white">
<path d="M30.1 114.1H174.1V146.1H30.1V114.1Z"/>
</mask>
<path d="M174.1 146.1V145.35H30.1V146.1V146.85H174.1V146.1Z" fill="#B9BBC6" mask="url(#path-18-inside-3_14763_41848)"/>
<g clip-path="url(#clip1_14763_41848)">
<path d="M50.1 126.1V130.1L52.5293 131.314" stroke="#1E1F24" stroke-linecap="round" stroke-linejoin="round"/>
<path d="M52.7667 134.767H56.7667" stroke="#1E1F24" stroke-linecap="round" stroke-linejoin="round"/>
<path d="M54.7667 132.767V136.767" stroke="#1E1F24" stroke-linecap="round" stroke-linejoin="round"/>
<path d="M56.7133 130.945C56.8894 129.565 56.6297 128.165 55.9706 126.94C55.3114 125.716 54.2857 124.728 53.0372 124.115C51.7887 123.503 50.3799 123.296 49.0079 123.524C47.636 123.752 46.3697 124.403 45.3863 125.386C44.4029 126.37 43.7517 127.636 43.5238 129.008C43.2959 130.38 43.5028 131.789 44.1154 133.037C44.7281 134.286 45.7159 135.311 46.9405 135.97C48.165 136.63 49.5651 136.889 50.9446 136.713" stroke="#1E1F24" stroke-linecap="round" stroke-linejoin="round"/>
</g>
<path d="M72.5204 130.236C72.5204 131.156 72.3542 131.952 72.0219 132.622C71.6895 133.293 71.2335 133.81 70.654 134.173C70.0744 134.537 69.4125 134.719 68.6682 134.719C67.9238 134.719 67.2619 134.537 66.6824 134.173C66.1028 133.81 65.6469 133.293 65.3145 132.622C64.9821 131.952 64.8159 131.156 64.8159 130.236C64.8159 129.316 64.9821 128.52 65.3145 127.85C65.6469 127.179 66.1028 126.662 66.6824 126.298C67.2619 125.935 67.9238 125.753 68.6682 125.753C69.4125 125.753 70.0744 125.935 70.654 126.298C71.2335 126.662 71.6895 127.179 72.0219 127.85C72.3542 128.52 72.5204 129.316 72.5204 130.236ZM71.4977 130.236C71.4977 129.48 71.3713 128.843 71.1184 128.323C70.8684 127.803 70.529 127.409 70.1 127.142C69.6738 126.875 69.1966 126.742 68.6682 126.742C68.1397 126.742 67.6611 126.875 67.2321 127.142C66.8059 127.409 66.4665 127.803 66.2136 128.323C65.9636 128.843 65.8386 129.48 65.8386 130.236C65.8386 130.992 65.9636 131.629 66.2136 132.149C66.4665 132.669 66.8059 133.063 67.2321 133.33C67.6611 133.597 68.1397 133.73 68.6682 133.73C69.1966 133.73 69.6738 133.597 70.1 133.33C70.529 133.063 70.8684 132.669 71.1184 132.149C71.3713 131.629 71.4977 130.992 71.4977 130.236ZM79.5133 128.054L77.0929 134.6H76.0701L73.6497 128.054H74.7406L76.5474 133.27H76.6156L78.4224 128.054H79.5133ZM83.3507 134.736C82.72 134.736 82.176 134.597 81.7186 134.318C81.264 134.037 80.9132 133.645 80.666 133.142C80.4217 132.637 80.2995 132.048 80.2995 131.378C80.2995 130.708 80.4217 130.117 80.666 129.605C80.9132 129.091 81.2569 128.691 81.6973 128.404C82.1405 128.114 82.6575 127.969 83.2484 127.969C83.5893 127.969 83.926 128.026 84.2584 128.139C84.5907 128.253 84.8933 128.438 85.166 128.693C85.4388 128.946 85.6561 129.281 85.818 129.699C85.9799 130.117 86.0609 130.631 86.0609 131.242V131.668H81.0155V130.798H85.0382C85.0382 130.429 84.9643 130.1 84.8166 129.81C84.6717 129.52 84.4643 129.291 84.1944 129.124C83.9274 128.956 83.612 128.872 83.2484 128.872C82.8478 128.872 82.5013 128.972 82.2086 129.171C81.9189 129.367 81.6959 129.622 81.5396 129.938C81.3834 130.253 81.3052 130.591 81.3052 130.952V131.531C81.3052 132.026 81.3905 132.445 81.5609 132.789C81.7342 133.129 81.9743 133.389 82.2811 133.568C82.5879 133.744 82.9444 133.833 83.3507 133.833C83.6149 133.833 83.8535 133.796 84.0666 133.722C84.2825 133.645 84.4686 133.531 84.6248 133.381C84.7811 133.227 84.9018 133.037 84.987 132.81L85.9586 133.083C85.8564 133.412 85.6845 133.702 85.443 133.952C85.2015 134.199 84.9032 134.392 84.5481 134.531C84.193 134.668 83.7939 134.736 83.3507 134.736ZM87.5907 134.6V128.054H88.5623V129.043H88.6305C88.7498 128.719 88.9657 128.456 89.2782 128.254C89.5907 128.053 89.943 127.952 90.3351 127.952C90.4089 127.952 90.5013 127.953 90.612 127.956C90.7228 127.959 90.8067 127.963 90.8635 127.969V128.992C90.8294 128.983 90.7513 128.97 90.6291 128.953C90.5098 128.933 90.3834 128.923 90.2498 128.923C89.9317 128.923 89.6476 128.99 89.3976 129.124C89.1504 129.254 88.9544 129.436 88.8095 129.669C88.6674 129.899 88.5964 130.162 88.5964 130.458V134.6H87.5907ZM95.3123 128.054V128.906H91.9203V128.054H95.3123ZM92.9089 126.486H93.9146V132.725C93.9146 133.009 93.9558 133.222 94.0382 133.364C94.1234 133.503 94.2314 133.597 94.362 133.645C94.4956 133.691 94.6362 133.713 94.7839 133.713C94.8947 133.713 94.9856 133.708 95.0567 133.696C95.1277 133.682 95.1845 133.671 95.2271 133.662L95.4317 134.566C95.3635 134.591 95.2683 134.617 95.1461 134.642C95.024 134.671 94.8692 134.685 94.6817 134.685C94.3976 134.685 94.1192 134.624 93.8464 134.502C93.5765 134.379 93.3521 134.193 93.1731 133.943C92.997 133.693 92.9089 133.378 92.9089 132.997V126.486ZM96.8251 134.6V128.054H97.8308V134.6H96.8251ZM97.3365 126.963C97.1405 126.963 96.9714 126.896 96.8294 126.763C96.6902 126.629 96.6206 126.469 96.6206 126.281C96.6206 126.094 96.6902 125.933 96.8294 125.8C96.9714 125.666 97.1405 125.6 97.3365 125.6C97.5325 125.6 97.7001 125.666 97.8393 125.8C97.9814 125.933 98.0524 126.094 98.0524 126.281C98.0524 126.469 97.9814 126.629 97.8393 126.763C97.7001 126.896 97.5325 126.963 97.3365 126.963ZM99.6728 134.6V128.054H100.644V129.077H100.73C100.866 128.727 101.086 128.456 101.39 128.263C101.694 128.067 102.059 127.969 102.485 127.969C102.917 127.969 103.276 128.067 103.563 128.263C103.853 128.456 104.079 128.727 104.241 129.077H104.309C104.477 128.739 104.728 128.47 105.063 128.271C105.399 128.07 105.801 127.969 106.269 127.969C106.855 127.969 107.333 128.152 107.705 128.519C108.078 128.882 108.264 129.449 108.264 130.219V134.6H107.258V130.219C107.258 129.736 107.126 129.391 106.862 129.183C106.597 128.976 106.286 128.872 105.928 128.872C105.468 128.872 105.112 129.012 104.859 129.29C104.606 129.566 104.48 129.915 104.48 130.338V134.6H103.457V130.117C103.457 129.744 103.336 129.445 103.095 129.218C102.853 128.987 102.542 128.872 102.161 128.872C101.9 128.872 101.656 128.942 101.428 129.081C101.204 129.22 101.022 129.414 100.883 129.661C100.747 129.905 100.678 130.188 100.678 130.509V134.6H99.6728ZM112.847 134.736C112.216 134.736 111.672 134.597 111.215 134.318C110.76 134.037 110.409 133.645 110.162 133.142C109.918 132.637 109.796 132.048 109.796 131.378C109.796 130.708 109.918 130.117 110.162 129.605C110.409 129.091 110.753 128.691 111.193 128.404C111.637 128.114 112.154 127.969 112.745 127.969C113.085 127.969 113.422 128.026 113.754 128.139C114.087 128.253 114.389 128.438 114.662 128.693C114.935 128.946 115.152 129.281 115.314 129.699C115.476 130.117 115.557 130.631 115.557 131.242V131.668H110.512V130.798H114.534C114.534 130.429 114.46 130.1 114.313 129.81C114.168 129.52 113.96 129.291 113.691 129.124C113.423 128.956 113.108 128.872 112.745 128.872C112.344 128.872 111.997 128.972 111.705 129.171C111.415 129.367 111.192 129.622 111.036 129.938C110.879 130.253 110.801 130.591 110.801 130.952V131.531C110.801 132.026 110.887 132.445 111.057 132.789C111.23 133.129 111.47 133.389 111.777 133.568C112.084 133.744 112.441 133.833 112.847 133.833C113.111 133.833 113.35 133.796 113.563 133.722C113.779 133.645 113.965 133.531 114.121 133.381C114.277 133.227 114.398 133.037 114.483 132.81L115.455 133.083C115.352 133.412 115.181 133.702 114.939 133.952C114.698 134.199 114.399 134.392 114.044 134.531C113.689 134.668 113.29 134.736 112.847 134.736Z" fill="#1E1F24"/>
<mask id="path-25-inside-4_14763_41848" fill="white">
<path d="M30.1 156.1H174.1V188.1H30.1V156.1Z"/>
</mask>
<path d="M174.1 188.1V187.35H30.1V188.1V188.85H174.1V188.1Z" fill="#B9BBC6" mask="url(#path-25-inside-4_14763_41848)"/>
<path d="M56.38 171.381C56.4993 171.328 56.6006 171.242 56.6713 171.132C56.7419 171.022 56.7789 170.894 56.7775 170.764C56.7762 170.634 56.7366 170.506 56.6637 170.398C56.5907 170.29 56.4877 170.206 56.3673 170.156L50.6533 167.553C50.4796 167.474 50.2909 167.433 50.1 167.433C49.909 167.433 49.7203 167.474 49.5466 167.553L43.8333 170.153C43.7146 170.205 43.6136 170.29 43.5427 170.399C43.4718 170.507 43.4341 170.634 43.4341 170.764C43.4341 170.893 43.4718 171.02 43.5427 171.128C43.6136 171.237 43.7146 171.322 43.8333 171.374L49.5466 173.98C49.7203 174.059 49.909 174.1 50.1 174.1C50.2909 174.1 50.4796 174.059 50.6533 173.98L56.38 171.381Z" stroke="#1E1F24" stroke-linecap="round" stroke-linejoin="round"/>
<path d="M56.7667 170.767V174.767" stroke="#1E1F24" stroke-linecap="round" stroke-linejoin="round"/>
<path d="M46.1 172.433V174.766C46.1 175.296 46.5214 175.805 47.2715 176.18C48.0217 176.555 49.0391 176.766 50.1 176.766C51.1608 176.766 52.1783 176.555 52.9284 176.18C53.6785 175.805 54.1 175.296 54.1 174.766V172.433" stroke="#1E1F24" stroke-linecap="round" stroke-linejoin="round"/>
<path d="M64.6795 168.81V167.872H71.225V168.81H68.4807V176.6H67.4238V168.81H64.6795ZM72.04 176.6V170.054H73.0116V171.043H73.0797C73.1991 170.719 73.415 170.456 73.7275 170.254C74.04 170.053 74.3922 169.952 74.7843 169.952C74.8581 169.952 74.9505 169.953 75.0613 169.956C75.1721 169.959 75.2559 169.963 75.3127 169.969V170.992C75.2786 170.983 75.2005 170.97 75.0783 170.953C74.959 170.933 74.8326 170.923 74.6991 170.923C74.3809 170.923 74.0968 170.99 73.8468 171.124C73.5996 171.254 73.4036 171.436 73.2587 171.669C73.1167 171.899 73.0456 172.162 73.0456 172.458V176.6H72.04ZM78.4309 176.753C78.0162 176.753 77.6397 176.675 77.3017 176.519C76.9636 176.36 76.6951 176.131 76.4963 175.833C76.2974 175.531 76.198 175.168 76.198 174.742C76.198 174.367 76.2719 174.063 76.4196 173.83C76.5673 173.594 76.7647 173.409 77.0119 173.276C77.2591 173.142 77.5318 173.043 77.8301 172.977C78.1312 172.909 78.4338 172.855 78.7378 172.816C79.1355 172.764 79.4579 172.726 79.7051 172.7C79.9551 172.672 80.1369 172.625 80.2505 172.56C80.367 172.494 80.4253 172.381 80.4253 172.219V172.185C80.4253 171.764 80.3102 171.438 80.0801 171.205C79.8528 170.972 79.5076 170.855 79.0446 170.855C78.5645 170.855 78.188 170.96 77.9153 171.171C77.6426 171.381 77.4508 171.605 77.34 171.844L76.3855 171.503C76.5559 171.105 76.7832 170.796 77.0673 170.574C77.3542 170.35 77.6667 170.193 78.0048 170.105C78.3457 170.014 78.6809 169.969 79.0105 169.969C79.2207 169.969 79.4622 169.994 79.7349 170.046C80.0105 170.094 80.2761 170.195 80.5318 170.348C80.7903 170.502 81.0048 170.733 81.1753 171.043C81.3457 171.352 81.4309 171.767 81.4309 172.287V176.6H80.4253V175.713H80.3741C80.3059 175.855 80.1923 176.007 80.0332 176.169C79.8741 176.331 79.6625 176.469 79.3983 176.583C79.1341 176.696 78.8116 176.753 78.4309 176.753ZM78.5844 175.85C78.9821 175.85 79.3173 175.771 79.59 175.615C79.8656 175.459 80.073 175.257 80.2122 175.01C80.3542 174.763 80.4253 174.503 80.4253 174.23V173.31C80.3826 173.361 80.2889 173.408 80.144 173.45C80.002 173.49 79.8372 173.526 79.6497 173.557C79.465 173.585 79.2846 173.611 79.1085 173.634C78.9352 173.654 78.7946 173.671 78.6866 173.685C78.4253 173.719 78.1809 173.774 77.9537 173.851C77.7292 173.925 77.5474 174.037 77.4082 174.188C77.2719 174.335 77.2037 174.537 77.2037 174.793C77.2037 175.142 77.3329 175.406 77.5915 175.585C77.8528 175.762 78.1838 175.85 78.5844 175.85ZM83.2665 176.6V170.054H84.2722V176.6H83.2665ZM83.7779 168.963C83.5819 168.963 83.4128 168.896 83.2708 168.763C83.1316 168.629 83.062 168.469 83.062 168.281C83.062 168.094 83.1316 167.933 83.2708 167.8C83.4128 167.666 83.5819 167.6 83.7779 167.6C83.9739 167.6 84.1415 167.666 84.2807 167.8C84.4228 167.933 84.4938 168.094 84.4938 168.281C84.4938 168.469 84.4228 168.629 84.2807 168.763C84.1415 168.896 83.9739 168.963 83.7779 168.963ZM87.1199 172.662V176.6H86.1142V170.054H87.0858V171.077H87.171C87.3244 170.744 87.5574 170.477 87.8699 170.276C88.1824 170.071 88.5858 169.969 89.0801 169.969C89.5233 169.969 89.9111 170.06 90.2434 170.242C90.5758 170.421 90.8344 170.693 91.019 171.06C91.2037 171.423 91.296 171.884 91.296 172.441V176.6H90.2903V172.509C90.2903 171.994 90.1568 171.594 89.8897 171.307C89.6227 171.017 89.2562 170.872 88.7903 170.872C88.4693 170.872 88.1824 170.942 87.9295 171.081C87.6795 171.22 87.4821 171.423 87.3372 171.691C87.1923 171.958 87.1199 172.281 87.1199 172.662ZM93.1337 176.6V170.054H94.1394V176.6H93.1337ZM93.6451 168.963C93.4491 168.963 93.28 168.896 93.138 168.763C92.9988 168.629 92.9292 168.469 92.9292 168.281C92.9292 168.094 92.9988 167.933 93.138 167.8C93.28 167.666 93.4491 167.6 93.6451 167.6C93.8411 167.6 94.0087 167.666 94.1479 167.8C94.29 167.933 94.361 168.094 94.361 168.281C94.361 168.469 94.29 168.629 94.1479 168.763C94.0087 168.896 93.8411 168.963 93.6451 168.963ZM96.987 172.662V176.6H95.9814V170.054H96.953V171.077H97.0382C97.1916 170.744 97.4245 170.477 97.737 170.276C98.0495 170.071 98.453 169.969 98.9473 169.969C99.3905 169.969 99.7782 170.06 100.111 170.242C100.443 170.421 100.702 170.693 100.886 171.06C101.071 171.423 101.163 171.884 101.163 172.441V176.6H100.158V172.509C100.158 171.994 100.024 171.594 99.7569 171.307C99.4899 171.017 99.1234 170.872 98.6575 170.872C98.3365 170.872 98.0495 170.942 97.7967 171.081C97.5467 171.22 97.3493 171.423 97.2044 171.691C97.0595 171.958 96.987 172.281 96.987 172.662ZM105.643 179.191C105.157 179.191 104.74 179.128 104.39 179.003C104.041 178.881 103.749 178.719 103.517 178.517C103.286 178.318 103.103 178.105 102.967 177.878L103.768 177.316C103.859 177.435 103.974 177.571 104.113 177.725C104.252 177.881 104.443 178.016 104.684 178.129C104.928 178.246 105.248 178.304 105.643 178.304C106.171 178.304 106.607 178.176 106.951 177.921C107.295 177.665 107.467 177.264 107.467 176.719V175.389H107.382C107.308 175.509 107.203 175.656 107.066 175.833C106.933 176.006 106.74 176.161 106.487 176.297C106.237 176.431 105.899 176.497 105.472 176.497C104.944 176.497 104.47 176.372 104.049 176.122C103.632 175.872 103.301 175.509 103.056 175.031C102.815 174.554 102.694 173.975 102.694 173.293C102.694 172.622 102.812 172.039 103.048 171.541C103.284 171.041 103.612 170.655 104.032 170.382C104.453 170.107 104.938 169.969 105.49 169.969C105.916 169.969 106.254 170.04 106.504 170.182C106.757 170.321 106.95 170.48 107.083 170.659C107.22 170.835 107.325 170.98 107.399 171.094H107.501V170.054H108.472V176.787C108.472 177.35 108.345 177.807 108.089 178.159C107.836 178.514 107.495 178.774 107.066 178.939C106.64 179.107 106.166 179.191 105.643 179.191ZM105.609 175.594C106.012 175.594 106.353 175.502 106.632 175.317C106.91 175.132 107.122 174.867 107.267 174.52C107.411 174.173 107.484 173.759 107.484 173.276C107.484 172.804 107.413 172.388 107.271 172.027C107.129 171.666 106.919 171.384 106.64 171.179C106.362 170.975 106.018 170.872 105.609 170.872C105.183 170.872 104.828 170.98 104.544 171.196C104.262 171.412 104.051 171.702 103.909 172.066C103.769 172.429 103.7 172.833 103.7 173.276C103.7 173.73 103.771 174.132 103.913 174.482C104.058 174.828 104.271 175.101 104.552 175.3C104.836 175.496 105.188 175.594 105.609 175.594Z" fill="#1E1F24"/>
<mask id="path-31-inside-5_14763_41848" fill="white">
<path d="M30.1 198.1H174.1V230.1H30.1V198.1Z"/>
</mask>
<path d="M174.1 230.1V229.35H30.1V230.1V230.85H174.1V230.1Z" fill="#B9BBC6" mask="url(#path-31-inside-5_14763_41848)"/>
<path d="M49.4333 219.433H43.4333" stroke="#1E1F24" stroke-linecap="round" stroke-linejoin="round"/>
<path d="M49.4333 209.141V219.912C49.4333 220.013 49.4564 220.113 49.5008 220.204C49.5452 220.295 49.6098 220.375 49.6896 220.437C49.7694 220.5 49.8624 220.543 49.9614 220.564C50.0605 220.585 50.163 220.583 50.2613 220.559L54.7666 219.433V209.807C54.7666 209.51 54.6672 209.221 54.4842 208.987C54.3012 208.753 54.0451 208.586 53.7566 208.514L51.09 207.847C50.8935 207.798 50.6883 207.795 50.4902 207.837C50.2921 207.879 50.1061 207.965 49.9464 208.09C49.7867 208.214 49.6575 208.374 49.5686 208.556C49.4797 208.738 49.4334 208.938 49.4333 209.141Z" stroke="#1E1F24" stroke-linecap="round" stroke-linejoin="round"/>
<path d="M49.4333 208.767H47.4333C47.0797 208.767 46.7405 208.907 46.4905 209.157C46.2405 209.407 46.1 209.746 46.1 210.1V219.433" stroke="#1E1F24" stroke-linecap="round" stroke-linejoin="round"/>
<path d="M51.4333 214.1H51.44" stroke="#1E1F24" stroke-linecap="round" stroke-linejoin="round"/>
<path d="M56.7667 219.433H54.7667" stroke="#1E1F24" stroke-linecap="round" stroke-linejoin="round"/>
<path d="M65.1568 218.6V209.872H68.1057C68.7903 209.872 69.35 209.996 69.7846 210.243C70.2221 210.487 70.546 210.818 70.7562 211.236C70.9665 211.654 71.0716 212.119 71.0716 212.634C71.0716 213.148 70.9665 213.615 70.7562 214.036C70.5488 214.456 70.2278 214.791 69.7932 215.041C69.3585 215.289 68.8017 215.412 68.1227 215.412H66.0091V214.475H68.0886C68.5574 214.475 68.9338 214.394 69.2179 214.232C69.502 214.07 69.7079 213.851 69.8358 213.575C69.9665 213.297 70.0318 212.983 70.0318 212.634C70.0318 212.284 69.9665 211.972 69.8358 211.696C69.7079 211.421 69.5005 211.205 69.2136 211.048C68.9267 210.889 68.546 210.81 68.0716 210.81H66.2136V218.6H65.1568ZM75.3116 218.736C74.6809 218.736 74.1369 218.597 73.6795 218.318C73.225 218.037 72.8741 217.645 72.627 217.142C72.3826 216.637 72.2605 216.048 72.2605 215.378C72.2605 214.708 72.3826 214.117 72.627 213.605C72.8741 213.091 73.2179 212.691 73.6582 212.404C74.1014 212.114 74.6184 211.969 75.2094 211.969C75.5503 211.969 75.8869 212.026 76.2193 212.139C76.5517 212.253 76.8542 212.438 77.127 212.693C77.3997 212.946 77.617 213.281 77.779 213.699C77.9409 214.117 78.0219 214.631 78.0219 215.242V215.668H72.9764V214.798H76.9991C76.9991 214.429 76.9253 214.1 76.7775 213.81C76.6326 213.52 76.4253 213.291 76.1554 213.124C75.8883 212.956 75.573 212.872 75.2094 212.872C74.8088 212.872 74.4622 212.972 74.1696 213.171C73.8798 213.367 73.6568 213.622 73.5005 213.938C73.3443 214.253 73.2662 214.591 73.2662 214.952V215.531C73.2662 216.026 73.3514 216.445 73.5219 216.789C73.6951 217.129 73.9352 217.389 74.242 217.568C74.5488 217.744 74.9054 217.833 75.3116 217.833C75.5758 217.833 75.8145 217.796 76.0275 217.722C76.2434 217.645 76.4295 217.531 76.5858 217.381C76.742 217.227 76.8628 217.037 76.948 216.81L77.9196 217.083C77.8173 217.412 77.6454 217.702 77.404 217.952C77.1625 218.199 76.8642 218.392 76.5091 218.531C76.154 218.668 75.7548 218.736 75.3116 218.736ZM79.5517 218.6V212.054H80.5233V213.043H80.5915C80.7108 212.719 80.9267 212.456 81.2392 212.254C81.5517 212.053 81.904 211.952 82.296 211.952C82.3699 211.952 82.4622 211.953 82.573 211.956C82.6838 211.959 82.7676 211.963 82.8244 211.969V212.992C82.7903 212.983 82.7122 212.97 82.59 212.953C82.4707 212.933 82.3443 212.923 82.2108 212.923C81.8926 212.923 81.6085 212.99 81.3585 213.124C81.1113 213.254 80.9153 213.436 80.7704 213.669C80.6284 213.899 80.5574 214.162 80.5574 214.458V218.6H79.5517ZM84.0165 218.6V212.054H84.9881V213.077H85.0733C85.2097 212.727 85.4299 212.456 85.7339 212.263C86.0378 212.067 86.4029 211.969 86.829 211.969C87.2608 211.969 87.6202 212.067 87.9071 212.263C88.1969 212.456 88.4228 212.727 88.5847 213.077H88.6529C88.8205 212.739 89.0719 212.47 89.4071 212.271C89.7424 212.07 90.1444 211.969 90.6131 211.969C91.1983 211.969 91.677 212.152 92.0492 212.519C92.4214 212.882 92.6074 213.449 92.6074 214.219V218.6H91.6018V214.219C91.6018 213.736 91.4696 213.391 91.2054 213.183C90.9412 212.976 90.6302 212.872 90.2722 212.872C89.812 212.872 89.4554 213.012 89.2026 213.29C88.9498 213.566 88.8233 213.915 88.8233 214.338V218.6H87.8006V214.117C87.8006 213.744 87.6799 213.445 87.4384 213.218C87.1969 212.987 86.8858 212.872 86.5052 212.872C86.2438 212.872 85.9995 212.942 85.7722 213.081C85.5478 213.22 85.366 213.414 85.2268 213.661C85.0904 213.905 85.0222 214.188 85.0222 214.509V218.6H84.0165ZM94.4462 218.6V212.054H95.4519V218.6H94.4462ZM94.9576 210.963C94.7616 210.963 94.5925 210.896 94.4505 210.763C94.3113 210.629 94.2417 210.469 94.2417 210.281C94.2417 210.094 94.3113 209.933 94.4505 209.8C94.5925 209.666 94.7616 209.6 94.9576 209.6C95.1536 209.6 95.3212 209.666 95.4604 209.8C95.6025 209.933 95.6735 210.094 95.6735 210.281C95.6735 210.469 95.6025 210.629 95.4604 210.763C95.3212 210.896 95.1536 210.963 94.9576 210.963ZM101.93 213.52L101.027 213.776C100.97 213.625 100.886 213.479 100.775 213.337C100.667 213.192 100.52 213.073 100.332 212.979C100.145 212.885 99.9047 212.838 99.612 212.838C99.2115 212.838 98.8777 212.931 98.6106 213.115C98.3464 213.297 98.2143 213.529 98.2143 213.81C98.2143 214.06 98.3052 214.257 98.487 214.402C98.6689 214.547 98.953 214.668 99.3393 214.764L100.311 215.003C100.896 215.145 101.332 215.362 101.619 215.655C101.906 215.945 102.05 216.318 102.05 216.776C102.05 217.151 101.942 217.486 101.726 217.781C101.513 218.077 101.214 218.31 100.831 218.48C100.447 218.651 100.001 218.736 99.4927 218.736C98.8251 218.736 98.2726 218.591 97.8351 218.301C97.3976 218.012 97.1206 217.588 97.0041 217.031L97.9586 216.793C98.0495 217.145 98.2214 217.409 98.4743 217.585C98.7299 217.762 99.0638 217.85 99.4757 217.85C99.9444 217.85 100.317 217.75 100.592 217.551C100.871 217.35 101.01 217.108 101.01 216.827C101.01 216.6 100.93 216.409 100.771 216.256C100.612 216.1 100.368 215.983 100.038 215.906L98.9473 215.651C98.3478 215.509 97.9075 215.289 97.6263 214.99C97.3478 214.689 97.2086 214.313 97.2086 213.861C97.2086 213.492 97.3123 213.165 97.5197 212.881C97.7299 212.597 98.0155 212.374 98.3763 212.212C98.7399 212.05 99.1518 211.969 99.612 211.969C100.26 211.969 100.768 212.111 101.138 212.395C101.51 212.679 101.774 213.054 101.93 213.52ZM108.2 213.52L107.296 213.776C107.24 213.625 107.156 213.479 107.045 213.337C106.937 213.192 106.789 213.073 106.602 212.979C106.414 212.885 106.174 212.838 105.882 212.838C105.481 212.838 105.147 212.931 104.88 213.115C104.616 213.297 104.484 213.529 104.484 213.81C104.484 214.06 104.575 214.257 104.757 214.402C104.938 214.547 105.222 214.668 105.609 214.764L106.58 215.003C107.166 215.145 107.602 215.362 107.889 215.655C108.176 215.945 108.319 216.318 108.319 216.776C108.319 217.151 108.211 217.486 107.995 217.781C107.782 218.077 107.484 218.31 107.1 218.48C106.717 218.651 106.271 218.736 105.762 218.736C105.095 218.736 104.542 218.591 104.105 218.301C103.667 218.012 103.39 217.588 103.274 217.031L104.228 216.793C104.319 217.145 104.491 217.409 104.744 217.585C104.999 217.762 105.333 217.85 105.745 217.85C106.214 217.85 106.586 217.75 106.862 217.551C107.14 217.35 107.279 217.108 107.279 216.827C107.279 216.6 107.2 216.409 107.041 216.256C106.882 216.1 106.637 215.983 106.308 215.906L105.217 215.651C104.617 215.509 104.177 215.289 103.896 214.99C103.617 214.689 103.478 214.313 103.478 213.861C103.478 213.492 103.582 213.165 103.789 212.881C103.999 212.597 104.285 212.374 104.646 212.212C105.009 212.05 105.421 211.969 105.882 211.969C106.529 211.969 107.038 212.111 107.407 212.395C107.779 212.679 108.044 213.054 108.2 213.52ZM109.833 218.6V212.054H110.839V218.6H109.833ZM110.344 210.963C110.148 210.963 109.979 210.896 109.837 210.763C109.698 210.629 109.628 210.469 109.628 210.281C109.628 210.094 109.698 209.933 109.837 209.8C109.979 209.666 110.148 209.6 110.344 209.6C110.54 209.6 110.708 209.666 110.847 209.8C110.989 209.933 111.06 210.094 111.06 210.281C111.06 210.469 110.989 210.629 110.847 210.763C110.708 210.896 110.54 210.963 110.344 210.963ZM115.34 218.736C114.749 218.736 114.23 218.595 113.784 218.314C113.341 218.033 112.995 217.639 112.745 217.134C112.497 216.628 112.374 216.037 112.374 215.361C112.374 214.679 112.497 214.084 112.745 213.575C112.995 213.067 113.341 212.672 113.784 212.391C114.23 212.11 114.749 211.969 115.34 211.969C115.931 211.969 116.448 212.11 116.891 212.391C117.337 212.672 117.683 213.067 117.931 213.575C118.181 214.084 118.306 214.679 118.306 215.361C118.306 216.037 118.181 216.628 117.931 217.134C117.683 217.639 117.337 218.033 116.891 218.314C116.448 218.595 115.931 218.736 115.34 218.736ZM115.34 217.833C115.789 217.833 116.158 217.718 116.448 217.487C116.737 217.257 116.952 216.955 117.091 216.58C117.23 216.205 117.3 215.798 117.3 215.361C117.3 214.923 117.23 214.516 117.091 214.138C116.952 213.76 116.737 213.455 116.448 213.222C116.158 212.989 115.789 212.872 115.34 212.872C114.891 212.872 114.521 212.989 114.232 213.222C113.942 213.455 113.727 213.76 113.588 214.138C113.449 214.516 113.379 214.923 113.379 215.361C113.379 215.798 113.449 216.205 113.588 216.58C113.727 216.955 113.942 217.257 114.232 217.487C114.521 217.718 114.891 217.833 115.34 217.833ZM120.846 214.662V218.6H119.841V212.054H120.812V213.077H120.898C121.051 212.744 121.284 212.477 121.596 212.276C121.909 212.071 122.312 211.969 122.807 211.969C123.25 211.969 123.638 212.06 123.97 212.242C124.302 212.421 124.561 212.693 124.746 213.06C124.93 213.423 125.023 213.884 125.023 214.441V218.6H124.017V214.509C124.017 213.994 123.883 213.594 123.616 213.307C123.349 213.017 122.983 212.872 122.517 212.872C122.196 212.872 121.909 212.942 121.656 213.081C121.406 213.22 121.209 213.423 121.064 213.691C120.919 213.958 120.846 214.281 120.846 214.662Z" fill="#1E1F24"/>
<path d="M48.4333 257.343C48.907 256.966 49.4952 256.761 50.1011 256.762C50.707 256.763 51.2944 256.97 51.7666 257.35" stroke="#1E1F24" stroke-linecap="round" stroke-linejoin="round"/>
<path d="M50.1 259.433H50.1066" stroke="#1E1F24" stroke-linecap="round" stroke-linejoin="round"/>
<path d="M44.1 254.766C44.0999 254.572 44.1422 254.381 44.2238 254.205C44.3055 254.029 44.4245 253.873 44.5726 253.748L49.2393 249.748C49.48 249.544 49.7849 249.433 50.1 249.433C50.4151 249.433 50.72 249.544 50.9606 249.748L55.6273 253.748C55.7754 253.873 55.8945 254.029 55.9761 254.205C56.0578 254.381 56.1 254.572 56.1 254.766V260.766C56.1 261.12 55.9595 261.459 55.7095 261.709C55.4594 261.959 55.1203 262.1 54.7666 262.1H45.4333C45.0797 262.1 44.7405 261.959 44.4905 261.709C44.2405 261.459 44.1 261.12 44.1 260.766V254.766Z" stroke="#1E1F24" stroke-linecap="round" stroke-linejoin="round"/>
<path d="M46.7667 255.269C47.7126 254.511 48.8882 254.099 50.1 254.099C51.3118 254.099 52.4874 254.511 53.4333 255.269" stroke="#1E1F24" stroke-linecap="round" stroke-linejoin="round"/>
<path d="M66.742 260.6L64.3557 251.872H65.4295L67.2534 258.98H67.3386L69.1966 251.872H70.3897L72.2477 258.98H72.3329L74.1568 251.872H75.2307L72.8443 260.6H71.7534L69.8272 253.645H69.7591L67.8329 260.6H66.742ZM78.4608 260.736C77.8699 260.736 77.3514 260.595 76.9054 260.314C76.4622 260.033 76.1156 259.639 75.8656 259.134C75.6184 258.628 75.4949 258.037 75.4949 257.361C75.4949 256.679 75.6184 256.084 75.8656 255.575C76.1156 255.067 76.4622 254.672 76.9054 254.391C77.3514 254.11 77.8699 253.969 78.4608 253.969C79.0517 253.969 79.5687 254.11 80.0119 254.391C80.4579 254.672 80.8045 255.067 81.0517 255.575C81.3017 256.084 81.4267 256.679 81.4267 257.361C81.4267 258.037 81.3017 258.628 81.0517 259.134C80.8045 259.639 80.4579 260.033 80.0119 260.314C79.5687 260.595 79.0517 260.736 78.4608 260.736ZM78.4608 259.833C78.9096 259.833 79.279 259.718 79.5687 259.487C79.8585 259.257 80.073 258.955 80.2122 258.58C80.3514 258.205 80.421 257.798 80.421 257.361C80.421 256.923 80.3514 256.516 80.2122 256.138C80.073 255.76 79.8585 255.455 79.5687 255.222C79.279 254.989 78.9096 254.872 78.4608 254.872C78.0119 254.872 77.6426 254.989 77.3528 255.222C77.063 255.455 76.8486 255.76 76.7094 256.138C76.5701 256.516 76.5005 256.923 76.5005 257.361C76.5005 257.798 76.5701 258.205 76.7094 258.58C76.8486 258.955 77.063 259.257 77.3528 259.487C77.6426 259.718 78.0119 259.833 78.4608 259.833ZM82.9618 260.6V254.054H83.9334V255.043H84.0016C84.1209 254.719 84.3368 254.456 84.6493 254.254C84.9618 254.053 85.3141 253.952 85.7062 253.952C85.78 253.952 85.8723 253.953 85.9831 253.956C86.0939 253.959 86.1777 253.963 86.2346 253.969V254.992C86.2005 254.983 86.1223 254.97 86.0002 254.953C85.8809 254.933 85.7545 254.923 85.6209 254.923C85.3027 254.923 85.0187 254.99 84.7687 255.124C84.5215 255.254 84.3255 255.436 84.1806 255.669C84.0385 255.899 83.9675 256.162 83.9675 256.458V260.6H82.9618ZM88.3642 258.213L88.3471 256.969H88.5517L91.4153 254.054H92.6596L89.6085 257.139H89.5233L88.3642 258.213ZM87.4267 260.6V251.872H88.4324V260.6H87.4267ZM91.5858 260.6L89.029 257.361L89.7449 256.662L92.8642 260.6H91.5858ZM97.4654 260.6V251.872H102.698V252.81H98.5222V255.759H102.306V256.696H98.5222V260.6H97.4654ZM104.302 260.6V254.054H105.273V255.043H105.341C105.461 254.719 105.677 254.456 105.989 254.254C106.302 254.053 106.654 253.952 107.046 253.952C107.12 253.952 107.212 253.953 107.323 253.956C107.434 253.959 107.518 253.963 107.574 253.969V254.992C107.54 254.983 107.462 254.97 107.34 254.953C107.221 254.933 107.094 254.923 106.961 254.923C106.643 254.923 106.358 254.99 106.108 255.124C105.861 255.254 105.665 255.436 105.52 255.669C105.378 255.899 105.307 256.162 105.307 256.458V260.6H104.302ZM111.226 260.736C110.635 260.736 110.117 260.595 109.671 260.314C109.228 260.033 108.881 259.639 108.631 259.134C108.384 258.628 108.26 258.037 108.26 257.361C108.26 256.679 108.384 256.084 108.631 255.575C108.881 255.067 109.228 254.672 109.671 254.391C110.117 254.11 110.635 253.969 111.226 253.969C111.817 253.969 112.334 254.11 112.778 254.391C113.224 254.672 113.57 255.067 113.817 255.575C114.067 256.084 114.192 256.679 114.192 257.361C114.192 258.037 114.067 258.628 113.817 259.134C113.57 259.639 113.224 260.033 112.778 260.314C112.334 260.595 111.817 260.736 111.226 260.736ZM111.226 259.833C111.675 259.833 112.045 259.718 112.334 259.487C112.624 259.257 112.839 258.955 112.978 258.58C113.117 258.205 113.187 257.798 113.187 257.361C113.187 256.923 113.117 256.516 112.978 256.138C112.839 255.76 112.624 255.455 112.334 255.222C112.045 254.989 111.675 254.872 111.226 254.872C110.778 254.872 110.408 254.989 110.118 255.222C109.829 255.455 109.614 255.76 109.475 256.138C109.336 256.516 109.266 256.923 109.266 257.361C109.266 257.798 109.336 258.205 109.475 258.58C109.614 258.955 109.829 259.257 110.118 259.487C110.408 259.718 110.778 259.833 111.226 259.833ZM115.727 260.6V254.054H116.699V255.077H116.784C116.921 254.727 117.141 254.456 117.445 254.263C117.749 254.067 118.114 253.969 118.54 253.969C118.972 253.969 119.331 254.067 119.618 254.263C119.908 254.456 120.134 254.727 120.296 255.077H120.364C120.531 254.739 120.783 254.47 121.118 254.271C121.453 254.07 121.855 253.969 122.324 253.969C122.909 253.969 123.388 254.152 123.76 254.519C124.132 254.882 124.318 255.449 124.318 256.219V260.6H123.313V256.219C123.313 255.736 123.181 255.391 122.916 255.183C122.652 254.976 122.341 254.872 121.983 254.872C121.523 254.872 121.166 255.012 120.914 255.29C120.661 255.566 120.534 255.915 120.534 256.338V260.6H119.512V256.117C119.512 255.744 119.391 255.445 119.149 255.218C118.908 254.987 118.597 254.872 118.216 254.872C117.955 254.872 117.71 254.942 117.483 255.081C117.259 255.22 117.077 255.414 116.938 255.661C116.801 255.905 116.733 256.188 116.733 256.509V260.6H115.727ZM129.669 260.6V251.872H130.725V255.759H135.379V251.872H136.436V260.6H135.379V256.696H130.725V260.6H129.669ZM141.074 260.736C140.483 260.736 139.965 260.595 139.519 260.314C139.075 260.033 138.729 259.639 138.479 259.134C138.232 258.628 138.108 258.037 138.108 257.361C138.108 256.679 138.232 256.084 138.479 255.575C138.729 255.067 139.075 254.672 139.519 254.391C139.965 254.11 140.483 253.969 141.074 253.969C141.665 253.969 142.182 254.11 142.625 254.391C143.071 254.672 143.418 255.067 143.665 255.575C143.915 256.084 144.04 256.679 144.04 257.361C144.04 258.037 143.915 258.628 143.665 259.134C143.418 259.639 143.071 260.033 142.625 260.314C142.182 260.595 141.665 260.736 141.074 260.736ZM141.074 259.833C141.523 259.833 141.892 259.718 142.182 259.487C142.472 259.257 142.686 258.955 142.825 258.58C142.965 258.205 143.034 257.798 143.034 257.361C143.034 256.923 142.965 256.516 142.825 256.138C142.686 255.76 142.472 255.455 142.182 255.222C141.892 254.989 141.523 254.872 141.074 254.872C140.625 254.872 140.256 254.989 139.966 255.222C139.676 255.455 139.462 255.76 139.323 256.138C139.183 256.516 139.114 256.923 139.114 257.361C139.114 257.798 139.183 258.205 139.323 258.58C139.462 258.955 139.676 259.257 139.966 259.487C140.256 259.718 140.625 259.833 141.074 259.833ZM145.575 260.6V254.054H146.547V255.077H146.632C146.768 254.727 146.988 254.456 147.292 254.263C147.596 254.067 147.961 253.969 148.388 253.969C148.819 253.969 149.179 254.067 149.466 254.263C149.756 254.456 149.981 254.727 150.143 255.077H150.211C150.379 254.739 150.631 254.47 150.966 254.271C151.301 254.07 151.703 253.969 152.172 253.969C152.757 253.969 153.236 254.152 153.608 254.519C153.98 254.882 154.166 255.449 154.166 256.219V260.6H153.16V256.219C153.16 255.736 153.028 255.391 152.764 255.183C152.5 254.976 152.189 254.872 151.831 254.872C151.371 254.872 151.014 255.012 150.761 255.29C150.508 255.566 150.382 255.915 150.382 256.338V260.6H149.359V256.117C149.359 255.744 149.238 255.445 148.997 255.218C148.756 254.987 148.444 254.872 148.064 254.872C147.802 254.872 147.558 254.942 147.331 255.081C147.106 255.22 146.925 255.414 146.785 255.661C146.649 255.905 146.581 256.188 146.581 256.509V260.6H145.575ZM158.749 260.736C158.118 260.736 157.574 260.597 157.117 260.318C156.662 260.037 156.312 259.645 156.064 259.142C155.82 258.637 155.698 258.048 155.698 257.378C155.698 256.708 155.82 256.117 156.064 255.605C156.312 255.091 156.655 254.691 157.096 254.404C157.539 254.114 158.056 253.969 158.647 253.969C158.988 253.969 159.324 254.026 159.657 254.139C159.989 254.253 160.292 254.438 160.564 254.693C160.837 254.946 161.055 255.281 161.216 255.699C161.378 256.117 161.459 256.631 161.459 257.242V257.668H156.414V256.798H160.437C160.437 256.429 160.363 256.1 160.215 255.81C160.07 255.52 159.863 255.291 159.593 255.124C159.326 254.956 159.01 254.872 158.647 254.872C158.246 254.872 157.9 254.972 157.607 255.171C157.317 255.367 157.094 255.622 156.938 255.938C156.782 256.253 156.704 256.591 156.704 256.952V257.531C156.704 258.026 156.789 258.445 156.959 258.789C157.133 259.129 157.373 259.389 157.68 259.568C157.986 259.744 158.343 259.833 158.749 259.833C159.013 259.833 159.252 259.796 159.465 259.722C159.681 259.645 159.867 259.531 160.023 259.381C160.18 259.227 160.3 259.037 160.385 258.81L161.357 259.083C161.255 259.412 161.083 259.702 160.841 259.952C160.6 260.199 160.302 260.392 159.947 260.531C159.591 260.668 159.192 260.736 158.749 260.736Z" fill="#1E1F24"/>
<g opacity="0.32" filter="url(#filter1_f_14763_41848)">
<ellipse cx="102.1" cy="-17.9004" rx="84" ry="50" fill="#4169E1"/>
</g>
<g opacity="0.32" filter="url(#filter2_f_14763_41848)">
<ellipse cx="102.1" cy="320.1" rx="84" ry="50" fill="#4169E1"/>
</g>
</g>
<rect x="19.1" y="19.0996" width="166" height="264" rx="7" stroke="white" stroke-width="2" shape-rendering="crispEdges"/>
</g>
<defs>
<filter id="filter0_d_14763_41848" x="-2.47955e-05" y="-0.000391006" width="204.2" height="302.2" filterUnits="userSpaceOnUse" color-interpolation-filters="sRGB">
<feFlood flood-opacity="0" result="BackgroundImageFix"/>
<feColorMatrix in="SourceAlpha" type="matrix" values="0 0 0 0 0 0 0 0 0 0 0 0 0 0 0 0 0 0 127 0" result="hardAlpha"/>
<feMorphology radius="1" operator="dilate" in="SourceAlpha" result="effect1_dropShadow_14763_41848"/>
<feOffset/>
<feGaussianBlur stdDeviation="8.55"/>
<feComposite in2="hardAlpha" operator="out"/>
<feColorMatrix type="matrix" values="0 0 0 0 0.254902 0 0 0 0 0.411765 0 0 0 0 0.882353 0 0 0 0.32 0"/>
<feBlend mode="normal" in2="BackgroundImageFix" result="effect1_dropShadow_14763_41848"/>
<feBlend mode="normal" in="BackgroundImageFix" in2="effect1_dropShadow_14763_41848" result="BackgroundImageFix"/>
<feBlend mode="normal" in="SourceGraphic" in2="BackgroundImageFix" result="shape"/>
</filter>
<filter id="filter1_f_14763_41848" x="-98.5" y="-184.5" width="401.2" height="333.2" filterUnits="userSpaceOnUse" color-interpolation-filters="sRGB">
<feFlood flood-opacity="0" result="BackgroundImageFix"/>
<feBlend mode="normal" in="SourceGraphic" in2="BackgroundImageFix" result="shape"/>
<feGaussianBlur stdDeviation="58.3" result="effect1_foregroundBlur_14763_41848"/>
</filter>
<filter id="filter2_f_14763_41848" x="-98.5" y="153.5" width="401.2" height="333.2" filterUnits="userSpaceOnUse" color-interpolation-filters="sRGB">
<feFlood flood-opacity="0" result="BackgroundImageFix"/>
<feBlend mode="normal" in="SourceGraphic" in2="BackgroundImageFix" result="shape"/>
<feGaussianBlur stdDeviation="58.3" result="effect1_foregroundBlur_14763_41848"/>
</filter>
<clipPath id="clip0_14763_41848">
<rect x="18.1" y="18.0996" width="168" height="266" rx="8" fill="white"/>
</clipPath>
<clipPath id="clip1_14763_41848">
<rect width="16" height="16" fill="white" transform="translate(42.1 122.1)"/>
</clipPath>
</defs>
</svg>
