<svg width="16" height="16" viewBox="0 0 16 16" fill="none" xmlns="http://www.w3.org/2000/svg">
<path d="M10.7935 1.33325H5.20683C2.78016 1.33325 1.3335 2.77992 1.3335 5.20658V10.7866C1.3335 13.2199 2.78016 14.6666 5.20683 14.6666H10.7868C13.2135 14.6666 14.6602 13.2199 14.6602 10.7933V5.20658C14.6668 2.77992 13.2202 1.33325 10.7935 1.33325ZM10.7068 9.33325C10.6068 9.43325 10.4802 9.47992 10.3535 9.47992C10.2268 9.47992 10.1002 9.42659 10.0002 9.33325L8.00016 7.33325L6.00016 9.33325C5.80683 9.52658 5.48683 9.52658 5.2935 9.33325C5.10016 9.13992 5.10016 8.81992 5.2935 8.62658L7.64683 6.27325C7.84016 6.07992 8.16016 6.07992 8.3535 6.27325L10.7068 8.62658C10.9002 8.81992 10.9002 9.13325 10.7068 9.33325Z" fill="#F04438"/>
</svg>
