<svg width="16" height="16" viewBox="0 0 16 16" fill="none" xmlns="http://www.w3.org/2000/svg">
<path d="M10.7935 1.33325H5.20683C2.78016 1.33325 1.3335 2.77992 1.3335 5.20658V10.7866C1.3335 13.2199 2.78016 14.6666 5.20683 14.6666H10.7868C13.2135 14.6666 14.6602 13.2199 14.6602 10.7933V5.20658C14.6668 2.77992 13.2202 1.33325 10.7935 1.33325ZM10.7068 7.44659L8.3535 9.79992C8.2535 9.89992 8.12683 9.94658 8.00016 9.94658C7.8735 9.94658 7.74683 9.89992 7.64683 9.79992L5.2935 7.44659C5.10016 7.25325 5.10016 6.93325 5.2935 6.73992C5.48683 6.54658 5.80683 6.54658 6.00016 6.73992L8.00016 8.73992L10.0002 6.73992C10.1935 6.54658 10.5135 6.54658 10.7068 6.73992C10.9002 6.93325 10.9002 7.24658 10.7068 7.44659Z" fill="#59B96F"/>
</svg>
