<svg width="16" height="16" viewBox="0 0 16 16" fill="none" xmlns="http://www.w3.org/2000/svg">
<path d="M10.7935 1.33325H5.20683C2.78016 1.33325 1.3335 2.77992 1.3335 5.20658V10.7866C1.3335 13.2199 2.78016 14.6666 5.20683 14.6666H10.7868C13.2135 14.6666 14.6602 13.2199 14.6602 10.7933V5.20658C14.6668 2.77992 13.2202 1.33325 10.7935 1.33325ZM9.86016 8.35325L7.50683 10.7066C7.40683 10.8066 7.28016 10.8533 7.1535 10.8533C7.02683 10.8533 6.90016 10.8066 6.80016 10.7066C6.60683 10.5133 6.60683 10.1933 6.80016 9.99992L8.80016 7.99992L6.80016 5.99992C6.60683 5.80658 6.60683 5.48659 6.80016 5.29325C6.9935 5.09992 7.3135 5.09992 7.50683 5.29325L9.86016 7.64658C10.0602 7.83992 10.0602 8.15992 9.86016 8.35325Z" fill="#F3A218"/>
</svg>
