<svg width="16" height="16" viewBox="0 0 16 16" fill="none" xmlns="http://www.w3.org/2000/svg">
<path d="M14.9891 11.2898L13.5516 6.98977C13.9513 6.71773 14.1216 6.62752 14.222 6.41418C14.3488 6.14437 13.903 4.86154 13.6314 4.64755C13.395 4.46126 13.2516 4.52822 12.7478 4.58502L11.3083 0.279008C11.2713 0.168063 11.1501 0.107627 11.0392 0.144715L11.0112 0.154059C10.9003 0.191147 10.8399 0.312266 10.8769 0.423211L10.9346 0.595748C10.6851 1.25631 9.25671 4.59244 5.44273 5.86739C3.06347 6.66274 2.24159 6.30408 1.65121 7.19876C1.50706 7.41722 1.47854 7.82581 1.53163 8.31069C1.3118 8.35443 1.16863 8.4183 1.05246 8.61344C0.812619 9.01632 1.37248 10.7946 1.80206 10.8558C1.96586 10.8792 2.11363 10.8483 2.28828 10.7829C2.55675 11.2919 2.86223 11.6532 3.15041 11.6836C3.56552 11.7272 3.9374 11.6227 4.41323 11.4297C4.81902 12.7503 5.58122 15.5922 5.97803 15.8285C6.38091 16.0683 8.23508 14.8836 8.29631 14.454C8.33884 14.1556 7.48926 14.0003 6.71038 12.8872C6.72957 12.8466 6.73404 12.799 6.7187 12.7532L6.46233 11.9862C6.4308 11.8919 6.32879 11.841 6.23449 11.8725L6.17054 11.8939C6.04118 11.5852 5.92264 11.233 5.82116 10.8304C6.15202 10.6967 6.52699 10.5548 6.96117 10.4097L6.96119 10.4097C10.6568 9.17432 13.9002 10.9138 14.5021 11.2676L14.5577 11.434C14.5948 11.5449 14.7159 11.6054 14.8268 11.5683L14.8548 11.5589C14.9657 11.5219 15.0262 11.4007 14.9891 11.2898Z" fill="#EDEDED"/>
<path d="M6.47994 8.96996L6.47991 8.96987L5.44273 5.86719C5.23572 5.93639 5.0412 5.99638 4.85689 6.0497C4.83278 6.05668 4.8086 6.06368 4.78486 6.07041C4.74619 6.08137 4.70829 6.09187 4.67059 6.10223C4.64904 6.10814 4.62711 6.11429 4.60589 6.12001C4.55725 6.13312 4.50959 6.14565 4.46256 6.15779C4.43284 6.16547 4.40379 6.17276 4.3747 6.18008C2.79602 6.57715 2.14289 6.45345 1.65122 7.19855C1.50707 7.41701 1.47855 7.8256 1.53163 8.31048C1.58352 8.78415 1.7134 9.33053 1.88973 9.84399C1.89584 9.86175 1.90189 9.87954 1.90809 9.89721C1.90809 9.89721 1.90808 9.89721 1.90807 9.89721C1.90825 9.89773 1.90845 9.89823 1.90861 9.89875C1.91321 9.91186 1.91796 9.92485 1.92262 9.9379C1.92865 9.95476 1.93464 9.97166 1.94076 9.98843C1.94588 10.0025 1.95111 10.0163 1.95629 10.0303C1.96211 10.0459 1.96788 10.0616 1.97379 10.0772C1.97918 10.0914 1.98469 10.1055 1.99014 10.1197C1.99599 10.1348 2.0018 10.15 2.00772 10.165C2.01328 10.1792 2.01894 10.1932 2.02457 10.2072C2.03054 10.2221 2.0365 10.237 2.04254 10.2518C2.0482 10.2657 2.05392 10.2794 2.05965 10.2932C2.06577 10.3079 2.07191 10.3227 2.0781 10.3373C2.08391 10.351 2.08977 10.3646 2.09564 10.3782C2.1019 10.3926 2.10815 10.4071 2.11446 10.4214C2.12035 10.4348 2.12628 10.4481 2.13222 10.4613C2.13864 10.4756 2.14509 10.4899 2.15158 10.5041C2.15755 10.5171 2.16355 10.5301 2.16957 10.543C2.17612 10.5571 2.18269 10.571 2.18931 10.5849C2.1954 10.5977 2.20151 10.6105 2.20764 10.6232C2.21427 10.6369 2.22095 10.6504 2.22764 10.6639C2.23382 10.6764 2.24003 10.6889 2.24628 10.7013C2.25307 10.7148 2.25992 10.7281 2.26677 10.7414C2.27297 10.7534 2.27915 10.7654 2.28537 10.7773C2.28632 10.7791 2.28725 10.7809 2.28822 10.7827C2.29431 10.7943 2.3005 10.8057 2.30666 10.8171C2.31278 10.8285 2.31889 10.84 2.32506 10.8512C2.33245 10.8647 2.33991 10.8779 2.34735 10.8911C2.35329 10.9017 2.35922 10.9124 2.36521 10.9228C2.37316 10.9367 2.38117 10.9502 2.38917 10.9638C2.39474 10.9732 2.40029 10.9829 2.40588 10.9922C2.41506 11.0075 2.42432 11.0223 2.43357 11.0373C2.43804 11.0445 2.44249 11.0519 2.44698 11.059C2.46065 11.0807 2.47438 11.102 2.48816 11.1227C2.49207 11.1286 2.49601 11.1342 2.49992 11.14C2.50996 11.1549 2.51998 11.1698 2.53006 11.1842C2.53548 11.192 2.54092 11.1993 2.54635 11.2069C2.55494 11.2189 2.56353 11.231 2.57215 11.2426C2.57817 11.2507 2.5842 11.2585 2.59025 11.2664C2.59835 11.2771 2.60646 11.2878 2.6146 11.2981C2.62086 11.3061 2.62714 11.3137 2.63342 11.3214C2.64136 11.3312 2.64929 11.341 2.65726 11.3504C2.66367 11.358 2.67011 11.3654 2.67655 11.3728C2.68441 11.3818 2.69226 11.3908 2.70012 11.3995C2.70664 11.4067 2.71315 11.4136 2.71968 11.4205C2.72752 11.4289 2.73536 11.4372 2.74322 11.4452C2.74975 11.4518 2.7563 11.4583 2.76284 11.4647C2.77069 11.4724 2.77855 11.4799 2.78641 11.4873C2.79298 11.4934 2.79954 11.4994 2.80612 11.5052C2.81398 11.5122 2.82183 11.5191 2.8297 11.5257C2.83628 11.5312 2.84284 11.5367 2.84942 11.542C2.85731 11.5483 2.86519 11.5544 2.87307 11.5603C2.87962 11.5653 2.88618 11.5702 2.89274 11.5749C2.90068 11.5805 2.90861 11.5858 2.91655 11.5911C2.92301 11.5954 2.92947 11.5997 2.93593 11.6037C2.94401 11.6087 2.95209 11.6133 2.96018 11.6178C2.96649 11.6214 2.9728 11.6251 2.97911 11.6284C2.98736 11.6327 2.99561 11.6365 3.00385 11.6403C3.00998 11.6432 3.0161 11.6462 3.02222 11.6488C3.03081 11.6525 3.03937 11.6555 3.04794 11.6586C3.05369 11.6607 3.05942 11.663 3.06514 11.6649C3.07464 11.6679 3.08412 11.6703 3.0936 11.6727C3.09836 11.6739 3.10315 11.6754 3.10789 11.6764C3.1221 11.6795 3.13629 11.6818 3.15042 11.6833C3.17955 11.6864 3.20846 11.6887 3.23721 11.6904C3.29472 11.6936 3.35155 11.694 3.40816 11.6918C3.43646 11.6907 3.4647 11.6889 3.49292 11.6864C3.54938 11.6816 3.6058 11.6741 3.66259 11.6642C3.69099 11.6593 3.71947 11.6538 3.7481 11.6476C3.91987 11.6108 4.0968 11.553 4.28989 11.4784C4.33012 11.4629 4.37134 11.4464 4.41306 11.4295C4.41325 11.4294 4.41345 11.4293 4.41364 11.4293C4.45639 11.4119 4.5001 11.3938 4.54463 11.3751C4.55075 11.3725 4.5568 11.37 4.56296 11.3674C4.60806 11.3483 4.65377 11.3288 4.70092 11.3085C4.73751 11.2927 4.77477 11.2765 4.81272 11.26C4.88862 11.2269 4.96734 11.1924 5.0493 11.1566C5.17223 11.1029 5.30242 11.0463 5.44125 10.9874C5.48751 10.9678 5.53476 10.9479 5.58301 10.9278C5.65184 10.899 5.72366 10.8697 5.79691 10.84C5.80501 10.8367 5.81299 10.8335 5.82116 10.8302C5.83156 10.826 5.84162 10.8218 5.85211 10.8176C5.85346 10.8171 5.85473 10.8166 5.85606 10.816C5.8562 10.816 5.85634 10.8159 5.8565 10.8158C5.88343 10.805 5.91097 10.7941 5.93849 10.7832C5.93878 10.7831 5.93904 10.7829 5.93931 10.7828C5.96185 10.7739 5.98447 10.7649 6.00741 10.7559C6.00757 10.7559 6.00774 10.7558 6.00789 10.7558C6.03595 10.7447 6.06443 10.7337 6.09311 10.7226C6.09325 10.7225 6.09338 10.7224 6.09353 10.7224C6.11679 10.7134 6.14029 10.7043 6.16397 10.6953C6.16404 10.6952 6.16409 10.6952 6.16413 10.6952C6.19394 10.6838 6.22402 10.6723 6.25451 10.6609C6.27837 10.6519 6.30261 10.6428 6.32689 10.6338C6.35816 10.6221 6.38953 10.6104 6.4215 10.5987C6.47088 10.5806 6.52052 10.5624 6.57164 10.5442C6.69607 10.4997 6.82576 10.4547 6.96115 10.4095L6.47994 8.96996Z" fill="#E73A3A"/>
<path d="M5.97985 9.2078C5.97808 9.20863 5.97628 9.20941 5.9745 9.21023C5.97628 9.20941 5.97805 9.20857 5.97983 9.20775L4.91831 6.03223C4.89746 6.03836 4.87746 6.04395 4.85689 6.04989C4.83277 6.05687 4.8086 6.06388 4.78486 6.07061C4.74619 6.08157 4.70828 6.09207 4.67059 6.10242C4.64904 6.10833 4.62711 6.11448 4.60589 6.12021C4.55725 6.13332 4.50958 6.14585 4.46256 6.15799C4.43284 6.16566 4.40379 6.17296 4.3747 6.18028C4.34811 6.18697 4.32111 6.19387 4.29504 6.20027L5.38401 9.45789C5.38597 9.45716 5.38798 9.4565 5.38995 9.45578C5.38798 9.4565 5.38603 9.4573 5.38405 9.45803L5.84019 10.8226C5.84538 10.8205 5.85084 10.8183 5.85606 10.8162C5.8562 10.8162 5.85634 10.8161 5.8565 10.8161C5.88343 10.8052 5.91097 10.7943 5.93849 10.7834C5.93877 10.7833 5.93904 10.7832 5.93931 10.7831C5.96185 10.7741 5.98447 10.7652 6.00741 10.7562C6.00757 10.7561 6.00773 10.756 6.00788 10.756C6.03594 10.745 6.06443 10.7339 6.09311 10.7228C6.09325 10.7227 6.09338 10.7227 6.09353 10.7226C6.11679 10.7136 6.14029 10.7046 6.16397 10.6955C6.16403 10.6955 6.16409 10.6955 6.16413 10.6954C6.19394 10.684 6.22402 10.6726 6.25451 10.6611C6.27837 10.6521 6.30261 10.643 6.32689 10.634C6.35816 10.6223 6.38952 10.6107 6.4215 10.5989C6.42854 10.5963 6.43523 10.5938 6.44229 10.5912L5.97985 9.2078Z" fill="#EF7C54"/>
<path d="M2.28538 10.7776C2.27915 10.7657 2.27297 10.7537 2.26678 10.7417C2.25992 10.7284 2.25308 10.7151 2.24628 10.7016C2.24004 10.6892 2.23384 10.6767 2.22765 10.6642C2.22096 10.6507 2.21429 10.6372 2.20765 10.6235C2.20152 10.6108 2.1954 10.598 2.18931 10.5852C2.18271 10.5713 2.17612 10.5574 2.16957 10.5433C2.16356 10.5304 2.15757 10.5174 2.15159 10.5044C2.1451 10.4902 2.13865 10.476 2.13222 10.4616C2.12628 10.4484 2.12035 10.4351 2.11447 10.4217C2.10816 10.4074 2.1019 10.393 2.09565 10.3785C2.08978 10.3649 2.08392 10.3513 2.0781 10.3376C2.07192 10.323 2.06578 10.3083 2.05965 10.2935C2.05393 10.2797 2.04821 10.266 2.04254 10.2521C2.03651 10.2373 2.03054 10.2225 2.02458 10.2075C2.01895 10.1935 2.01329 10.1795 2.00772 10.1653C2.00181 10.1503 1.996 10.1351 1.99015 10.12C1.98468 10.1058 1.97919 10.0917 1.9738 10.0775C1.96789 10.0619 1.96211 10.0462 1.9563 10.0306C1.95112 10.0167 1.94588 10.0028 1.94077 9.98874C1.93464 9.97197 1.92866 9.95507 1.92262 9.9382C1.91797 9.92515 1.91322 9.91217 1.90862 9.89906C1.90844 9.89855 1.90826 9.89804 1.90807 9.89752C1.90807 9.89752 1.90808 9.89752 1.9081 9.89752C1.90189 9.87984 1.89584 9.86205 1.88974 9.8443C1.71341 9.33084 1.58352 8.78446 1.53164 8.31079C1.31181 8.35453 1.16863 8.4184 1.05247 8.61355C0.928038 8.82255 1.01888 9.40169 1.19505 9.91926C1.19508 9.91933 1.19511 9.9194 1.19513 9.91947C1.24606 10.069 1.30411 10.2134 1.36614 10.3423C1.36638 10.3428 1.36663 10.3433 1.36688 10.3438C1.37881 10.3685 1.39089 10.3926 1.40309 10.4162C1.4038 10.4175 1.40452 10.4189 1.40523 10.4203C1.41709 10.443 1.42907 10.4651 1.44113 10.4865C1.44222 10.4885 1.4433 10.4904 1.4444 10.4924C1.45623 10.5132 1.46817 10.5334 1.48017 10.5529C1.48148 10.555 1.48278 10.5572 1.48409 10.5593C1.49593 10.5783 1.50785 10.5966 1.51981 10.6142C1.52131 10.6164 1.5228 10.6186 1.5243 10.6208C1.53616 10.638 1.54806 10.6544 1.55999 10.67C1.56157 10.6721 1.56315 10.6742 1.56474 10.6762C1.57665 10.6916 1.5886 10.7062 1.60054 10.7198C1.60211 10.7216 1.60367 10.7233 1.60523 10.7251C1.61721 10.7385 1.6292 10.7511 1.64117 10.7628C1.64269 10.7642 1.64419 10.7656 1.64571 10.767C1.65778 10.7785 1.66983 10.789 1.68185 10.7984C1.68317 10.7995 1.68448 10.8004 1.6858 10.8014C1.69803 10.8107 1.71021 10.8191 1.72234 10.8262C1.72337 10.8268 1.72437 10.8273 1.72541 10.8279C1.73782 10.835 1.75019 10.841 1.76247 10.8456C1.76307 10.8458 1.76366 10.846 1.76425 10.8462C1.77696 10.8508 1.78958 10.8542 1.80207 10.856C1.96585 10.8793 2.1136 10.8484 2.28823 10.783C2.28726 10.7812 2.28633 10.7794 2.28538 10.7776Z" fill="#CC1A25"/>
<path d="M14.0935 5.5533C14.0927 5.55403 14.0919 5.55477 14.0911 5.55551C13.9607 5.15908 13.7726 4.75906 13.6314 4.64782C13.395 4.46153 13.2516 4.52849 12.7478 4.58529L13.2562 6.10623L13.5516 6.99004C13.9513 6.71801 14.1216 6.6278 14.2219 6.41445C14.2856 6.27913 14.2117 5.91122 14.0935 5.5533Z" fill="#E6E6E6"/>
<path d="M4.85738 6.15006L4.58176 6.24219L5.30246 8.39838L5.57808 8.30625L4.85738 6.15006Z" fill="#F4A081"/>
<path d="M4.19895 6.33105C4.19895 6.33105 3.27878 6.60727 2.93491 6.65464C2.59103 6.70203 2.15157 6.76233 1.85589 7.15317C1.58334 7.51344 1.68926 8.14921 1.68926 8.14921L4.46343 7.22185L4.19895 6.33105Z" fill="#EB5E53"/>
<path d="M5.39068 5.97168L5.03717 6.08984L5.31988 6.93566L5.67339 6.8175L5.39068 5.97168Z" fill="#EB5E53"/>
<path d="M14.9891 11.2898L13.5516 6.98977L13.2562 6.10596L12.7478 4.58502L11.3083 0.279008C11.2712 0.168063 11.1501 0.107627 11.0392 0.144715L11.0252 0.149383L11.0112 0.154059C10.9003 0.191147 10.8399 0.312266 10.8769 0.423211L10.9346 0.595748L13.1754 7.29906L14.5021 11.2676L14.5577 11.434C14.5948 11.5449 14.7159 11.6054 14.8268 11.5683L14.8408 11.5636L14.8548 11.5589C14.9657 11.5219 15.0262 11.4007 14.9891 11.2898Z" fill="#BDBDBD"/>
<path d="M10.0374 4.78672C11.2394 3.87913 11.582 2.99094 11.582 2.99094L10.9211 1.01367C10.9211 1.01367 10.1286 2.84628 8.78203 4.10012C7.30881 5.47188 5.60709 5.9608 5.60709 5.9608L5.87148 6.75171C5.87148 6.75171 8.55103 5.90898 10.0374 4.78672Z" fill="white"/>
<path d="M6.8085 13.0217C6.80851 13.0217 6.80852 13.0217 6.80854 13.0216C6.80773 13.0206 6.80698 13.0197 6.80618 13.0187C6.77416 12.9763 6.74221 12.9323 6.71038 12.8868C6.72957 12.8463 6.73404 12.7987 6.71869 12.7529L6.46232 11.9859C6.4308 11.8916 6.32878 11.8407 6.23447 11.8722L6.17149 11.8933C6.15122 11.8445 6.1305 11.7942 6.10902 11.7411C6.00349 11.4702 5.90631 11.168 5.82115 10.8301C5.81298 10.8334 5.80501 10.8366 5.7969 10.8399C5.72812 10.8678 5.6607 10.8953 5.5958 10.9224C5.59161 10.9241 5.58718 10.9259 5.583 10.9277C5.53475 10.9478 5.48752 10.9677 5.44124 10.9873C5.30241 11.0462 5.17222 11.1028 5.0493 11.1565C4.96735 11.1923 4.88862 11.2268 4.81271 11.2599C4.77476 11.2764 4.73751 11.2926 4.70091 11.3084C4.65377 11.3287 4.60806 11.3482 4.56296 11.3673C4.55683 11.3698 4.5507 11.3724 4.54462 11.375C4.5001 11.3937 4.45639 11.4118 4.41364 11.4292C4.4135 11.4292 4.41337 11.4293 4.41323 11.4293C4.48516 11.6634 4.56822 11.945 4.65853 12.2518C4.67599 12.3111 4.69372 12.3713 4.7117 12.4323C4.72966 12.4934 4.74788 12.5551 4.76631 12.6175C4.78473 12.6799 4.80337 12.7428 4.82217 12.8062C4.83159 12.8379 4.84104 12.8697 4.85053 12.9016C4.86952 12.9654 4.88869 13.0295 4.90797 13.0938C4.92727 13.1581 4.9467 13.2226 4.96624 13.2871C4.976 13.3194 4.98581 13.3516 4.99563 13.3839C5.01526 13.4483 5.03501 13.5127 5.0548 13.5769C5.07459 13.6411 5.09447 13.705 5.11436 13.7685C5.13427 13.8321 5.1542 13.8952 5.17415 13.9578C5.20407 14.0516 5.23399 14.1442 5.26384 14.2349C5.28373 14.2954 5.30361 14.355 5.32339 14.4137C5.3333 14.443 5.34318 14.4721 5.35303 14.501C5.39247 14.6163 5.4316 14.7273 5.47017 14.8328C5.48945 14.8855 5.50859 14.9368 5.52758 14.9865C5.54656 15.0363 5.56537 15.0845 5.58398 15.1309C5.6026 15.1774 5.62101 15.2221 5.6392 15.265C5.65739 15.3078 5.67536 15.3487 5.69307 15.3876C5.71077 15.4264 5.72823 15.4632 5.74541 15.4978C5.83127 15.6706 5.91001 15.7877 5.97802 15.8282C5.986 15.8329 5.99474 15.8369 6.00385 15.8406C6.00634 15.8416 6.00891 15.8425 6.01149 15.8434C6.01923 15.8462 6.0273 15.8486 6.03576 15.8506C6.03774 15.8511 6.03962 15.8517 6.04165 15.8522C6.05199 15.8544 6.06289 15.8561 6.0742 15.8574C6.07699 15.8577 6.07991 15.8578 6.08274 15.8581C6.09204 15.8589 6.10164 15.8594 6.11153 15.8596C6.11473 15.8597 6.11788 15.8598 6.12115 15.8598C6.13371 15.8598 6.14662 15.8594 6.16004 15.8584C6.16203 15.8583 6.16414 15.858 6.16614 15.8579C6.17794 15.8569 6.19007 15.8556 6.20247 15.854C6.20647 15.8535 6.21051 15.8529 6.21458 15.8523C6.22779 15.8504 6.24127 15.8482 6.2551 15.8456C6.2566 15.8453 6.25802 15.8451 6.25952 15.8448C6.27485 15.8418 6.29065 15.8383 6.3067 15.8345C6.31091 15.8335 6.31518 15.8324 6.31945 15.8314C6.33269 15.8281 6.34614 15.8245 6.35982 15.8207C6.36342 15.8197 6.36694 15.8188 6.37057 15.8178C6.38744 15.8129 6.40461 15.8077 6.42209 15.8021C6.42569 15.801 6.42935 15.7997 6.43299 15.7986C6.44758 15.7938 6.46237 15.7888 6.47734 15.7835C6.48193 15.7819 6.48649 15.7803 6.4911 15.7787C6.50948 15.7721 6.52806 15.7653 6.54695 15.758C6.54759 15.7578 6.54823 15.7575 6.54887 15.7573C6.56722 15.7502 6.58585 15.7427 6.60463 15.735C6.60922 15.7331 6.61385 15.7312 6.61846 15.7293C6.63625 15.7219 6.65419 15.7142 6.6723 15.7063C6.67409 15.7055 6.67584 15.7048 6.67762 15.704C6.69787 15.6951 6.71832 15.6859 6.73891 15.6764C6.74272 15.6746 6.74653 15.6728 6.75035 15.6711C6.76824 15.6627 6.78623 15.6542 6.80433 15.6455C6.80759 15.6439 6.81083 15.6424 6.81408 15.6408C6.8354 15.6304 6.85683 15.6198 6.87838 15.6089C6.87964 15.6083 6.88088 15.6076 6.88212 15.607C6.9023 15.5967 6.92258 15.5862 6.9429 15.5756C6.94641 15.5737 6.9499 15.5719 6.95341 15.57C6.99706 15.547 7.04096 15.523 7.08489 15.4981C7.0875 15.4967 7.09012 15.4952 7.09272 15.4937C7.13779 15.4681 7.18288 15.4418 7.22774 15.4147C7.22817 15.4145 7.22858 15.4142 7.22901 15.4139C7.25138 15.4004 7.27367 15.3868 7.29587 15.373C7.29679 15.3724 7.29772 15.3718 7.29864 15.3713C7.34389 15.3431 7.38873 15.3143 7.43294 15.2852C7.43392 15.2845 7.43491 15.2839 7.43589 15.2832C7.48041 15.2538 7.52426 15.224 7.56717 15.1939C7.5672 15.1939 7.56722 15.1939 7.56724 15.1939C7.67558 15.118 7.77787 15.0406 7.86969 14.9648C7.86976 14.9647 7.86983 14.9646 7.86989 14.9646C8.10994 14.7662 8.27852 14.5782 8.29626 14.4537C8.33705 14.1678 7.55882 14.0132 6.8085 13.0217Z" fill="#CC1A25"/>
<path d="M13.5516 6.98948C13.9513 6.71744 14.1216 6.62723 14.222 6.41388C14.2856 6.27857 14.2117 5.91065 14.0935 5.55273C14.0927 5.55347 14.0919 5.55421 14.0911 5.55494C13.8954 5.73664 13.6261 5.91871 13.2562 6.10567L13.5516 6.98948Z" fill="#CFD9DF"/>
<path d="M11.0112 0.154335C10.9003 0.191423 10.8399 0.312542 10.8769 0.423487L10.9346 0.596024L13.1754 7.29934L14.5021 11.2679L14.5577 11.4343C14.5948 11.5452 14.7159 11.6056 14.8268 11.5686L14.8408 11.5639L11.0252 0.149658L11.0112 0.154335Z" fill="#9AA5AB"/>
<path d="M12.4246 7.30938C10.5863 7.45668 8.9333 7.99058 7.27477 8.61975C7.00223 8.72314 6.74001 8.84531 6.47991 8.96971L6.47994 8.9698L6.96115 10.4093L6.96117 10.4093C10.6567 9.17397 13.9002 10.9134 14.5021 11.2673L13.1754 7.29871C12.9295 7.28251 12.6808 7.28391 12.4246 7.30938Z" fill="#CFD9DF"/>
<path d="M2.26678 10.7411C2.25992 10.7278 2.25308 10.7145 2.24628 10.7011C2.24003 10.6887 2.23384 10.6762 2.22765 10.6637C2.22096 10.6502 2.21429 10.6366 2.20765 10.6229C2.20152 10.6103 2.1954 10.5975 2.18931 10.5847C2.1827 10.5708 2.17612 10.5568 2.16957 10.5428C2.16356 10.5299 2.15756 10.5169 2.15159 10.5039C2.1451 10.4897 2.13865 10.4754 2.13222 10.4611C2.12628 10.4478 2.12035 10.4345 2.11447 10.4212C2.10816 10.4068 2.1019 10.3924 2.09565 10.3779C2.08978 10.3643 2.08392 10.3507 2.0781 10.337C2.07192 10.3224 2.06578 10.3077 2.05965 10.293C2.05393 10.2792 2.04821 10.2655 2.04254 10.2516C2.03651 10.2368 2.03054 10.2219 2.02458 10.207C2.01895 10.1929 2.01329 10.1789 2.00772 10.1648C2.00181 10.1497 1.996 10.1346 1.99015 10.1195C1.98468 10.1053 1.97919 10.0912 1.97379 10.0769C1.96789 10.0614 1.96211 10.0457 1.9563 10.0301C1.95112 10.0161 1.94588 10.0022 1.94077 9.98819C1.93464 9.97142 1.92866 9.95452 1.92262 9.93766C1.91796 9.92461 1.91322 9.91163 1.90862 9.89851C1.90844 9.898 1.90826 9.89749 1.90807 9.89697C1.90807 9.89697 1.90808 9.89697 1.9081 9.89697C1.90189 9.87929 1.89584 9.8615 1.88974 9.84375C1.66032 9.88281 1.42853 9.90849 1.19505 9.9187C1.19508 9.91877 1.19511 9.91884 1.19513 9.91891C1.24606 10.0685 1.30411 10.2129 1.36614 10.3417C1.36638 10.3422 1.36663 10.3427 1.36688 10.3432C1.37881 10.368 1.39089 10.3921 1.40309 10.4156C1.4038 10.417 1.40452 10.4184 1.40522 10.4197C1.41708 10.4425 1.42907 10.4646 1.44113 10.486C1.44222 10.4879 1.4433 10.4899 1.44439 10.4918C1.45623 10.5127 1.46817 10.5329 1.48017 10.5523C1.48148 10.5545 1.48278 10.5566 1.48409 10.5587C1.49593 10.5778 1.50785 10.5961 1.51981 10.6137C1.52131 10.6159 1.5228 10.618 1.5243 10.6202C1.53616 10.6374 1.54806 10.6539 1.55999 10.6695C1.56157 10.6716 1.56315 10.6736 1.56474 10.6757C1.57665 10.691 1.5886 10.7056 1.60054 10.7192C1.60211 10.721 1.60367 10.7228 1.60523 10.7245C1.61721 10.738 1.6292 10.7506 1.64117 10.7622C1.64269 10.7637 1.64419 10.765 1.64571 10.7665C1.65778 10.7779 1.66983 10.7885 1.68185 10.7979C1.68317 10.7989 1.68448 10.7998 1.6858 10.8008C1.69802 10.8102 1.71021 10.8186 1.72234 10.8257C1.72337 10.8263 1.72437 10.8268 1.72541 10.8274C1.73782 10.8344 1.75019 10.8405 1.76247 10.845C1.76307 10.8453 1.76366 10.8454 1.76425 10.8456C1.77696 10.8502 1.78957 10.8536 1.80207 10.8554C1.96585 10.8787 2.1136 10.8478 2.28823 10.7825C2.28727 10.7807 2.28633 10.7788 2.28539 10.777C2.27915 10.7652 2.27297 10.7531 2.26678 10.7411Z" fill="#B20E12"/>
<path d="M5.97985 9.20801C5.97808 9.20883 5.97628 9.20961 5.9745 9.21043C5.93246 9.22985 5.89031 9.24896 5.84807 9.26785C5.8417 9.2707 5.83534 9.27362 5.82895 9.27646C5.6845 9.34073 5.53859 9.40146 5.38994 9.45598C5.38796 9.4567 5.38601 9.45751 5.38403 9.45823L5.84018 10.8228C5.84536 10.8207 5.85083 10.8185 5.85604 10.8164C5.85618 10.8164 5.85632 10.8163 5.85648 10.8163C5.88341 10.8054 5.91095 10.7945 5.93848 10.7836C5.93876 10.7835 5.93902 10.7834 5.9393 10.7833C5.96183 10.7743 5.98445 10.7654 6.00739 10.7564C6.00755 10.7563 6.00772 10.7562 6.00787 10.7562C6.03593 10.7452 6.06441 10.7341 6.09309 10.723C6.09323 10.7229 6.09336 10.7229 6.09351 10.7228C6.11677 10.7138 6.14027 10.7048 6.16396 10.6957C6.16402 10.6957 6.16407 10.6957 6.16412 10.6956C6.19392 10.6842 6.224 10.6728 6.25449 10.6613C6.27835 10.6523 6.30259 10.6432 6.32688 10.6342C6.35814 10.6225 6.38951 10.6109 6.42149 10.5991C6.42852 10.5965 6.43522 10.594 6.44228 10.5914L5.97985 9.20801Z" fill="#EA5242"/>
<path d="M6.47994 8.9707C6.3131 9.05049 6.14707 9.13103 5.97983 9.20831C5.97805 9.20913 5.97628 9.20997 5.9745 9.21079C5.97628 9.20997 5.97808 9.20918 5.97985 9.20836L6.4423 10.5918C6.43524 10.5943 6.42854 10.5969 6.42151 10.5995C6.47088 10.5814 6.52053 10.5632 6.57164 10.545C6.69607 10.5005 6.82577 10.4555 6.96116 10.4102L6.47994 8.9707Z" fill="#D11625"/>
<path d="M5.84018 10.8226L5.38404 9.45806C5.38602 9.45734 5.38797 9.45653 5.38994 9.45581C5.38797 9.45653 5.38596 9.4572 5.384 9.45792C5.20831 9.52212 5.02882 9.57779 4.84306 9.61989C3.87225 9.85057 2.88961 10.0065 1.90809 9.89744C1.90809 9.89744 1.90808 9.89744 1.90807 9.89744C1.90825 9.89796 1.90845 9.89846 1.90861 9.89898C1.91321 9.91209 1.91796 9.92507 1.92262 9.93813C1.92865 9.95499 1.93464 9.97189 1.94076 9.98866C1.94588 10.0027 1.95111 10.0166 1.95629 10.0305C1.9621 10.0462 1.96788 10.0618 1.97379 10.0774C1.97918 10.0916 1.98469 10.1058 1.99014 10.1199C1.99599 10.1351 2.0018 10.1502 2.00772 10.1652C2.01328 10.1794 2.01894 10.1934 2.02457 10.2075C2.03053 10.2224 2.0365 10.2373 2.04254 10.2521C2.0482 10.2659 2.05392 10.2797 2.05965 10.2934C2.06577 10.3082 2.07191 10.3229 2.0781 10.3375C2.08391 10.3512 2.08977 10.3648 2.09564 10.3784C2.1019 10.3929 2.10815 10.4073 2.11446 10.4216C2.12035 10.435 2.12628 10.4483 2.13221 10.4615C2.13864 10.4759 2.14509 10.4901 2.15158 10.5043C2.15755 10.5174 2.16355 10.5303 2.16957 10.5433C2.17611 10.5573 2.18269 10.5713 2.18931 10.5851C2.1954 10.598 2.20151 10.6107 2.20764 10.6234C2.21427 10.6371 2.22095 10.6506 2.22764 10.6641C2.23382 10.6767 2.24003 10.6892 2.24627 10.7015C2.25307 10.715 2.25992 10.7283 2.26677 10.7416C2.27297 10.7536 2.27914 10.7656 2.28537 10.7775C2.28632 10.7793 2.28725 10.7812 2.28822 10.783C2.29431 10.7946 2.3005 10.8059 2.30666 10.8173C2.31278 10.8287 2.31889 10.8402 2.32506 10.8514C2.33245 10.8649 2.33991 10.8781 2.34735 10.8914C2.35329 10.9019 2.35922 10.9126 2.36521 10.923C2.37316 10.9369 2.38117 10.9504 2.38917 10.964C2.39474 10.9735 2.40029 10.9831 2.40588 10.9924C2.41506 11.0077 2.42432 11.0226 2.43357 11.0375C2.43804 11.0447 2.44249 11.0521 2.44698 11.0592C2.46065 11.0809 2.47438 11.1022 2.48816 11.123C2.49207 11.1289 2.496 11.1345 2.49992 11.1403C2.50996 11.1552 2.51998 11.17 2.53006 11.1844C2.53547 11.1922 2.54092 11.1996 2.54635 11.2072C2.55494 11.2192 2.56353 11.2312 2.57215 11.2429C2.57817 11.251 2.5842 11.2587 2.59025 11.2667C2.59835 11.2773 2.60646 11.288 2.6146 11.2984C2.62086 11.3063 2.62714 11.3139 2.63342 11.3217C2.64135 11.3314 2.64929 11.3412 2.65726 11.3507C2.66367 11.3583 2.67011 11.3656 2.67654 11.373C2.68441 11.382 2.69226 11.391 2.70012 11.3997C2.70663 11.4069 2.71315 11.4138 2.71968 11.4208C2.72752 11.4291 2.73536 11.4374 2.74322 11.4454C2.74975 11.4521 2.7563 11.4585 2.76284 11.4649C2.77069 11.4726 2.77855 11.4802 2.7864 11.4875C2.79298 11.4936 2.79953 11.4996 2.80612 11.5055C2.81398 11.5125 2.82183 11.5193 2.8297 11.5259C2.83628 11.5315 2.84284 11.5369 2.84942 11.5422C2.85731 11.5485 2.86519 11.5546 2.87307 11.5606C2.87962 11.5655 2.88618 11.5704 2.89273 11.5751C2.90068 11.5808 2.90861 11.5861 2.91655 11.5913C2.92301 11.5956 2.92947 11.5999 2.93593 11.6039C2.94401 11.6089 2.95209 11.6135 2.96018 11.6181C2.96649 11.6216 2.9728 11.6253 2.9791 11.6286C2.98735 11.6329 2.99561 11.6367 3.00385 11.6406C3.00998 11.6434 3.01609 11.6465 3.02222 11.6491C3.0308 11.6527 3.03937 11.6557 3.04794 11.6588C3.05369 11.6609 3.05942 11.6633 3.06514 11.6651C3.07464 11.6682 3.08412 11.6705 3.0936 11.6729C3.09836 11.6741 3.10314 11.6756 3.10789 11.6767C3.1221 11.6797 3.13629 11.6821 3.15042 11.6836C3.17955 11.6866 3.20846 11.689 3.23721 11.6906C3.29471 11.6938 3.35155 11.6943 3.40816 11.692C3.43646 11.6909 3.4647 11.6891 3.49292 11.6867C3.54938 11.6818 3.6058 11.6743 3.66259 11.6645C3.69099 11.6595 3.71947 11.654 3.7481 11.6478C3.91987 11.6111 4.0968 11.5532 4.28989 11.4787C4.33012 11.4631 4.37134 11.4466 4.41306 11.4297C4.41325 11.4296 4.41345 11.4296 4.41364 11.4295C4.45638 11.4121 4.5001 11.394 4.54463 11.3753C4.55075 11.3727 4.5568 11.3702 4.56296 11.3676C4.60806 11.3485 4.65377 11.3291 4.70092 11.3087C4.73751 11.2929 4.77477 11.2767 4.81272 11.2602C4.88862 11.2271 4.96734 11.1926 5.0493 11.1568C5.17223 11.1031 5.30242 11.0465 5.44125 10.9876C5.48751 10.968 5.53476 10.9481 5.58301 10.928C5.65184 10.8993 5.72366 10.8699 5.79691 10.8402C5.80501 10.8369 5.81299 10.8337 5.82116 10.8304C5.83156 10.8262 5.84162 10.8221 5.85211 10.8178C5.85345 10.8173 5.85473 10.8168 5.85606 10.8162C5.85083 10.8184 5.84538 10.8205 5.84018 10.8226Z" fill="#D11625"/>
<path d="M5.79917 13.4306C5.41027 12.6497 5.1813 11.6924 5.5958 10.9229C5.59161 10.9246 5.58718 10.9264 5.583 10.9281C5.53475 10.9483 5.48752 10.9682 5.44124 10.9878C5.30241 11.0467 5.17222 11.1033 5.0493 11.157C4.96735 11.1928 4.88862 11.2273 4.81271 11.2604C4.77476 11.2769 4.73751 11.2931 4.70091 11.3089C4.65377 11.3292 4.60806 11.3487 4.56296 11.3677C4.55683 11.3703 4.5507 11.3729 4.54462 11.3754C4.5001 11.3942 4.45639 11.4123 4.41364 11.4296C4.4135 11.4297 4.41337 11.4298 4.41323 11.4298C4.48516 11.6639 4.56822 11.9455 4.65853 12.2522C4.67599 12.3116 4.69372 12.3718 4.7117 12.4328C4.72966 12.4938 4.74788 12.5556 4.76631 12.618C4.78473 12.6803 4.80337 12.7433 4.82217 12.8067C4.83159 12.8384 4.84104 12.8702 4.85053 12.9021C4.86952 12.9659 4.88869 13.03 4.90797 13.0943C4.92727 13.1586 4.9467 13.2231 4.96624 13.2876C4.976 13.3198 4.98581 13.3521 4.99563 13.3843C5.01526 13.4488 5.03501 13.5132 5.0548 13.5774C5.07459 13.6415 5.09447 13.7055 5.11436 13.769C5.13427 13.8326 5.1542 13.8957 5.17415 13.9582C5.20407 14.0521 5.23399 14.1446 5.26384 14.2354C5.28373 14.2958 5.30361 14.3555 5.32339 14.4142C5.3333 14.4435 5.34318 14.4726 5.35303 14.5014C5.39247 14.6168 5.4316 14.7278 5.47017 14.8332C5.48945 14.8859 5.50859 14.9373 5.52758 14.987C5.54656 15.0368 5.56537 15.085 5.58398 15.1314C5.6026 15.1779 5.62101 15.2226 5.6392 15.2654C5.65739 15.3083 5.67536 15.3492 5.69307 15.388C5.71077 15.4269 5.72823 15.4637 5.74541 15.4983C5.83127 15.6711 5.91001 15.7881 5.97802 15.8286C5.986 15.8334 5.99474 15.8374 6.00385 15.841C6.00634 15.842 6.00891 15.843 6.01149 15.8439C6.01923 15.8466 6.0273 15.8491 6.03576 15.8511C6.03774 15.8516 6.03962 15.8522 6.04165 15.8526C6.05199 15.8549 6.06289 15.8566 6.0742 15.8578C6.07699 15.8581 6.07991 15.8583 6.08274 15.8586C6.09204 15.8594 6.10164 15.8599 6.11153 15.8601C6.11473 15.8601 6.11788 15.8602 6.12115 15.8602C6.13371 15.8602 6.14662 15.8598 6.16004 15.8589C6.16203 15.8588 6.16414 15.8585 6.16614 15.8583C6.17794 15.8574 6.19007 15.8561 6.20247 15.8545C6.20647 15.854 6.21051 15.8534 6.21458 15.8528C6.22779 15.8509 6.24127 15.8487 6.2551 15.8461C6.2566 15.8458 6.25802 15.8456 6.25952 15.8453C6.27485 15.8423 6.29065 15.8388 6.3067 15.835C6.31091 15.834 6.31518 15.8329 6.31945 15.8318C6.33269 15.8285 6.34614 15.825 6.35982 15.8212C6.36342 15.8202 6.36694 15.8193 6.37057 15.8182C6.38744 15.8134 6.40461 15.8082 6.42209 15.8026C6.42569 15.8015 6.42935 15.8002 6.43299 15.799C6.44758 15.7943 6.46237 15.7893 6.47734 15.784C6.48193 15.7824 6.48649 15.7808 6.4911 15.7792C6.50948 15.7726 6.52806 15.7658 6.54695 15.7585C6.54759 15.7582 6.54823 15.758 6.54887 15.7577C6.56722 15.7506 6.58585 15.7432 6.60463 15.7355C6.60922 15.7336 6.61385 15.7317 6.61846 15.7297C6.63625 15.7223 6.65419 15.7147 6.6723 15.7068C6.67409 15.706 6.67584 15.7053 6.67762 15.7045C6.69787 15.6956 6.71832 15.6864 6.73891 15.6769C6.74272 15.6751 6.74653 15.6733 6.75035 15.6715C6.76824 15.6632 6.78623 15.6547 6.80433 15.646C6.80759 15.6444 6.81083 15.6428 6.81408 15.6413C6.8354 15.6309 6.85683 15.6203 6.87838 15.6094C6.87964 15.6087 6.88088 15.6081 6.88212 15.6075C6.9023 15.5972 6.92258 15.5867 6.9429 15.576C6.94641 15.5742 6.9499 15.5724 6.95341 15.5705C6.99706 15.5474 7.04096 15.5234 7.08489 15.4986C7.0875 15.4971 7.09012 15.4957 7.09272 15.4942C7.13779 15.4686 7.18288 15.4423 7.22774 15.4152C7.22817 15.4149 7.22858 15.4147 7.22901 15.4144C7.25138 15.4009 7.27367 15.3873 7.29587 15.3735C7.29679 15.3729 7.29772 15.3723 7.29864 15.3717C7.34389 15.3436 7.38873 15.3148 7.43294 15.2856C7.43392 15.285 7.43491 15.2843 7.43589 15.2837C7.48041 15.2543 7.52426 15.2245 7.56717 15.1944C7.5672 15.1944 7.56722 15.1944 7.56724 15.1944C7.67558 15.1184 7.77787 15.0411 7.86969 14.9652C7.86976 14.9652 7.86983 14.9651 7.86989 14.9651C7.00501 14.7882 6.24029 14.3268 5.79917 13.4306Z" fill="#B00E18"/>
<path d="M5.73734 11.8634L6.22072 13.3094C6.22072 13.3094 6.73185 13.1718 6.80851 13.0221C6.80851 13.0221 6.80853 13.0221 6.80855 13.022C6.80774 13.021 6.80699 13.0201 6.80618 13.0191C6.77153 12.9764 6.7389 12.9345 6.70776 12.8928C6.687 12.933 6.65134 12.9656 6.60502 12.9811L6.33239 13.0722L5.96185 11.9638L6.1715 11.8937C6.15123 11.8449 6.13051 11.7946 6.10903 11.7415C6.10696 11.7364 6.10501 11.7317 6.10292 11.7266C6.05765 11.7439 5.73734 11.8634 5.73734 11.8634Z" fill="#A00F14"/>
</svg>
