<svg width="20" height="20" viewBox="0 0 20 20" fill="none" xmlns="http://www.w3.org/2000/svg">
<path d="M12.4083 2.87508H7.59167C7.25833 2.87508 6.99167 2.60841 6.99167 2.27508C6.99167 1.94175 7.25833 1.66675 7.59167 1.66675H12.4083C12.7417 1.66675 13.0083 1.93341 13.0083 2.26675C13.0083 2.60008 12.7417 2.87508 12.4083 2.87508Z" fill="white"/>
<path d="M16.6417 12.5H14.1917C13.1333 12.5 12.5 13.1333 12.5 14.1917V16.6417C12.5 17.7 13.1333 18.3333 14.1917 18.3333H16.6417C17.7 18.3333 18.3333 17.7 18.3333 16.6417V14.1917C18.3333 13.1333 17.7 12.5 16.6417 12.5ZM16.4083 16.2167L15.425 16.7833C15.225 16.9 15.025 16.9583 14.8417 16.9583C14.7 16.9583 14.575 16.925 14.4583 16.8583C14.1917 16.7 14.0417 16.3917 14.0417 15.9833V14.85C14.0417 14.4417 14.1917 14.1333 14.4583 13.975C14.725 13.8167 15.0667 13.85 15.425 14.05L16.4083 14.6167C16.7583 14.825 16.9583 15.1083 16.9583 15.4167C16.9583 15.725 16.7667 16.0083 16.4083 16.2167Z" fill="white"/>
<path d="M11.6667 16.6417V14.1917C11.6667 12.6833 12.6833 11.6667 14.1917 11.6667H16.6417C16.8333 11.6667 17.0167 11.6833 17.1917 11.7167C17.2083 11.5167 17.225 11.3167 17.225 11.1083C17.225 7.11667 13.9833 3.875 9.99999 3.875C6.01666 3.875 2.77499 7.11667 2.77499 11.1083C2.77499 15.0917 6.01666 18.3333 9.99999 18.3333C10.7083 18.3333 11.3833 18.2167 12.0333 18.0333C11.8 17.6417 11.6667 17.175 11.6667 16.6417ZM10.625 10.8333C10.625 11.175 10.3417 11.4583 9.99999 11.4583C9.65833 11.4583 9.37499 11.175 9.37499 10.8333V6.66667C9.37499 6.325 9.65833 6.04167 9.99999 6.04167C10.3417 6.04167 10.625 6.325 10.625 6.66667V10.8333Z" fill="white"/>
</svg>
