<svg width="20" height="20" viewBox="0 0 20 20" fill="none" xmlns="http://www.w3.org/2000/svg">
<path d="M12.4083 2.87508H7.59164C7.2583 2.87508 6.99164 2.60841 6.99164 2.27508C6.99164 1.94175 7.2583 1.66675 7.59164 1.66675H12.4083C12.7416 1.66675 13.0083 1.93341 13.0083 2.26675C13.0083 2.60008 12.7416 2.87508 12.4083 2.87508Z" fill="#E74C3C"/>
<path d="M11.6667 16.6417V14.1917C11.6667 12.6833 12.6834 11.6667 14.1917 11.6667H16.6417C16.8334 11.6667 17.0167 11.6833 17.1917 11.7167C17.2084 11.5167 17.225 11.3167 17.225 11.1083C17.225 7.11667 13.9834 3.875 10 3.875C6.01669 3.875 2.77502 7.11667 2.77502 11.1083C2.77502 15.0917 6.01669 18.3333 10 18.3333C10.7084 18.3333 11.3834 18.2167 12.0334 18.0333C11.8 17.6417 11.6667 17.175 11.6667 16.6417ZM10.625 10.8333C10.625 11.175 10.3417 11.4583 10 11.4583C9.65836 11.4583 9.37502 11.175 9.37502 10.8333V6.66667C9.37502 6.325 9.65836 6.04167 10 6.04167C10.3417 6.04167 10.625 6.325 10.625 6.66667V10.8333Z" fill="#E74C3C"/>
<path d="M16.6417 12.5H14.2C13.1333 12.5 12.5 13.1333 12.5 14.1917V16.6417C12.5 17.7 13.1333 18.3333 14.2 18.3333H16.6417C17.7 18.3333 18.3333 17.7 18.3333 16.6417V14.1917C18.3333 13.1333 17.7 12.5 16.6417 12.5ZM14.9333 16.7167C14.9333 16.9833 14.7167 17.2 14.4417 17.2C14.175 17.2 13.9583 16.9833 13.9583 16.7167V14.1167C13.9583 13.85 14.175 13.6333 14.4417 13.6333C14.7167 13.6333 14.9333 13.85 14.9333 14.1167V16.7167ZM16.875 16.7167C16.875 16.9833 16.6583 17.2 16.3917 17.2C16.125 17.2 15.9 16.9833 15.9 16.7167V14.1167C15.9 13.85 16.125 13.6333 16.3917 13.6333C16.6583 13.6333 16.875 13.85 16.875 14.1167V16.7167Z" fill="#E74C3C"/>
</svg>
